<svg width="113" height="113" viewBox="0 0 113 113" fill="none" xmlns="http://www.w3.org/2000/svg">
<circle cx="56.5" cy="56.5" r="56.5" fill="#00B24B"/>
<path fill-rule="evenodd" clip-rule="evenodd" d="M81.2656 34.0001H32.4844C31.5587 33.9949 30.6695 34.3603 30.0149 35.0149C29.3603 35.6695 28.9949 36.5587 29.0001 37.4844V65.3594C28.9949 66.2851 29.3603 67.1743 30.0149 67.8289C30.6695 68.4835 31.5587 68.8489 32.4844 68.8437H70.8125L74.2968 65.3594L84.7499 54.9063V37.4844C84.7551 36.5587 84.3897 35.6695 83.7351 35.0149C83.0806 34.3603 82.1913 33.9949 81.2656 34.0001ZM74.2969 54.9062C73.3712 54.901 72.4819 55.2665 71.8273 55.921C71.1728 56.5756 70.8073 57.4649 70.8125 58.3906V65.3593H32.4845V37.4844H81.2656V54.9062H74.2969ZM29.0001 74.4574C29.9701 75.298 31.2013 75.7768 32.4844 75.8124H81.2656C82.5487 75.7768 83.7799 75.298 84.7499 74.4574V75.8124C84.7551 76.7381 84.3897 77.6274 83.7351 78.282C83.0806 78.9365 82.1913 79.302 81.2656 79.2968H32.4844C31.5587 79.302 30.6695 78.9365 30.0149 78.282C29.3603 77.6274 28.9949 76.7381 29.0001 75.8124V74.4574ZM39.6467 47.7439C39.6467 48.7118 40.8082 49.2925 42.7439 49.8732L42.7815 49.8869C44.905 50.659 47.5856 51.6336 47.9705 54.7126C48.0589 56.103 47.3936 57.4336 46.2283 58.197C45.3644 58.7735 44.3617 59.1077 43.3246 59.1649V60.5199C43.3246 61.2683 42.718 61.875 41.9696 61.875C41.2212 61.875 40.6146 61.2683 40.6146 60.5199V59.1649C39.0476 58.841 37.6241 58.0275 36.5495 56.842C36.3104 56.6554 36.1681 56.3709 36.1623 56.0677C36.1515 55.7051 36.2908 55.3541 36.5473 55.0976C36.8038 54.8411 37.1548 54.7018 37.5174 54.7126C37.8808 54.6957 38.2338 54.8369 38.4852 55.0998C39.3871 56.0477 40.6643 56.5444 41.9696 56.4548C42.9375 56.4548 44.6797 56.2613 44.6797 54.7126C44.6797 53.7448 43.5182 53.164 41.5825 52.5833C39.2595 51.809 36.3559 50.8411 36.3559 47.7439C36.4768 45.6236 38.1156 43.9029 40.2274 43.6788V42.3238C40.2274 41.5754 40.8341 40.9688 41.5825 40.9688C42.3308 40.9688 42.9375 41.5754 42.9375 42.3238V43.6788C44.4582 43.8508 45.8495 44.616 46.809 45.8082C47.0193 46.017 47.1552 46.289 47.1962 46.5825C47.207 46.945 47.0677 47.296 46.8112 47.5525C46.5547 47.809 46.2037 47.9483 45.8411 47.9375C45.4821 47.9309 45.1378 47.7932 44.8733 47.5503C44.0665 46.7194 42.9302 46.2933 41.776 46.3889C40.8082 46.3889 39.6467 46.776 39.6467 47.7439ZM32.4844 70.5859H81.2656V60.9071L84.7499 57.4227V70.5859C84.7551 71.5116 84.3897 72.4009 83.7351 73.0554C83.0806 73.71 82.1913 74.0755 81.2656 74.0703H32.4844C31.5587 74.0755 30.6695 73.71 30.0149 73.0554C29.3603 72.4009 28.9949 71.5116 29.0001 70.5859V69.2309C29.9701 70.0715 31.2013 70.5503 32.4844 70.5859ZM77.0069 40.9687H64.6181C64.1409 41.0293 63.7981 41.4578 63.8438 41.9366C63.8719 42.3521 64.2026 42.6828 64.6181 42.7109H76.8133C77.2288 42.6828 77.5595 42.3521 77.5876 41.9366C77.6851 41.7317 77.6736 41.4916 77.5568 41.297C77.4401 41.1024 77.2336 40.9791 77.0069 40.9687ZM66.5539 60.1328H54.3586C53.8975 60.2255 53.5659 60.6305 53.5659 61.1007C53.5659 61.5709 53.8975 61.9759 54.3586 62.0686H66.5539C67.0149 61.9759 67.3466 61.5709 67.3466 61.1007C67.3466 60.6305 67.0149 60.2255 66.5539 60.1328Z" fill="black"/>
<path d="M74.2968 54.9062C73.3711 54.901 72.4818 55.2665 71.8272 55.921C71.1727 56.5756 70.8072 57.4649 70.8124 58.3906V65.3593H32.4844V37.4844H81.2655V54.9062H74.2968Z" fill="white"/>
<path fill-rule="evenodd" clip-rule="evenodd" d="M39.6467 47.7439C39.6467 48.7118 40.8082 49.2925 42.7439 49.8732L42.7815 49.8869C44.905 50.659 47.5856 51.6336 47.9705 54.7126C48.0589 56.103 47.3936 57.4336 46.2283 58.197C45.3644 58.7735 44.3617 59.1077 43.3246 59.1649V60.5199C43.3246 61.2683 42.718 61.875 41.9696 61.875C41.2212 61.875 40.6146 61.2683 40.6146 60.5199V59.1649C39.0476 58.841 37.6241 58.0275 36.5495 56.842C36.3104 56.6554 36.1681 56.3709 36.1623 56.0677C36.1515 55.7051 36.2908 55.3541 36.5473 55.0976C36.8038 54.8411 37.1548 54.7018 37.5174 54.7126C37.8808 54.6957 38.2338 54.8369 38.4852 55.0998C39.3871 56.0477 40.6643 56.5444 41.9696 56.4548C42.9375 56.4548 44.6797 56.2613 44.6797 54.7126C44.6797 53.7448 43.5182 53.164 41.5825 52.5833C39.2595 51.809 36.3559 50.8411 36.3559 47.7439C36.4768 45.6236 38.1156 43.9029 40.2274 43.6788V42.3238C40.2274 41.5754 40.8341 40.9688 41.5825 40.9688C42.3308 40.9688 42.9375 41.5754 42.9375 42.3238V43.6788C44.4582 43.8508 45.8495 44.616 46.809 45.8082C47.0193 46.017 47.1552 46.289 47.1962 46.5825C47.207 46.945 47.0677 47.296 46.8112 47.5525C46.5547 47.809 46.2037 47.9483 45.8411 47.9375C45.4821 47.9309 45.1378 47.7932 44.8733 47.5503C44.0665 46.7194 42.9302 46.2933 41.776 46.3889C40.8082 46.3889 39.6467 46.776 39.6467 47.7439ZM32.4844 70.5859H81.2656V60.9071L84.7499 57.4227V70.5859C84.7551 71.5116 84.3897 72.4009 83.7351 73.0554C83.0806 73.71 82.1913 74.0755 81.2656 74.0703H32.4844C31.5587 74.0755 30.6695 73.71 30.0149 73.0554C29.3603 72.4009 28.9949 71.5116 29.0001 70.5859V69.2309C29.9701 70.0715 31.2013 70.5503 32.4844 70.5859Z" fill="black"/>
<path fill-rule="evenodd" clip-rule="evenodd" d="M64.6176 40.9688H77.0065C77.2332 40.9792 77.4396 41.1024 77.5564 41.297C77.6731 41.4916 77.6847 41.7317 77.5872 41.9366C77.5591 42.3521 77.2283 42.6828 76.8129 42.7109H64.6176C64.2022 42.6828 63.8714 42.3521 63.8433 41.9366C63.7977 41.4578 64.1405 41.0293 64.6176 40.9688ZM54.3581 60.1328H66.5534C67.0144 60.2255 67.3461 60.6305 67.3461 61.1007C67.3461 61.5709 67.0144 61.9759 66.5534 62.0686H54.3581C53.8971 61.9759 53.5654 61.5709 53.5654 61.1007C53.5654 60.6305 53.8971 60.2255 54.3581 60.1328Z" fill="black"/>
</svg>
