<svg width="1188" height="344" viewBox="0 0 1188 344" fill="none" xmlns="http://www.w3.org/2000/svg">
<g clip-path="url(#clip0)">
<path d="M1173.28 9.44397C1175.68 9.44397 1178.09 10.0921 1180.31 11.2957C1182.54 12.4994 1184.48 14.2586 1185.68 16.5733C1186.98 18.888 1187.63 21.2952 1187.63 23.7951C1187.63 26.3876 1186.98 28.7023 1185.68 31.017C1184.48 33.3317 1182.63 35.1835 1180.31 36.3871C1178 37.6833 1175.68 38.2389 1173.18 38.2389C1170.68 38.2389 1168.28 37.6833 1165.87 36.3871C1163.55 35.0909 1161.89 33.3317 1160.59 31.017C1159.39 28.7023 1158.65 26.3876 1158.65 23.7951C1158.65 21.3878 1159.3 18.9805 1160.59 16.5733C1161.89 14.2586 1163.65 12.4994 1165.96 11.2957C1168.55 10.0921 1170.87 9.44397 1173.28 9.44397ZM1173.28 11.8513C1171.15 11.8513 1169.29 12.4068 1167.26 13.5178C1165.31 14.5363 1163.74 16.0177 1162.72 17.8695C1161.7 19.7212 1161.15 21.8508 1161.15 23.8877C1161.15 26.0172 1161.7 28.0542 1162.72 29.9059C1163.74 31.8503 1165.31 33.3317 1167.26 34.3502C1169.2 35.3686 1171.15 35.9242 1173.28 35.9242C1175.41 35.9242 1177.26 35.3686 1179.29 34.3502C1181.15 33.2391 1182.63 31.8503 1183.74 29.9059C1184.76 28.0542 1185.31 25.9246 1185.31 23.8877C1185.31 21.9434 1184.76 19.8138 1183.74 17.8695C1182.63 16.0177 1181.05 14.5363 1179.2 13.5178C1177.26 12.3142 1175.41 11.8513 1173.28 11.8513ZM1166.98 31.8503V16.3881H1172.26C1174.11 16.3881 1175.5 16.5733 1176.24 16.851C1177.07 17.0362 1177.72 17.5917 1178.18 18.3324C1178.65 18.9805 1178.92 19.7212 1178.92 20.6471C1178.92 21.7582 1178.46 22.7767 1177.72 23.6099C1176.98 24.5358 1175.87 24.9062 1174.48 24.9988C1175.04 25.2765 1175.5 25.5543 1175.78 25.8321C1176.42 26.4802 1177.26 27.4986 1178.09 28.8875L1179.94 31.9429H1176.98L1175.59 29.5356C1174.48 27.5912 1173.55 26.3876 1173 25.9246C1172.54 25.5543 1171.89 25.3691 1170.96 25.3691H1169.57V31.9429L1166.98 31.8503ZM1169.48 23.0544H1172.44C1173.92 23.0544 1174.85 22.8692 1175.5 22.4063C1176.05 22.036 1176.24 21.3878 1176.24 20.6471C1176.24 20.1842 1176.15 19.8138 1175.87 19.5361C1175.68 19.1657 1175.31 18.7954 1174.76 18.7028C1174.29 18.5176 1173.46 18.3324 1172.26 18.3324H1169.39V23.0544H1169.48Z" fill="#FEFEFE"/>
<path d="M360.26 163.696H357.853C357.853 163.696 348.316 177.954 326.929 177.954C293.597 177.954 274.616 151.752 274.616 116.105C274.616 80.459 293.689 54.2566 326.929 54.2566C348.316 54.2566 357.853 68.5152 357.853 68.5152H360.26L362.668 58.9786L365.075 56.5713H381.741L384.148 58.9786V161.288C384.148 208.879 357.946 225.545 329.428 225.545C300.911 225.545 284.245 211.286 281.838 192.213L284.245 189.806H303.319L305.541 192.213C310.263 201.749 317.392 204.064 329.336 204.064C350.724 204.157 360.26 189.806 360.26 163.696ZM329.336 75.6444C310.263 75.6444 298.411 89.903 298.411 116.105C298.411 142.308 310.263 156.566 329.336 156.566C348.409 156.566 360.26 144.715 360.26 116.105C360.26 87.5883 348.316 75.6444 329.336 75.6444Z" fill="#FEFEFE"/>
<path d="M472.755 78.0517H460.903C441.83 78.0517 429.979 85.181 429.979 113.698V173.14L427.572 175.547H408.499L406.091 173.14V58.9786L408.499 56.5713H425.164L427.572 58.9786L429.979 68.5152H432.386C439.516 61.3859 446.645 56.6639 463.311 56.6639H472.847L475.255 59.0712V75.737L472.755 78.0517Z" fill="#FEFEFE"/>
<path d="M478.68 116.105C478.68 82.7737 495.346 54.2566 533.4 54.2566C571.454 54.2566 588.12 82.7737 588.12 116.105V123.235L585.712 125.642H507.198L504.79 128.049C504.79 132.771 507.198 156.566 535.715 156.566C545.251 156.566 554.788 154.159 559.51 142.308L561.917 139.901H580.99L583.398 142.308C580.99 161.381 564.324 177.954 535.807 177.954C497.754 177.954 478.68 151.752 478.68 116.105ZM561.917 104.162C561.917 97.0323 559.51 75.6444 533.4 75.6444C507.198 75.6444 504.883 97.0323 504.883 104.162L507.29 106.569H559.602L561.917 104.162Z" fill="#FEFEFE"/>
<path d="M600.063 116.105C600.063 82.7737 616.729 54.2566 654.783 54.2566C692.837 54.2566 709.502 82.7737 709.502 116.105V123.235L707.095 125.642H628.581L626.173 128.049C626.173 132.771 628.581 156.566 657.098 156.566C666.634 156.566 676.171 154.159 680.893 142.308L683.3 139.901H702.373L704.781 142.308C702.373 161.381 685.707 177.954 657.19 177.954C619.044 177.954 600.063 151.752 600.063 116.105ZM683.3 104.162C683.3 97.0323 680.893 75.6444 654.783 75.6444C628.673 75.6444 626.266 97.0323 626.266 104.162L628.673 106.569H680.985L683.3 104.162Z" fill="#FEFEFE"/>
<path d="M828.386 175.547H809.312L806.905 173.14V104.162C806.905 92.3103 804.498 75.6444 783.11 75.6444C761.722 75.6444 752.186 87.4957 752.186 116.105V173.232L749.778 175.64H730.705L728.298 173.232V58.9786L730.705 56.5713H747.371L749.778 58.9786L752.186 68.5152H754.593C754.593 68.5152 764.129 54.2566 785.517 54.2566C818.849 54.2566 830.7 75.6444 830.7 104.254V173.232L828.386 175.547Z" fill="#FEFEFE"/>
<path d="M954.491 175.547H937.825L935.417 173.14L933.01 163.603H930.603C930.603 163.603 921.066 177.862 899.678 177.862C866.347 177.862 847.366 151.659 847.366 116.013C847.366 80.3664 866.439 54.164 899.678 54.164C921.066 54.164 930.603 68.4226 930.603 68.4226H933.01V11.3883L935.417 8.98102H954.491L956.898 11.3883V173.14L954.491 175.547ZM902.086 75.6444C883.013 75.6444 871.161 89.903 871.161 116.105C871.161 142.308 883.013 156.566 902.086 156.566C921.159 156.566 933.01 144.715 933.01 116.105C933.01 87.5883 921.159 75.6444 902.086 75.6444Z" fill="#FEFEFE"/>
<path d="M1033.01 54.2566C1068.65 54.2566 1090.13 78.0517 1090.13 116.105C1090.13 154.159 1068.74 177.954 1033.01 177.954C997.359 177.954 975.879 154.159 975.879 116.105C975.879 78.0517 997.266 54.2566 1033.01 54.2566ZM1033.01 156.566C1054.39 156.566 1066.34 142.308 1066.34 116.105C1066.34 89.903 1054.49 75.6444 1033.01 75.6444C1011.62 75.6444 999.674 89.903 999.674 116.105C999.674 142.215 1011.52 156.566 1033.01 156.566Z" fill="#FEFEFE"/>
<path d="M1173.28 175.547H1154.2C1137.54 175.547 1120.87 166.01 1120.87 144.623V80.3664L1118.46 77.9591H1101.8L1099.39 75.5518V58.886L1101.8 56.4787H1118.46L1120.87 54.0714V32.8687L1123.28 30.4614H1142.35L1144.76 32.8687V54.2566L1147.17 56.6639H1173.37L1175.78 59.0711V75.737L1173.37 78.1443H1147.17L1144.76 80.5516V144.808C1144.76 151.937 1149.48 154.344 1154.3 154.344H1173.37L1175.78 156.752V173.417L1173.28 175.547Z" fill="#FEFEFE"/>
<path d="M896.068 292.486C896.068 321.929 882.272 343.594 854.773 343.594C837.089 343.594 827.275 335.724 823.293 327.854H821.349L819.405 339.613L817.46 341.557H811.535L809.59 339.613V206.008L811.535 204.064H819.405L821.349 206.008V257.117H823.293C827.182 249.247 837.089 241.377 854.773 241.377C882.272 241.47 896.068 263.043 896.068 292.486ZM821.349 292.486C821.349 319.984 833.108 333.78 852.829 333.78C872.458 333.78 884.309 319.984 884.309 292.486C884.309 264.987 872.55 251.191 852.829 251.191C833.108 251.284 821.349 264.987 821.349 292.486Z" fill="#DDDDDD"/>
<path d="M982.452 341.65H976.527L974.582 339.706L972.638 329.891H970.693C966.805 335.817 958.935 343.687 939.214 343.687C917.641 343.687 905.789 331.928 905.789 314.244C905.789 292.671 921.529 282.764 947.084 282.764C958.842 282.764 970.693 284.708 970.693 284.708L972.638 282.764V276.838C972.638 259.154 966.712 251.284 947.084 251.284C927.455 251.284 921.529 261.098 921.529 270.913L919.585 272.857H911.715L909.771 270.913C909.771 255.173 921.529 241.47 947.084 241.47C976.527 241.47 984.397 255.265 984.397 276.838V339.706L982.452 341.65ZM972.638 296.467L970.693 294.523C970.693 294.523 960.879 292.578 949.121 292.578C925.511 292.578 917.641 300.448 917.641 314.151C917.641 325.91 923.566 333.78 941.251 333.78C962.824 333.78 972.73 318.04 972.73 304.337V296.467H972.638Z" fill="#DDDDDD"/>
<path d="M1082.73 341.65H1074.86L1072.91 339.706V280.727C1072.91 261.098 1063.1 251.284 1047.36 251.284C1025.78 251.284 1015.88 265.08 1015.88 286.653V339.706L1013.93 341.65H1006.06L1004.12 339.706V245.358L1006.06 243.414H1011.99L1013.93 245.358L1015.88 257.117H1017.82C1023.75 247.303 1035.51 241.377 1049.3 241.377C1070.87 241.377 1084.67 255.173 1084.67 280.634V339.613L1082.73 341.65Z" fill="#DDDDDD"/>
<path d="M1176.98 341.65H1173.09L1169.2 339.706L1133.83 294.523H1131.89L1118.09 308.318L1116.15 312.207V339.706L1114.21 341.65H1106.34L1104.39 339.706V206.008L1106.34 204.064H1114.21L1116.15 206.008V292.486H1118.09L1165.22 245.358L1169.11 243.414H1173L1174.94 245.358V251.284L1141.52 284.708V286.653L1178.83 333.78V339.706L1176.98 341.65Z" fill="#DDDDDD"/>
<path d="M116.476 232.952C180.804 232.952 232.952 180.804 232.952 116.476C232.952 52.148 180.804 0 116.476 0C52.148 0 0 52.148 0 116.476C0 180.804 52.148 232.952 116.476 232.952Z" fill="url(#paint0_radial)"/>
</g>
<defs>
<radialGradient id="paint0_radial" cx="0" cy="0" r="1" gradientUnits="userSpaceOnUse" gradientTransform="translate(144.036 82.7812) scale(153.497)">
<stop stop-color="#8CFF40"/>
<stop offset="0.1742" stop-color="#8CFF40"/>
<stop offset="0.2498" stop-color="#85FB3F"/>
<stop offset="0.3578" stop-color="#72F03A"/>
<stop offset="0.4853" stop-color="#54DE34"/>
<stop offset="0.6264" stop-color="#29C52A"/>
<stop offset="0.744" stop-color="#00AD21"/>
<stop offset="0.8471" stop-color="#02AE20"/>
<stop offset="0.898" stop-color="#0AB31C"/>
<stop offset="0.9375" stop-color="#17BC15"/>
<stop offset="0.9708" stop-color="#2AC80C"/>
<stop offset="1" stop-color="#41D700"/>
</radialGradient>
<clipPath id="clip0">
<rect width="1187.72" height="343.594" fill="white"/>
</clipPath>
</defs>
</svg>
