<svg xmlns="http://www.w3.org/2000/svg" width="188.45" height="188.462" viewBox="0 0 188.45 188.462">
  <g id="Logo_Primary" data-name="Logo Primary" transform="translate(0.917 0.917)">
    <path id="Path_1000" data-name="Path 1000" d="M249.883,234.96A93.313,93.313,0,1,0,343.2,328.273a93.408,93.408,0,0,0-93.315-93.313" transform="translate(-156.583 -234.96)" fill="#00ac3f"/>
    <path id="Path_1001" data-name="Path 1001" d="M249.883,234.96A93.313,93.313,0,1,0,343.2,328.273a93.408,93.408,0,0,0-93.315-93.313" transform="translate(-156.583 -234.96)" fill="none" stroke="#fff" stroke-miterlimit="10" stroke-width="1.835"/>
    <path id="Path_1002" data-name="Path 1002" d="M189.2,284.387c0-1.111,0-4.121,3.264-4.121,3.223,0,3.223,2.769,3.223,4.241v15.361c0,1.753-.386,3.909-3.317,3.909-3.171,0-3.171-2.745-3.171-3.855V284.387m6.583-6.837c-1.7-1.512-3.735-3.426-7.265-3.426-7.322,0-7.322,7.466-7.322,8.763v18.4c0,3.989.883,8.671,7.521,8.671a8.576,8.576,0,0,0,7.065-3.4v5.391c0,2.1-.441,4.107-3.264,4.107a2.853,2.853,0,0,1-2.8-1.484,5.709,5.709,0,0,1-.334-2.156h-7.976c.04,3.212.095,9.486,10.733,9.486,11.707,0,11.707-7.6,11.707-11.13V274.819H195.78Z" transform="translate(-149.654 -223.934)" fill="#fff"/>
    <path id="Path_1003" data-name="Path 1003" d="M202.264,274.808h8.069l-.068,4.376c1.365-2.436,3.2-5.152,7.962-5.019v7.989a9.157,9.157,0,0,0-2.757-.509c-5.206,0-5.206,4.762-5.206,7.465V309.53h-8V274.808" transform="translate(-143.721 -223.923)" fill="#fff"/>
    <path id="Path_1004" data-name="Path 1004" d="M224.156,283.948c0-2.115.882-3.437,2.984-3.437,2.782,0,2.782,2.54,2.782,3.437v4.3h-5.766v-4.3m-.081,10.009H237.91v-9.914a9.994,9.994,0,0,0-2.367-6.919,12.158,12.158,0,0,0-8.4-3.063,13.236,13.236,0,0,0-7.332,2.047c-2.222,1.566-3.722,3.988-3.722,8.349v14.652c0,7.023,3.2,11.144,11.119,11.144,5.021,0,10.6-1.834,10.6-9.351v-2.8h-7.882c0,3.572-.079,4.013-.7,4.816a2.627,2.627,0,0,1-2.168.991c-2.982,0-2.982-2.757-2.982-4.282Z" transform="translate(-139.829 -223.951)" fill="#fff"/>
    <path id="Path_1005" data-name="Path 1005" d="M243.806,283.948c0-2.115.869-3.437,2.971-3.437,2.785,0,2.785,2.54,2.785,3.437v4.3h-5.755v-4.3m-.078,10.009h13.847v-9.914a9.913,9.913,0,0,0-2.409-6.919,12.067,12.067,0,0,0-8.389-3.063,13.161,13.161,0,0,0-7.306,2.047c-2.234,1.566-3.745,3.988-3.745,8.349v14.652c0,7.023,3.2,11.144,11.132,11.144,5,0,10.57-1.834,10.57-9.351v-2.8h-7.866c0,3.572-.068,4.013-.683,4.816a2.628,2.628,0,0,1-2.168.991c-2.982,0-2.982-2.757-2.982-4.282Z" transform="translate(-134.299 -223.951)" fill="#fff"/>
    <path id="Path_1006" data-name="Path 1006" d="M255.677,274.819h8.217l-.136,2.569c1.62-1.565,3.4-3.264,7-3.264a7.252,7.252,0,0,1,5.579,2.316c1.592,1.831,1.592,3.865,1.592,5.967v27.134h-7.92V284.024c0-1.9-.15-4.214-2.852-4.214-3.4,0-3.4,3.131-3.4,4.7v25.035h-8.082V274.819" transform="translate(-128.682 -223.934)" fill="#fff"/>
    <path id="Path_1007" data-name="Path 1007" d="M229.318,330.924c0-1.686,0-4.4,3.156-4.4,3.385,0,3.385,2.93,3.385,4v14.945c0,1.1,0,4.189-3.385,4.189-3.156,0-3.156-2.221-3.156-3.961v-14.77m6.595-7.1c-1.7-1.512-3.864-3.547-7.036-3.547a7.54,7.54,0,0,0-6.6,4.082,10.631,10.631,0,0,0-.951,5.138v15.882c0,3.4.147,5.713,1.043,7.385a7.537,7.537,0,0,0,6.783,3.693c3.854,0,5.42-2.248,6.7-4.093l-.079,3.4h8.164V307.786h-8.03Z" transform="translate(-138.353 -214.457)" fill="#fff"/>
    <path id="Path_1008" data-name="Path 1008" d="M249.489,326.883c0-1.643,0-4.282,2.9-4.282,2.449,0,2.718,2.235,2.718,4.2v17.688c0,1.273,0,3.627-2.837,3.627-2.784,0-2.784-2.7-2.784-3.572V326.883m-8.082,16.3c0,2.584,0,10.518,10.595,10.518,7.174,0,11.095-3.479,11.095-9.728v-16.7c0-2.754-.441-5.767-3.372-7.8a13.78,13.78,0,0,0-7.333-1.9c-9.554,0-10.984,5.848-10.984,10.036Z" transform="translate(-132.7 -211.702)" fill="#fff"/>
    <path id="Path_1009" data-name="Path 1009" d="M263.754,308.309h8.069V320.86h5v5.354h-5.043v19.814c0,2.261.374,3.841,3.638,3.841.547,0,.855-.092,1.4-.092v5.766a15.5,15.5,0,0,1-4.243.428c-7.625,0-8.776-2.864-8.776-7.266v-22.49h-4.4V320.86h4.347V308.309" transform="translate(-127.631 -214.309)" fill="#fff"/>
    <path id="Path_1010" data-name="Path 1010" d="M276.835,308.333a4,4,0,0,1,1.9.51,3.541,3.541,0,0,1,1.458,1.419,4.075,4.075,0,0,1,.52,1.953,3.91,3.91,0,0,1-.52,1.939,3.57,3.57,0,0,1-1.447,1.474,3.694,3.694,0,0,1-1.913.509,4.028,4.028,0,0,1-1.994-.509,3.649,3.649,0,0,1-1.406-1.474,4.061,4.061,0,0,1-.519-1.939,4.238,4.238,0,0,1,.519-1.953,3.394,3.394,0,0,1,1.461-1.419,4.067,4.067,0,0,1,1.939-.51m0,.629a3.422,3.422,0,0,0-1.617.441,2.919,2.919,0,0,0-1.246,1.206,3.329,3.329,0,0,0-.427,1.606,3.427,3.427,0,0,0,.427,1.645,3.406,3.406,0,0,0,2.863,1.633,3.334,3.334,0,0,0,1.62-.441,3.839,3.839,0,0,0,1.217-1.192,3.385,3.385,0,0,0,.4-1.645,3.087,3.087,0,0,0-1.644-2.812,3.343,3.343,0,0,0-1.594-.441m-1.71,5.421v-4.2h1.417a3.336,3.336,0,0,1,1.082.133.89.89,0,0,1,.522.414.932.932,0,0,1,.187.591,1.222,1.222,0,0,1-.32.829,1.158,1.158,0,0,1-.856.374,1.419,1.419,0,0,1,.334.214,4.941,4.941,0,0,1,.643.815l.492.832h-.8l-.377-.656a4.236,4.236,0,0,0-.707-.977,1.121,1.121,0,0,0-.562-.136h-.374v1.769Zm.681-2.357h.815a1.322,1.322,0,0,0,.8-.173.562.562,0,0,0,.214-.469.381.381,0,0,0-.106-.306.463.463,0,0,0-.293-.241,2.2,2.2,0,0,0-.684-.081h-.748Z" transform="translate(-123.828 -214.302)" fill="#fff"/>
  </g>
</svg>
