<svg width="24" height="24" viewBox="0 0 24 24" fill="none" xmlns="http://www.w3.org/2000/svg">
    <path d="M23.328 21.6713L18.9996 17.378C20.6798 15.2831 21.4934 12.6242 21.2733 9.94783C21.0531 7.2715 19.8159 4.78122 17.8161 2.98906C15.8162 1.1969 13.2058 0.239073 10.5214 0.312527C7.83702 0.38598 5.28282 1.48513 3.38398 3.38398C1.48513 5.28282 0.38598 7.83702 0.312527 10.5214C0.239073 13.2058 1.1969 15.8162 2.98906 17.8161C4.78122 19.8159 7.2715 21.0531 9.94783 21.2733C12.6242 21.4934 15.2831 20.6798 17.378 18.9996L21.6713 23.293C21.7798 23.4023 21.9088 23.4891 22.051 23.5484C22.1931 23.6076 22.3456 23.6381 22.4996 23.6381C22.6537 23.6381 22.8062 23.6076 22.9483 23.5484C23.0905 23.4891 23.2195 23.4023 23.328 23.293C23.5383 23.0754 23.6558 22.7847 23.6558 22.4821C23.6558 22.1796 23.5383 21.8889 23.328 21.6713ZM10.833 18.9996C9.21776 18.9996 7.63882 18.5207 6.29582 17.6233C4.95282 16.726 3.90608 15.4505 3.28796 13.9582C2.66985 12.466 2.50812 10.8239 2.82323 9.23974C3.13834 7.65556 3.91614 6.2004 5.05827 5.05827C6.2004 3.91614 7.65556 3.13834 9.23974 2.82323C10.8239 2.50812 12.466 2.66985 13.9582 3.28796C15.4505 3.90608 16.726 4.95282 17.6233 6.29582C18.5207 7.63882 18.9996 9.21776 18.9996 10.833C18.9996 12.9989 18.1392 15.0761 16.6077 16.6077C15.0761 18.1392 12.9989 18.9996 10.833 18.9996Z" fill="#2945FF"/>
</svg>