<svg width="64" height="64" viewBox="0 0 64 64" fill="none" xmlns="http://www.w3.org/2000/svg">
<path d="M38.2728 27.1289L37.9419 31.5327H33.6484V46.2837H27.9976V31.5327H25.1373V27.1289H27.9976V23.8267V22.873C27.9976 22.873 27.7954 17.9981 33.6484 17.7346C36.4934 17.6074 38.8627 18.2486 38.8627 18.2486L38.2614 22.5781C38.2614 22.5781 33.6492 21.1487 33.6492 23.9347V27.1281L38.2728 27.1289Z" fill="#49D600"/>
<path d="M31.9992 64C14.3558 64 0 49.6442 0 31.9992C0 14.3542 14.3558 0 31.9992 0C49.6442 0 64 14.3542 64 31.9992C64 49.6442 49.6442 64 31.9992 64ZM31.9992 4.39612C16.7786 4.39612 4.39612 16.7786 4.39612 31.9992C4.39612 47.2198 16.7786 59.6031 31.9992 59.6031C47.2214 59.6031 59.6031 47.2198 59.6031 31.9992C59.6031 16.7786 47.2214 4.39612 31.9992 4.39612Z" fill="#49D600"/>
</svg>
