<svg width="64" height="64" viewBox="0 0 64 64" fill="none" xmlns="http://www.w3.org/2000/svg">
<path d="M45.8977 22.3904C45.5246 21.4276 45.0206 20.6087 44.2071 19.7921C43.3913 18.9786 42.5732 18.4746 41.608 18.1C40.6743 17.7392 39.608 17.4903 38.0476 17.4198C36.4842 17.347 35.984 17.3317 32 17.3317C28.016 17.3317 27.515 17.3478 25.9516 17.4198C24.392 17.4903 23.3257 17.7392 22.3927 18.1C21.426 18.4746 20.6094 18.9779 19.7921 19.7921C18.9786 20.6072 18.4761 21.4276 18.1031 22.3904C17.74 23.3242 17.4903 24.3905 17.4198 25.9508C17.3478 27.515 17.3302 28.0145 17.3302 31.9992C17.3302 35.984 17.3478 36.4827 17.4198 38.0476C17.4903 39.6095 17.74 40.6758 18.1031 41.6073C18.4761 42.5724 18.9786 43.3913 19.7921 44.2056C20.6079 45.0214 21.426 45.5239 22.3927 45.8992C23.3265 46.2608 24.3912 46.5097 25.9516 46.5817C27.515 46.6514 28.0175 46.6698 32 46.6698C35.9825 46.6698 36.4842 46.6514 38.0476 46.5817C39.608 46.5097 40.6758 46.2608 41.608 45.8992C42.5732 45.5239 43.3898 45.0214 44.2071 44.2056C45.0206 43.3921 45.5246 42.5724 45.8977 41.6073C46.2638 40.6743 46.5074 39.6095 46.5794 38.0476C46.653 36.4827 46.6691 35.984 46.6691 31.9992C46.6691 28.0145 46.653 27.515 46.5794 25.9508C46.5067 24.3905 46.2623 23.3242 45.8977 22.3904ZM43.9405 37.9274C43.8747 39.356 43.6364 40.1335 43.4334 40.6513C43.1684 41.3361 42.8513 41.8233 42.3365 42.3358C41.8217 42.8497 41.3353 43.1676 40.6505 43.4365C40.1312 43.6372 39.3575 43.8731 37.9274 43.939C36.3793 44.011 35.9166 44.0248 32 44.0248C28.0819 44.0248 27.6177 44.0102 26.0726 43.939C24.6409 43.8731 23.8673 43.6357 23.3479 43.4365C22.6639 43.1676 22.1767 42.8497 21.6635 42.3358C21.1503 41.8233 20.8316 41.3353 20.565 40.6513C20.3659 40.1335 20.1269 39.3567 20.0594 37.9274C19.989 36.3793 19.976 35.9166 19.976 31.9992C19.976 28.0834 19.9905 27.6192 20.0594 26.0742C20.1269 24.644 20.3659 23.8665 20.565 23.3495C20.8316 22.6647 21.1487 22.1752 21.6635 21.6635C22.1767 21.1503 22.6654 20.8308 23.3479 20.5658C23.8673 20.3628 24.6409 20.1253 26.0726 20.0602C27.6207 19.9898 28.0819 19.9752 32 19.9752C35.9166 19.9752 36.3808 19.9913 37.9274 20.0602C39.3575 20.1253 40.1312 20.3636 40.6505 20.5658C41.3369 20.8308 41.8217 21.1503 42.3365 21.6635C42.8513 22.1752 43.1684 22.6662 43.4334 23.3495C43.6364 23.8665 43.8747 24.6425 43.9405 26.0742C44.0095 27.6207 44.024 28.0834 44.024 31.9992C44.024 35.9166 44.0095 36.3793 43.9405 37.9274ZM32 24.4694C27.8375 24.4694 24.4671 27.8375 24.4671 31.9992C24.4671 36.161 27.8375 39.5322 32 39.5322C36.161 39.5322 39.5314 36.161 39.5314 31.9992C39.5314 27.8375 36.161 24.4694 32 24.4694ZM32 36.8902C29.2983 36.8902 27.1106 34.7009 27.1106 31.9992C27.1106 29.2998 29.2968 27.1098 32 27.1098C34.7002 27.1098 36.8879 29.2983 36.8879 31.9992C36.8879 34.6987 34.7002 36.8902 32 36.8902ZM41.5904 24.1706C41.5904 25.1419 40.803 25.9317 39.8294 25.9317C38.8565 25.9317 38.0699 25.1419 38.0699 24.1706C38.0699 23.197 38.8565 22.408 39.8294 22.408C40.8022 22.4088 41.5904 23.1986 41.5904 24.1706ZM31.9985 0C14.3534 0 0 14.3542 0 31.9992C0 49.6442 14.3534 64 31.9985 64C49.645 64 64 49.6442 64 31.9992C64 14.3542 49.645 0 31.9985 0ZM31.9985 59.6031C16.7786 59.6031 4.39688 47.2198 4.39688 31.9992C4.39688 16.7786 16.7786 4.39612 31.9985 4.39612C47.2198 4.39612 59.6031 16.7786 59.6031 31.9992C59.6031 47.2198 47.2198 59.6031 31.9985 59.6031Z" fill="#49D600"/>
</svg>
