<svg width="64" height="64" viewBox="0 0 64 64" fill="none" xmlns="http://www.w3.org/2000/svg">
<path d="M45.4435 21.7538C44.3642 22.3919 43.1715 22.8561 41.9007 23.1081C40.8826 22.025 39.4311 21.3463 37.8309 21.3463C34.75 21.3463 32.2536 23.8427 32.2536 26.9236C32.2536 27.3595 32.3011 27.7869 32.3976 28.1921C27.7625 27.9616 23.6528 25.7417 20.9005 22.3666C20.4195 23.1909 20.146 24.1499 20.146 25.1718C20.146 27.1044 21.1304 28.8134 22.6279 29.8138C21.7125 29.7854 20.8546 29.5334 20.1016 29.1152C20.1001 29.1382 20.1001 29.1627 20.1001 29.1879C20.1001 31.8881 22.022 34.1448 24.5759 34.6557C24.1063 34.7844 23.6145 34.8541 23.1051 34.8541C22.7466 34.8541 22.3973 34.8173 22.058 34.753C22.7673 36.9683 24.8248 38.5807 27.2661 38.6259C25.3587 40.1219 22.9542 41.0136 20.3391 41.0136C19.8886 41.0136 19.4459 40.9883 19.0093 40.9347C21.4781 42.5165 24.4104 43.4411 27.5602 43.4411C37.8201 43.4411 43.4296 34.9407 43.4296 27.5709C43.4296 27.3296 43.4235 27.0883 43.4135 26.8486C44.5028 26.0634 45.4481 25.0806 46.1949 23.9622C45.1953 24.405 44.1198 24.7037 42.9915 24.8385C44.1428 24.1499 45.0268 23.0537 45.4435 21.7538Z" fill="#49D600"/>
<path d="M32 0C14.355 0 0 14.3542 0 31.9992C0 49.6442 14.355 64 32 64C49.645 64 64 49.6442 64 31.9992C64 14.3542 49.645 0 32 0ZM32 59.6031C16.7794 59.6031 4.39613 47.2198 4.39613 31.9992C4.39613 16.7786 16.7794 4.39612 32 4.39612C47.2206 4.39612 59.6039 16.7786 59.6039 31.9992C59.6039 47.2198 47.2206 59.6031 32 59.6031Z" fill="#49D600"/>
</svg>
