<svg width="65" height="43" viewBox="0 0 65 43" fill="none" xmlns="http://www.w3.org/2000/svg">
<path d="M1.40158 42H28.7616V33.18H15.3816L15.3216 33L21.6216 26.46C27.1416 20.76 28.4016 17.34 28.4016 12.6C28.4016 4.92 22.1016 0.239998 15.0216 0.239998C7.88158 0.239998 3.44158 3.78 0.981579 8.04L7.94158 13.02C9.68158 10.38 11.7816 9.24 14.2416 9.24C16.7616 9.24 18.5616 11.16 18.5616 13.74C18.5616 16.68 16.7616 19.2 13.5216 22.62L1.28158 35.64L1.40158 42ZM47.7956 42.54C57.8756 42.54 64.2356 34.26 64.2356 21.36C64.2356 8.16 57.6356 0.239998 47.7956 0.239998C37.7756 0.239998 31.4156 8.64 31.4156 21.36C31.4156 34.62 37.9556 42.54 47.7956 42.54ZM47.7956 33.42C43.5956 33.42 41.4356 28.56 41.4356 21.36C41.4356 13.26 44.0156 9.36 47.7956 9.36C52.0556 9.36 54.1556 14.16 54.1556 21.36C54.1556 29.58 51.6356 33.42 47.7956 33.42Z" fill="#00AC47"/>
</svg>
