<svg width="102" height="71" viewBox="0 0 102 71" fill="none" xmlns="http://www.w3.org/2000/svg">
<path d="M26.1 70.9C39.7 70.9 49.7 63.3 49.7 51.2C49.7 43.3 45.6 37.6 39.1 34.6V34.3C44.4 31 47.6 25.6 47.6 18.9C47.6 7.1 37.6 0.399996 25.1 0.399996C14.9 0.399996 6.5 5.8 3.5 13.3L16.5 20.2C18.1 16.7 20.5 14.8 24.6 14.8C28.9 14.8 32 17.6 32 21.8C32 25.7 29.5 28.6 24.7 28.6H19.1V41.2H23.6C29.8 41.2 32.9 44.7 32.9 49C32.9 54 29.1 56.7 24.9 56.7C19.6 56.7 16.5 54.2 15 49.5L0.9 55.1C4.2 64.1 13.5 70.9 26.1 70.9ZM77.4142 70.9C91.0142 70.9 101.014 63.3 101.014 51.2C101.014 43.3 96.9142 37.6 90.4142 34.6V34.3C95.7142 31 98.9142 25.6 98.9142 18.9C98.9142 7.1 88.9142 0.399996 76.4142 0.399996C66.2142 0.399996 57.8142 5.8 54.8142 13.3L67.8142 20.2C69.4142 16.7 71.8142 14.8 75.9142 14.8C80.2142 14.8 83.3142 17.6 83.3142 21.8C83.3142 25.7 80.8142 28.6 76.0142 28.6H70.4142V41.2H74.9142C81.1142 41.2 84.2142 44.7 84.2142 49C84.2142 54 80.4142 56.7 76.2142 56.7C70.9142 56.7 67.8142 54.2 66.3142 49.5L52.2142 55.1C55.5142 64.1 64.8142 70.9 77.4142 70.9Z" fill="#0CAD42"/>
</svg>
