<svg width="307" height="163" viewBox="0 0 307 163" fill="none" xmlns="http://www.w3.org/2000/svg">
<line y1="67" x2="307" y2="67" stroke="#DDDDDD" stroke-width="2" stroke-dasharray="2 2"/>
<path d="M20.8054 21.112C19.8627 21.112 19.0414 20.9113 18.3414 20.51C17.6414 20.0993 17.1047 19.516 16.7314 18.76C16.358 17.9947 16.1714 17.094 16.1714 16.058C16.1714 15.0313 16.358 14.14 16.7314 13.384C17.1047 12.6187 17.6414 12.0353 18.3414 11.634C19.0414 11.2233 19.8627 11.018 20.8054 11.018C21.4214 11.018 22.0047 11.116 22.5554 11.312C23.106 11.4987 23.5867 11.774 23.9974 12.138C24.1747 12.278 24.2634 12.4647 24.2634 12.698C24.2634 12.866 24.2167 13.0107 24.1234 13.132C24.03 13.244 23.918 13.3 23.7874 13.3C23.6287 13.3 23.4747 13.2393 23.3254 13.118C22.8774 12.782 22.4667 12.5487 22.0934 12.418C21.7294 12.278 21.314 12.208 20.8474 12.208C19.8207 12.208 19.032 12.5393 18.4814 13.202C17.9307 13.8647 17.6554 14.8167 17.6554 16.058C17.6554 17.3087 17.9307 18.2653 18.4814 18.928C19.032 19.5907 19.8207 19.922 20.8474 19.922C21.2954 19.922 21.7014 19.852 22.0654 19.712C22.4387 19.572 22.8587 19.3387 23.3254 19.012C23.512 18.8907 23.666 18.83 23.7874 18.83C23.918 18.83 24.03 18.8907 24.1234 19.012C24.2167 19.124 24.2634 19.264 24.2634 19.432C24.2634 19.6653 24.1747 19.852 23.9974 19.992C23.5867 20.356 23.106 20.636 22.5554 20.832C22.0047 21.0187 21.4214 21.112 20.8054 21.112ZM28.6453 21.098C27.9733 21.098 27.3806 20.9533 26.8673 20.664C26.3633 20.3747 25.9713 19.964 25.6913 19.432C25.4206 18.8907 25.2853 18.2653 25.2853 17.556C25.2853 16.8373 25.4206 16.212 25.6913 15.68C25.9713 15.1387 26.3633 14.7233 26.8673 14.434C27.3806 14.1447 27.9733 14 28.6453 14C29.3173 14 29.9053 14.1447 30.4093 14.434C30.9226 14.7233 31.3146 15.1387 31.5853 15.68C31.8653 16.212 32.0053 16.8373 32.0053 17.556C32.0053 18.2653 31.8653 18.8907 31.5853 19.432C31.3146 19.964 30.9226 20.3747 30.4093 20.664C29.9053 20.9533 29.3173 21.098 28.6453 21.098ZM28.6453 19.978C29.2706 19.978 29.7466 19.7727 30.0733 19.362C30.4093 18.9513 30.5773 18.3493 30.5773 17.556C30.5773 16.772 30.4093 16.1747 30.0733 15.764C29.7373 15.344 29.2613 15.134 28.6453 15.134C28.0293 15.134 27.5533 15.344 27.2173 15.764C26.8813 16.1747 26.7133 16.772 26.7133 17.556C26.7133 18.3493 26.8766 18.9513 27.2033 19.362C27.5393 19.7727 28.0199 19.978 28.6453 19.978ZM37.2616 14C38.8949 14 39.7116 14.9193 39.7116 16.758V20.398C39.7116 20.6127 39.6463 20.7807 39.5156 20.902C39.3943 21.014 39.2216 21.07 38.9976 21.07C38.7829 21.07 38.6103 21.0093 38.4796 20.888C38.3583 20.7667 38.2976 20.6033 38.2976 20.398V16.828C38.2976 16.2493 38.1809 15.8247 37.9476 15.554C37.7236 15.2833 37.3689 15.148 36.8836 15.148C36.3143 15.148 35.8569 15.3253 35.5116 15.68C35.1663 16.0347 34.9936 16.5107 34.9936 17.108V20.398C34.9936 20.6033 34.9283 20.7667 34.7976 20.888C34.6763 21.0093 34.5083 21.07 34.2936 21.07C34.0789 21.07 33.9063 21.0093 33.7756 20.888C33.6449 20.7667 33.5796 20.6033 33.5796 20.398V14.7C33.5796 14.504 33.6449 14.3453 33.7756 14.224C33.9156 14.0933 34.0883 14.028 34.2936 14.028C34.4989 14.028 34.6623 14.0887 34.7836 14.21C34.9049 14.3313 34.9656 14.49 34.9656 14.686V15.26C35.1896 14.8493 35.5023 14.5367 35.9036 14.322C36.3049 14.1073 36.7576 14 37.2616 14ZM44.026 21.098C43.074 21.098 42.2947 20.902 41.688 20.51C41.52 20.4073 41.3987 20.3 41.324 20.188C41.2587 20.076 41.226 19.95 41.226 19.81C41.226 19.6607 41.268 19.5347 41.352 19.432C41.436 19.3293 41.5433 19.278 41.674 19.278C41.7953 19.278 41.9867 19.3527 42.248 19.502C42.528 19.6513 42.7987 19.7727 43.06 19.866C43.3307 19.9593 43.6667 20.006 44.068 20.006C44.516 20.006 44.866 19.9267 45.118 19.768C45.37 19.6093 45.496 19.3853 45.496 19.096C45.496 18.9093 45.4447 18.76 45.342 18.648C45.2487 18.536 45.0807 18.438 44.838 18.354C44.5953 18.2607 44.236 18.1627 43.76 18.06C42.9387 17.8827 42.346 17.6447 41.982 17.346C41.6273 17.038 41.45 16.6227 41.45 16.1C41.45 15.6987 41.5667 15.3393 41.8 15.022C42.0333 14.6953 42.3553 14.4433 42.766 14.266C43.1767 14.0887 43.6433 14 44.166 14C44.5393 14 44.9033 14.0513 45.258 14.154C45.6127 14.2473 45.9253 14.3873 46.196 14.574C46.504 14.7793 46.658 15.0173 46.658 15.288C46.658 15.4373 46.6113 15.5633 46.518 15.666C46.434 15.7687 46.3313 15.82 46.21 15.82C46.126 15.82 46.042 15.8013 45.958 15.764C45.874 15.7267 45.762 15.666 45.622 15.582C45.37 15.4327 45.132 15.316 44.908 15.232C44.6933 15.148 44.4227 15.106 44.096 15.106C43.704 15.106 43.3867 15.19 43.144 15.358C42.9107 15.526 42.794 15.7547 42.794 16.044C42.794 16.3053 42.9013 16.5107 43.116 16.66C43.34 16.8 43.7553 16.9353 44.362 17.066C44.9873 17.1967 45.4773 17.346 45.832 17.514C46.1867 17.682 46.4387 17.892 46.588 18.144C46.7467 18.3867 46.826 18.6993 46.826 19.082C46.826 19.6887 46.5693 20.1787 46.056 20.552C45.552 20.916 44.8753 21.098 44.026 21.098ZM53.6919 14.028C53.9066 14.028 54.0746 14.0887 54.1959 14.21C54.3266 14.3313 54.3919 14.4993 54.3919 14.714V20.412C54.3919 20.608 54.3266 20.7667 54.1959 20.888C54.0653 21.0093 53.8926 21.07 53.6779 21.07C53.4819 21.07 53.3233 21.014 53.2019 20.902C53.0806 20.7807 53.0199 20.622 53.0199 20.426V19.894C52.8053 20.286 52.5066 20.5847 52.1239 20.79C51.7506 20.9953 51.3306 21.098 50.8639 21.098C49.2026 21.098 48.3719 20.1833 48.3719 18.354V14.714C48.3719 14.4993 48.4326 14.3313 48.5539 14.21C48.6846 14.0887 48.8619 14.028 49.0859 14.028C49.3006 14.028 49.4686 14.0887 49.5899 14.21C49.7206 14.3313 49.7859 14.4993 49.7859 14.714V18.34C49.7859 18.8907 49.8979 19.2967 50.1219 19.558C50.3459 19.8193 50.6913 19.95 51.1579 19.95C51.7086 19.95 52.1473 19.7727 52.4739 19.418C52.8099 19.0633 52.9779 18.592 52.9779 18.004V14.714C52.9779 14.5087 53.0433 14.3453 53.1739 14.224C53.3046 14.0933 53.4773 14.028 53.6919 14.028ZM64.2106 14C65.7413 14 66.5066 14.9193 66.5066 16.758V20.398C66.5066 20.6127 66.4413 20.7807 66.3106 20.902C66.18 21.014 66.0073 21.07 65.7926 21.07C65.5873 21.07 65.4193 21.014 65.2886 20.902C65.158 20.7807 65.0926 20.6127 65.0926 20.398V16.772C65.0926 16.2027 64.99 15.792 64.7846 15.54C64.5793 15.2787 64.2573 15.148 63.8186 15.148C63.3053 15.148 62.8993 15.3253 62.6006 15.68C62.302 16.0253 62.1526 16.5013 62.1526 17.108V20.398C62.1526 20.6127 62.0873 20.7807 61.9566 20.902C61.826 21.014 61.6533 21.07 61.4386 21.07C61.2333 21.07 61.0653 21.014 60.9346 20.902C60.804 20.7807 60.7386 20.6127 60.7386 20.398V16.772C60.7386 16.2027 60.636 15.792 60.4306 15.54C60.2253 15.2787 59.9033 15.148 59.4646 15.148C58.9513 15.148 58.5406 15.3253 58.2326 15.68C57.934 16.0253 57.7846 16.5013 57.7846 17.108V20.398C57.7846 20.6127 57.7193 20.7807 57.5886 20.902C57.458 21.014 57.29 21.07 57.0846 21.07C56.8793 21.07 56.7066 21.014 56.5666 20.902C56.436 20.7807 56.3706 20.6127 56.3706 20.398V14.7C56.3706 14.4947 56.4406 14.3313 56.5806 14.21C56.7206 14.0887 56.8886 14.028 57.0846 14.028C57.2806 14.028 57.4393 14.0887 57.5606 14.21C57.6913 14.322 57.7566 14.4807 57.7566 14.686V15.204C57.962 14.812 58.2466 14.5133 58.6106 14.308C58.9746 14.1027 59.3946 14 59.8706 14C60.3933 14 60.8226 14.1073 61.1586 14.322C61.504 14.5367 61.7606 14.868 61.9286 15.316C62.134 14.9147 62.4373 14.5973 62.8386 14.364C63.24 14.1213 63.6973 14 64.2106 14ZM73.7909 19.278C73.9216 19.278 74.0289 19.3293 74.1129 19.432C74.1969 19.5347 74.2389 19.6653 74.2389 19.824C74.2389 20.0947 74.0709 20.3233 73.7349 20.51C73.4082 20.6967 73.0489 20.8413 72.6569 20.944C72.2742 21.0467 71.9056 21.098 71.5509 21.098C70.4682 21.098 69.6142 20.7853 68.9889 20.16C68.3636 19.5253 68.0509 18.662 68.0509 17.57C68.0509 16.87 68.1862 16.2493 68.4569 15.708C68.7369 15.1667 69.1242 14.7467 69.6189 14.448C70.1229 14.1493 70.6922 14 71.3269 14C72.2416 14 72.9649 14.294 73.4969 14.882C74.0289 15.47 74.2949 16.2633 74.2949 17.262C74.2949 17.6353 74.1269 17.822 73.7909 17.822H69.4649C69.5582 19.2687 70.2536 19.992 71.5509 19.992C71.8962 19.992 72.1949 19.9453 72.4469 19.852C72.6989 19.7587 72.9649 19.6373 73.2449 19.488C73.2729 19.4693 73.3476 19.432 73.4689 19.376C73.5996 19.3107 73.7069 19.278 73.7909 19.278ZM71.3549 15.036C70.8136 15.036 70.3796 15.2087 70.0529 15.554C69.7262 15.8993 69.5302 16.3847 69.4649 17.01H73.0769C73.0489 16.3753 72.8856 15.89 72.5869 15.554C72.2976 15.2087 71.8869 15.036 71.3549 15.036ZM79.437 14.028C79.885 14 80.109 14.1913 80.109 14.602C80.109 14.8073 80.0577 14.9613 79.955 15.064C79.8524 15.1667 79.675 15.2273 79.423 15.246L79.003 15.288C78.415 15.344 77.9764 15.5493 77.687 15.904C77.407 16.2587 77.267 16.688 77.267 17.192V20.398C77.267 20.622 77.2017 20.79 77.071 20.902C76.9404 21.014 76.7724 21.07 76.567 21.07C76.3617 21.07 76.189 21.014 76.049 20.902C75.9184 20.79 75.853 20.622 75.853 20.398V14.7C75.853 14.4853 75.9184 14.322 76.049 14.21C76.189 14.0887 76.3617 14.028 76.567 14.028C76.7537 14.028 76.9077 14.0887 77.029 14.21C77.1597 14.322 77.225 14.4807 77.225 14.686V15.358C77.4117 14.9473 77.6824 14.6347 78.037 14.42C78.3917 14.2053 78.793 14.0793 79.241 14.042L79.437 14.028ZM25.3202 37.112C24.6108 37.112 23.9342 37.014 23.2902 36.818C22.6555 36.622 22.1468 36.3513 21.7642 36.006C21.5868 35.8567 21.4982 35.6653 21.4982 35.432C21.4982 35.264 21.5448 35.124 21.6382 35.012C21.7315 34.8907 21.8435 34.83 21.9742 34.83C22.1048 34.83 22.2635 34.8907 22.4502 35.012C23.2808 35.628 24.2282 35.936 25.2922 35.936C26.0388 35.936 26.6128 35.796 27.0142 35.516C27.4155 35.236 27.6162 34.8347 27.6162 34.312C27.6162 33.9013 27.4295 33.5933 27.0562 33.388C26.6828 33.1827 26.0855 32.9867 25.2642 32.8C24.4802 32.632 23.8362 32.4407 23.3322 32.226C22.8282 32.0113 22.4315 31.722 22.1422 31.358C21.8622 30.9847 21.7222 30.5133 21.7222 29.944C21.7222 29.3747 21.8762 28.8707 22.1842 28.432C22.5015 27.984 22.9402 27.6387 23.5002 27.396C24.0602 27.144 24.6995 27.018 25.4182 27.018C26.0808 27.018 26.6922 27.1113 27.2522 27.298C27.8122 27.4847 28.2882 27.76 28.6802 28.124C28.8668 28.2827 28.9602 28.474 28.9602 28.698C28.9602 28.8567 28.9088 28.9967 28.8062 29.118C28.7128 29.2393 28.6008 29.3 28.4702 29.3C28.3488 29.3 28.1948 29.2393 28.0082 29.118C27.5788 28.7913 27.1728 28.558 26.7902 28.418C26.4168 28.2687 25.9642 28.194 25.4322 28.194C24.7135 28.194 24.1535 28.3433 23.7522 28.642C23.3508 28.9313 23.1502 29.3373 23.1502 29.86C23.1502 30.308 23.3275 30.6487 23.6822 30.882C24.0368 31.106 24.6062 31.3113 25.3902 31.498C26.2115 31.6847 26.8742 31.8807 27.3782 32.086C27.8915 32.282 28.2975 32.5573 28.5962 32.912C28.9042 33.2573 29.0582 33.7053 29.0582 34.256C29.0582 34.816 28.8995 35.3153 28.5822 35.754C28.2742 36.1833 27.8355 36.5193 27.2662 36.762C26.7062 36.9953 26.0575 37.112 25.3202 37.112ZM33.6355 37.098C32.9635 37.098 32.3708 36.9533 31.8575 36.664C31.3535 36.3747 30.9615 35.964 30.6815 35.432C30.4108 34.8907 30.2755 34.2653 30.2755 33.556C30.2755 32.8373 30.4108 32.212 30.6815 31.68C30.9615 31.1387 31.3535 30.7233 31.8575 30.434C32.3708 30.1447 32.9635 30 33.6355 30C34.3075 30 34.8955 30.1447 35.3995 30.434C35.9128 30.7233 36.3048 31.1387 36.5755 31.68C36.8555 32.212 36.9955 32.8373 36.9955 33.556C36.9955 34.2653 36.8555 34.8907 36.5755 35.432C36.3048 35.964 35.9128 36.3747 35.3995 36.664C34.8955 36.9533 34.3075 37.098 33.6355 37.098ZM33.6355 35.978C34.2608 35.978 34.7368 35.7727 35.0635 35.362C35.3995 34.9513 35.5675 34.3493 35.5675 33.556C35.5675 32.772 35.3995 32.1747 35.0635 31.764C34.7275 31.344 34.2515 31.134 33.6355 31.134C33.0195 31.134 32.5435 31.344 32.2075 31.764C31.8715 32.1747 31.7035 32.772 31.7035 33.556C31.7035 34.3493 31.8668 34.9513 32.1935 35.362C32.5295 35.7727 33.0102 35.978 33.6355 35.978ZM39.2838 37.07C39.0785 37.07 38.9058 37.014 38.7658 36.902C38.6352 36.79 38.5698 36.622 38.5698 36.398V27.746C38.5698 27.522 38.6352 27.354 38.7658 27.242C38.9058 27.1207 39.0785 27.06 39.2838 27.06C39.4892 27.06 39.6572 27.1207 39.7878 27.242C39.9185 27.354 39.9838 27.522 39.9838 27.746V36.398C39.9838 36.622 39.9185 36.79 39.7878 36.902C39.6572 37.014 39.4892 37.07 39.2838 37.07ZM47.2525 30.028C47.4671 30.028 47.6351 30.0887 47.7565 30.21C47.8871 30.3313 47.9525 30.4993 47.9525 30.714V36.412C47.9525 36.608 47.8871 36.7667 47.7565 36.888C47.6258 37.0093 47.4531 37.07 47.2385 37.07C47.0425 37.07 46.8838 37.014 46.7625 36.902C46.6411 36.7807 46.5805 36.622 46.5805 36.426V35.894C46.3658 36.286 46.0671 36.5847 45.6845 36.79C45.3111 36.9953 44.8911 37.098 44.4245 37.098C42.7631 37.098 41.9325 36.1833 41.9325 34.354V30.714C41.9325 30.4993 41.9931 30.3313 42.1145 30.21C42.2451 30.0887 42.4225 30.028 42.6465 30.028C42.8611 30.028 43.0291 30.0887 43.1505 30.21C43.2811 30.3313 43.3465 30.4993 43.3465 30.714V34.34C43.3465 34.8907 43.4585 35.2967 43.6825 35.558C43.9065 35.8193 44.2518 35.95 44.7185 35.95C45.2691 35.95 45.7078 35.7727 46.0345 35.418C46.3705 35.0633 46.5385 34.592 46.5385 34.004V30.714C46.5385 30.5087 46.6038 30.3453 46.7345 30.224C46.8651 30.0933 47.0378 30.028 47.2525 30.028ZM53.2772 35.992C53.4825 36.0107 53.6272 36.0667 53.7112 36.16C53.8045 36.244 53.8512 36.3653 53.8512 36.524C53.8512 36.7107 53.7765 36.8553 53.6272 36.958C53.4872 37.0513 53.2772 37.0887 52.9972 37.07L52.6192 37.042C51.8632 36.986 51.2985 36.7573 50.9252 36.356C50.5518 35.9453 50.3652 35.3433 50.3652 34.55V31.26H49.5252C49.1145 31.26 48.9092 31.078 48.9092 30.714C48.9092 30.546 48.9605 30.4153 49.0632 30.322C49.1752 30.2193 49.3292 30.168 49.5252 30.168H50.3652V28.726C50.3652 28.5113 50.4258 28.3433 50.5472 28.222C50.6778 28.1007 50.8505 28.04 51.0652 28.04C51.2798 28.04 51.4525 28.1007 51.5832 28.222C51.7138 28.3433 51.7792 28.5113 51.7792 28.726V30.168H53.1652C53.3612 30.168 53.5105 30.2193 53.6132 30.322C53.7252 30.4153 53.7812 30.546 53.7812 30.714C53.7812 30.8913 53.7252 31.0267 53.6132 31.12C53.5105 31.2133 53.3612 31.26 53.1652 31.26H51.7792V34.648C51.7792 35.0867 51.8678 35.4087 52.0452 35.614C52.2318 35.8193 52.5118 35.936 52.8852 35.964L53.2772 35.992ZM55.5807 37.07C55.3754 37.07 55.2027 37.014 55.0627 36.902C54.9321 36.79 54.8667 36.622 54.8667 36.398V30.714C54.8667 30.49 54.9321 30.322 55.0627 30.21C55.2027 30.0887 55.3754 30.028 55.5807 30.028C55.7861 30.028 55.9541 30.0887 56.0847 30.21C56.2154 30.322 56.2807 30.49 56.2807 30.714V36.398C56.2807 36.622 56.2154 36.79 56.0847 36.902C55.9541 37.014 55.7861 37.07 55.5807 37.07ZM55.5807 28.656C55.3101 28.656 55.0954 28.5813 54.9367 28.432C54.7781 28.2827 54.6987 28.0867 54.6987 27.844C54.6987 27.6013 54.7781 27.41 54.9367 27.27C55.0954 27.1207 55.3101 27.046 55.5807 27.046C55.8421 27.046 56.0521 27.1207 56.2107 27.27C56.3787 27.41 56.4627 27.6013 56.4627 27.844C56.4627 28.0867 56.3834 28.2827 56.2247 28.432C56.0661 28.5813 55.8514 28.656 55.5807 28.656ZM61.2253 37.098C60.5533 37.098 59.9607 36.9533 59.4473 36.664C58.9433 36.3747 58.5513 35.964 58.2713 35.432C58.0007 34.8907 57.8653 34.2653 57.8653 33.556C57.8653 32.8373 58.0007 32.212 58.2713 31.68C58.5513 31.1387 58.9433 30.7233 59.4473 30.434C59.9607 30.1447 60.5533 30 61.2253 30C61.8973 30 62.4853 30.1447 62.9893 30.434C63.5027 30.7233 63.8947 31.1387 64.1653 31.68C64.4453 32.212 64.5853 32.8373 64.5853 33.556C64.5853 34.2653 64.4453 34.8907 64.1653 35.432C63.8947 35.964 63.5027 36.3747 62.9893 36.664C62.4853 36.9533 61.8973 37.098 61.2253 37.098ZM61.2253 35.978C61.8507 35.978 62.3267 35.7727 62.6533 35.362C62.9893 34.9513 63.1573 34.3493 63.1573 33.556C63.1573 32.772 62.9893 32.1747 62.6533 31.764C62.3173 31.344 61.8413 31.134 61.2253 31.134C60.6093 31.134 60.1333 31.344 59.7973 31.764C59.4613 32.1747 59.2933 32.772 59.2933 33.556C59.2933 34.3493 59.4567 34.9513 59.7833 35.362C60.1193 35.7727 60.6 35.978 61.2253 35.978ZM69.8417 30C71.475 30 72.2917 30.9193 72.2917 32.758V36.398C72.2917 36.6127 72.2264 36.7807 72.0957 36.902C71.9744 37.014 71.8017 37.07 71.5777 37.07C71.363 37.07 71.1904 37.0093 71.0597 36.888C70.9384 36.7667 70.8777 36.6033 70.8777 36.398V32.828C70.8777 32.2493 70.761 31.8247 70.5277 31.554C70.3037 31.2833 69.949 31.148 69.4637 31.148C68.8944 31.148 68.437 31.3253 68.0917 31.68C67.7464 32.0347 67.5737 32.5107 67.5737 33.108V36.398C67.5737 36.6033 67.5084 36.7667 67.3777 36.888C67.2564 37.0093 67.0884 37.07 66.8737 37.07C66.659 37.07 66.4864 37.0093 66.3557 36.888C66.225 36.7667 66.1597 36.6033 66.1597 36.398V30.7C66.1597 30.504 66.225 30.3453 66.3557 30.224C66.4957 30.0933 66.6684 30.028 66.8737 30.028C67.079 30.028 67.2424 30.0887 67.3637 30.21C67.485 30.3313 67.5457 30.49 67.5457 30.686V31.26C67.7697 30.8493 68.0824 30.5367 68.4837 30.322C68.885 30.1073 69.3377 30 69.8417 30ZM76.6061 37.098C75.6541 37.098 74.8748 36.902 74.2681 36.51C74.1001 36.4073 73.9788 36.3 73.9041 36.188C73.8388 36.076 73.8061 35.95 73.8061 35.81C73.8061 35.6607 73.8481 35.5347 73.9321 35.432C74.0161 35.3293 74.1234 35.278 74.2541 35.278C74.3754 35.278 74.5668 35.3527 74.8281 35.502C75.1081 35.6513 75.3788 35.7727 75.6401 35.866C75.9108 35.9593 76.2468 36.006 76.6481 36.006C77.0961 36.006 77.4461 35.9267 77.6981 35.768C77.9501 35.6093 78.0761 35.3853 78.0761 35.096C78.0761 34.9093 78.0248 34.76 77.9221 34.648C77.8288 34.536 77.6608 34.438 77.4181 34.354C77.1754 34.2607 76.8161 34.1627 76.3401 34.06C75.5188 33.8827 74.9261 33.6447 74.5621 33.346C74.2074 33.038 74.0301 32.6227 74.0301 32.1C74.0301 31.6987 74.1468 31.3393 74.3801 31.022C74.6134 30.6953 74.9354 30.4433 75.3461 30.266C75.7568 30.0887 76.2234 30 76.7461 30C77.1194 30 77.4834 30.0513 77.8381 30.154C78.1928 30.2473 78.5054 30.3873 78.7761 30.574C79.0841 30.7793 79.2381 31.0173 79.2381 31.288C79.2381 31.4373 79.1914 31.5633 79.0981 31.666C79.0141 31.7687 78.9114 31.82 78.7901 31.82C78.7061 31.82 78.6221 31.8013 78.5381 31.764C78.4541 31.7267 78.3421 31.666 78.2021 31.582C77.9501 31.4327 77.7121 31.316 77.4881 31.232C77.2734 31.148 77.0028 31.106 76.6761 31.106C76.2841 31.106 75.9668 31.19 75.7241 31.358C75.4908 31.526 75.3741 31.7547 75.3741 32.044C75.3741 32.3053 75.4814 32.5107 75.6961 32.66C75.9201 32.8 76.3354 32.9353 76.9421 33.066C77.5674 33.1967 78.0574 33.346 78.4121 33.514C78.7668 33.682 79.0188 33.892 79.1681 34.144C79.3268 34.3867 79.4061 34.6993 79.4061 35.082C79.4061 35.6887 79.1494 36.1787 78.6361 36.552C78.1321 36.916 77.4554 37.098 76.6061 37.098Z" fill="black"/>
<path d="M113.565 25.0649C115.035 23.9079 116.109 22.3213 116.636 20.5259C117.162 18.7304 117.117 16.8153 116.504 15.0471C115.892 13.2789 114.744 11.7455 113.22 10.6602C111.696 9.57492 109.871 8.9917 108 8.9917C106.129 8.9917 104.304 9.57492 102.78 10.6602C101.255 11.7455 100.107 13.2789 99.4951 15.0471C98.8829 16.8153 98.837 18.7304 99.3639 20.5259C99.8908 22.3213 100.964 23.9079 102.435 25.0649C99.9149 26.0745 97.7162 27.749 96.0731 29.9098C94.43 32.0707 93.4041 34.6369 93.1048 37.3349C93.0831 37.5319 93.1004 37.7312 93.1558 37.9215C93.2112 38.1118 93.3035 38.2893 93.4274 38.4439C93.6778 38.7562 94.0419 38.9562 94.4398 38.9999C94.8376 39.0437 95.2365 38.9276 95.5487 38.6773C95.861 38.4269 96.061 38.0628 96.1048 37.6649C96.4341 34.7327 97.8323 32.0247 100.032 30.0581C102.232 28.0916 105.079 27.0045 108.03 27.0045C110.98 27.0045 113.828 28.0916 116.027 30.0581C118.227 32.0247 119.625 34.7327 119.955 37.6649C119.996 38.0335 120.171 38.3739 120.448 38.6205C120.725 38.867 121.084 39.0022 121.455 38.9999H121.62C122.013 38.9547 122.372 38.7559 122.62 38.4468C122.867 38.1377 122.982 37.7435 122.94 37.3499C122.639 34.6442 121.608 32.0714 119.956 29.9072C118.304 27.7431 116.095 26.0692 113.565 25.0649V25.0649ZM108 23.9999C106.813 23.9999 105.653 23.648 104.666 22.9888C103.68 22.3295 102.911 21.3924 102.456 20.296C102.002 19.1997 101.884 17.9933 102.115 16.8294C102.347 15.6655 102.918 14.5964 103.757 13.7573C104.596 12.9182 105.665 12.3467 106.829 12.1152C107.993 11.8837 109.199 12.0025 110.296 12.4567C111.392 12.9108 112.329 13.6798 112.989 14.6665C113.648 15.6532 114 16.8133 114 17.9999C114 19.5912 113.368 21.1174 112.242 22.2426C111.117 23.3678 109.591 23.9999 108 23.9999Z" fill="#0CAD42"/>
<path d="M230.862 13.07C230.647 13.07 230.475 13.0047 230.344 12.874C230.213 12.734 230.148 12.5567 230.148 12.342V3.83C230.148 3.61533 230.209 3.44733 230.33 3.326C230.461 3.19533 230.638 3.13 230.862 3.13H235.874C236.322 3.13 236.546 3.326 236.546 3.718C236.546 4.11 236.322 4.306 235.874 4.306H231.576V7.4H235.594C236.042 7.4 236.266 7.596 236.266 7.988C236.266 8.38 236.042 8.576 235.594 8.576H231.576V12.342C231.576 12.566 231.511 12.7433 231.38 12.874C231.259 13.0047 231.086 13.07 230.862 13.07ZM239.102 13.07C238.897 13.07 238.724 13.014 238.584 12.902C238.454 12.79 238.388 12.622 238.388 12.398V6.714C238.388 6.49 238.454 6.322 238.584 6.21C238.724 6.08867 238.897 6.028 239.102 6.028C239.308 6.028 239.476 6.08867 239.606 6.21C239.737 6.322 239.802 6.49 239.802 6.714V12.398C239.802 12.622 239.737 12.79 239.606 12.902C239.476 13.014 239.308 13.07 239.102 13.07ZM239.102 4.656C238.832 4.656 238.617 4.58133 238.458 4.432C238.3 4.28267 238.22 4.08667 238.22 3.844C238.22 3.60133 238.3 3.41 238.458 3.27C238.617 3.12067 238.832 3.046 239.102 3.046C239.364 3.046 239.574 3.12067 239.732 3.27C239.9 3.41 239.984 3.60133 239.984 3.844C239.984 4.08667 239.905 4.28267 239.746 4.432C239.588 4.58133 239.373 4.656 239.102 4.656ZM245.461 6C247.094 6 247.911 6.91933 247.911 8.758V12.398C247.911 12.6127 247.845 12.7807 247.715 12.902C247.593 13.014 247.421 13.07 247.197 13.07C246.982 13.07 246.809 13.0093 246.679 12.888C246.557 12.7667 246.497 12.6033 246.497 12.398V8.828C246.497 8.24933 246.38 7.82467 246.147 7.554C245.923 7.28333 245.568 7.148 245.083 7.148C244.513 7.148 244.056 7.32533 243.711 7.68C243.365 8.03467 243.193 8.51067 243.193 9.108V12.398C243.193 12.6033 243.127 12.7667 242.997 12.888C242.875 13.0093 242.707 13.07 242.493 13.07C242.278 13.07 242.105 13.0093 241.975 12.888C241.844 12.7667 241.779 12.6033 241.779 12.398V6.7C241.779 6.504 241.844 6.34533 241.975 6.224C242.115 6.09333 242.287 6.028 242.493 6.028C242.698 6.028 242.861 6.08867 242.983 6.21C243.104 6.33133 243.165 6.49 243.165 6.686V7.26C243.389 6.84933 243.701 6.53667 244.103 6.322C244.504 6.10733 244.957 6 245.461 6ZM253.191 11.992C253.397 12.0107 253.541 12.0667 253.625 12.16C253.719 12.244 253.765 12.3653 253.765 12.524C253.765 12.7107 253.691 12.8553 253.541 12.958C253.401 13.0513 253.191 13.0887 252.911 13.07L252.533 13.042C251.777 12.986 251.213 12.7573 250.839 12.356C250.466 11.9453 250.279 11.3433 250.279 10.55V7.26H249.439C249.029 7.26 248.823 7.078 248.823 6.714C248.823 6.546 248.875 6.41533 248.977 6.322C249.089 6.21933 249.243 6.168 249.439 6.168H250.279V4.726C250.279 4.51133 250.34 4.34333 250.461 4.222C250.592 4.10067 250.765 4.04 250.979 4.04C251.194 4.04 251.367 4.10067 251.497 4.222C251.628 4.34333 251.693 4.51133 251.693 4.726V6.168H253.079C253.275 6.168 253.425 6.21933 253.527 6.322C253.639 6.41533 253.695 6.546 253.695 6.714C253.695 6.89133 253.639 7.02667 253.527 7.12C253.425 7.21333 253.275 7.26 253.079 7.26H251.693V10.648C251.693 11.0867 251.782 11.4087 251.959 11.614C252.146 11.8193 252.426 11.936 252.799 11.964L253.191 11.992ZM260.129 11.278C260.259 11.278 260.367 11.3293 260.451 11.432C260.535 11.5347 260.577 11.6653 260.577 11.824C260.577 12.0947 260.409 12.3233 260.073 12.51C259.746 12.6967 259.387 12.8413 258.995 12.944C258.612 13.0467 258.243 13.098 257.889 13.098C256.806 13.098 255.952 12.7853 255.327 12.16C254.701 11.5253 254.389 10.662 254.389 9.57C254.389 8.87 254.524 8.24933 254.795 7.708C255.075 7.16667 255.462 6.74667 255.957 6.448C256.461 6.14933 257.03 6 257.665 6C258.579 6 259.303 6.294 259.835 6.882C260.367 7.47 260.633 8.26333 260.633 9.262C260.633 9.63533 260.465 9.822 260.129 9.822H255.803C255.896 11.2687 256.591 11.992 257.889 11.992C258.234 11.992 258.533 11.9453 258.785 11.852C259.037 11.7587 259.303 11.6373 259.583 11.488C259.611 11.4693 259.685 11.432 259.807 11.376C259.937 11.3107 260.045 11.278 260.129 11.278ZM257.693 7.036C257.151 7.036 256.717 7.20867 256.391 7.554C256.064 7.89933 255.868 8.38467 255.803 9.01H259.415C259.387 8.37533 259.223 7.89 258.925 7.554C258.635 7.20867 258.225 7.036 257.693 7.036ZM265.117 13.098C264.454 13.098 263.871 12.9533 263.367 12.664C262.872 12.3747 262.485 11.964 262.205 11.432C261.934 10.9 261.799 10.284 261.799 9.584C261.799 8.87467 261.939 8.24933 262.219 7.708C262.508 7.16667 262.91 6.74667 263.423 6.448C263.936 6.14933 264.524 6 265.187 6C265.542 6 265.896 6.05133 266.251 6.154C266.615 6.25667 266.937 6.39667 267.217 6.574C267.516 6.77933 267.665 7.01733 267.665 7.288C267.665 7.44667 267.623 7.582 267.539 7.694C267.455 7.79667 267.348 7.848 267.217 7.848C267.133 7.848 267.049 7.82933 266.965 7.792C266.881 7.74533 266.774 7.68 266.643 7.596C266.41 7.44667 266.19 7.33467 265.985 7.26C265.789 7.176 265.551 7.134 265.271 7.134C264.636 7.134 264.142 7.34867 263.787 7.778C263.442 8.20733 263.269 8.80467 263.269 9.57C263.269 10.3353 263.442 10.928 263.787 11.348C264.132 11.7587 264.622 11.964 265.257 11.964C265.537 11.964 265.784 11.922 265.999 11.838C266.214 11.754 266.433 11.642 266.657 11.502C266.76 11.4367 266.862 11.3807 266.965 11.334C267.068 11.2873 267.161 11.264 267.245 11.264C267.376 11.264 267.483 11.32 267.567 11.432C267.651 11.5347 267.693 11.6653 267.693 11.824C267.693 11.9547 267.656 12.076 267.581 12.188C267.516 12.2907 267.399 12.398 267.231 12.51C266.951 12.6967 266.624 12.8413 266.251 12.944C265.878 13.0467 265.5 13.098 265.117 13.098ZM272.655 6C274.279 6 275.091 6.91933 275.091 8.758V12.398C275.091 12.6033 275.025 12.7667 274.895 12.888C274.764 13.0093 274.591 13.07 274.377 13.07C274.162 13.07 273.989 13.0093 273.859 12.888C273.737 12.7667 273.677 12.6033 273.677 12.398V8.772C273.677 8.212 273.56 7.80133 273.327 7.54C273.103 7.27867 272.748 7.148 272.263 7.148C271.693 7.148 271.236 7.32533 270.891 7.68C270.545 8.03467 270.373 8.51067 270.373 9.108V12.398C270.373 12.6033 270.307 12.7667 270.177 12.888C270.055 13.0093 269.887 13.07 269.673 13.07C269.458 13.07 269.285 13.0093 269.155 12.888C269.024 12.7667 268.959 12.6033 268.959 12.398V3.732C268.959 3.52667 269.024 3.36333 269.155 3.242C269.295 3.12067 269.472 3.06 269.687 3.06C269.892 3.06 270.055 3.12067 270.177 3.242C270.307 3.354 270.373 3.508 270.373 3.704V7.204C270.606 6.812 270.919 6.51333 271.311 6.308C271.703 6.10267 272.151 6 272.655 6ZM235.958 23.918C236.527 24.0767 236.966 24.3613 237.274 24.772C237.591 25.1827 237.75 25.696 237.75 26.312C237.75 27.1613 237.456 27.824 236.868 28.3C236.289 28.7667 235.477 29 234.432 29H230.862C230.638 29 230.461 28.9393 230.33 28.818C230.209 28.6873 230.148 28.5147 230.148 28.3V19.83C230.148 19.6153 230.209 19.4473 230.33 19.326C230.461 19.1953 230.638 19.13 230.862 19.13H234.278C235.295 19.13 236.089 19.3587 236.658 19.816C237.237 20.264 237.526 20.894 237.526 21.706C237.526 22.2287 237.386 22.6813 237.106 23.064C236.835 23.4467 236.453 23.7313 235.958 23.918ZM231.562 23.4H234.054C235.435 23.4 236.126 22.8773 236.126 21.832C236.126 21.3093 235.953 20.922 235.608 20.67C235.272 20.418 234.754 20.292 234.054 20.292H231.562V23.4ZM234.278 27.838C234.997 27.838 235.524 27.7073 235.86 27.446C236.196 27.1847 236.364 26.7787 236.364 26.228C236.364 25.668 236.191 25.2527 235.846 24.982C235.51 24.702 234.987 24.562 234.278 24.562H231.562V27.838H234.278ZM244.76 22.028C244.975 22.028 245.143 22.0887 245.264 22.21C245.395 22.3313 245.46 22.4993 245.46 22.714V28.412C245.46 28.608 245.395 28.7667 245.264 28.888C245.134 29.0093 244.961 29.07 244.746 29.07C244.55 29.07 244.392 29.014 244.27 28.902C244.149 28.7807 244.088 28.622 244.088 28.426V27.894C243.874 28.286 243.575 28.5847 243.192 28.79C242.819 28.9953 242.399 29.098 241.932 29.098C240.271 29.098 239.44 28.1833 239.44 26.354V22.714C239.44 22.4993 239.501 22.3313 239.622 22.21C239.753 22.0887 239.93 22.028 240.154 22.028C240.369 22.028 240.537 22.0887 240.658 22.21C240.789 22.3313 240.854 22.4993 240.854 22.714V26.34C240.854 26.8907 240.966 27.2967 241.19 27.558C241.414 27.8193 241.76 27.95 242.226 27.95C242.777 27.95 243.216 27.7727 243.542 27.418C243.878 27.0633 244.046 26.592 244.046 26.004V22.714C244.046 22.5087 244.112 22.3453 244.242 22.224C244.373 22.0933 244.546 22.028 244.76 22.028ZM249.819 29.098C248.867 29.098 248.088 28.902 247.481 28.51C247.313 28.4073 247.192 28.3 247.117 28.188C247.052 28.076 247.019 27.95 247.019 27.81C247.019 27.6607 247.061 27.5347 247.145 27.432C247.229 27.3293 247.336 27.278 247.467 27.278C247.588 27.278 247.78 27.3527 248.041 27.502C248.321 27.6513 248.592 27.7727 248.853 27.866C249.124 27.9593 249.46 28.006 249.861 28.006C250.309 28.006 250.659 27.9267 250.911 27.768C251.163 27.6093 251.289 27.3853 251.289 27.096C251.289 26.9093 251.238 26.76 251.135 26.648C251.042 26.536 250.874 26.438 250.631 26.354C250.388 26.2607 250.029 26.1627 249.553 26.06C248.732 25.8827 248.139 25.6447 247.775 25.346C247.42 25.038 247.243 24.6227 247.243 24.1C247.243 23.6987 247.36 23.3393 247.593 23.022C247.826 22.6953 248.148 22.4433 248.559 22.266C248.97 22.0887 249.436 22 249.959 22C250.332 22 250.696 22.0513 251.051 22.154C251.406 22.2473 251.718 22.3873 251.989 22.574C252.297 22.7793 252.451 23.0173 252.451 23.288C252.451 23.4373 252.404 23.5633 252.311 23.666C252.227 23.7687 252.124 23.82 252.003 23.82C251.919 23.82 251.835 23.8013 251.751 23.764C251.667 23.7267 251.555 23.666 251.415 23.582C251.163 23.4327 250.925 23.316 250.701 23.232C250.486 23.148 250.216 23.106 249.889 23.106C249.497 23.106 249.18 23.19 248.937 23.358C248.704 23.526 248.587 23.7547 248.587 24.044C248.587 24.3053 248.694 24.5107 248.909 24.66C249.133 24.8 249.548 24.9353 250.155 25.066C250.78 25.1967 251.27 25.346 251.625 25.514C251.98 25.682 252.232 25.892 252.381 26.144C252.54 26.3867 252.619 26.6993 252.619 27.082C252.619 27.6887 252.362 28.1787 251.849 28.552C251.345 28.916 250.668 29.098 249.819 29.098ZM254.907 29.07C254.702 29.07 254.529 29.014 254.389 28.902C254.258 28.79 254.193 28.622 254.193 28.398V22.714C254.193 22.49 254.258 22.322 254.389 22.21C254.529 22.0887 254.702 22.028 254.907 22.028C255.112 22.028 255.28 22.0887 255.411 22.21C255.542 22.322 255.607 22.49 255.607 22.714V28.398C255.607 28.622 255.542 28.79 255.411 28.902C255.28 29.014 255.112 29.07 254.907 29.07ZM254.907 20.656C254.636 20.656 254.422 20.5813 254.263 20.432C254.104 20.2827 254.025 20.0867 254.025 19.844C254.025 19.6013 254.104 19.41 254.263 19.27C254.422 19.1207 254.636 19.046 254.907 19.046C255.168 19.046 255.378 19.1207 255.537 19.27C255.705 19.41 255.789 19.6013 255.789 19.844C255.789 20.0867 255.71 20.2827 255.551 20.432C255.392 20.5813 255.178 20.656 254.907 20.656ZM261.266 22C262.899 22 263.716 22.9193 263.716 24.758V28.398C263.716 28.6127 263.65 28.7807 263.52 28.902C263.398 29.014 263.226 29.07 263.002 29.07C262.787 29.07 262.614 29.0093 262.484 28.888C262.362 28.7667 262.302 28.6033 262.302 28.398V24.828C262.302 24.2493 262.185 23.8247 261.952 23.554C261.728 23.2833 261.373 23.148 260.888 23.148C260.318 23.148 259.861 23.3253 259.516 23.68C259.17 24.0347 258.998 24.5107 258.998 25.108V28.398C258.998 28.6033 258.932 28.7667 258.802 28.888C258.68 29.0093 258.512 29.07 258.298 29.07C258.083 29.07 257.91 29.0093 257.78 28.888C257.649 28.7667 257.584 28.6033 257.584 28.398V22.7C257.584 22.504 257.649 22.3453 257.78 22.224C257.92 22.0933 258.092 22.028 258.298 22.028C258.503 22.028 258.666 22.0887 258.788 22.21C258.909 22.3313 258.97 22.49 258.97 22.686V23.26C259.194 22.8493 259.506 22.5367 259.908 22.322C260.309 22.1073 260.762 22 261.266 22ZM270.998 27.278C271.129 27.278 271.236 27.3293 271.32 27.432C271.404 27.5347 271.446 27.6653 271.446 27.824C271.446 28.0947 271.278 28.3233 270.942 28.51C270.615 28.6967 270.256 28.8413 269.864 28.944C269.481 29.0467 269.113 29.098 268.758 29.098C267.675 29.098 266.821 28.7853 266.196 28.16C265.571 27.5253 265.258 26.662 265.258 25.57C265.258 24.87 265.393 24.2493 265.664 23.708C265.944 23.1667 266.331 22.7467 266.826 22.448C267.33 22.1493 267.899 22 268.534 22C269.449 22 270.172 22.294 270.704 22.882C271.236 23.47 271.502 24.2633 271.502 25.262C271.502 25.6353 271.334 25.822 270.998 25.822H266.672C266.765 27.2687 267.461 27.992 268.758 27.992C269.103 27.992 269.402 27.9453 269.654 27.852C269.906 27.7587 270.172 27.6373 270.452 27.488C270.48 27.4693 270.555 27.432 270.676 27.376C270.807 27.3107 270.914 27.278 270.998 27.278ZM268.562 23.036C268.021 23.036 267.587 23.2087 267.26 23.554C266.933 23.8993 266.737 24.3847 266.672 25.01H270.284C270.256 24.3753 270.093 23.89 269.794 23.554C269.505 23.2087 269.094 23.036 268.562 23.036ZM275.44 29.098C274.488 29.098 273.709 28.902 273.102 28.51C272.934 28.4073 272.813 28.3 272.738 28.188C272.673 28.076 272.64 27.95 272.64 27.81C272.64 27.6607 272.682 27.5347 272.766 27.432C272.85 27.3293 272.957 27.278 273.088 27.278C273.209 27.278 273.401 27.3527 273.662 27.502C273.942 27.6513 274.213 27.7727 274.474 27.866C274.745 27.9593 275.081 28.006 275.482 28.006C275.93 28.006 276.28 27.9267 276.532 27.768C276.784 27.6093 276.91 27.3853 276.91 27.096C276.91 26.9093 276.859 26.76 276.756 26.648C276.663 26.536 276.495 26.438 276.252 26.354C276.009 26.2607 275.65 26.1627 275.174 26.06C274.353 25.8827 273.76 25.6447 273.396 25.346C273.041 25.038 272.864 24.6227 272.864 24.1C272.864 23.6987 272.981 23.3393 273.214 23.022C273.447 22.6953 273.769 22.4433 274.18 22.266C274.591 22.0887 275.057 22 275.58 22C275.953 22 276.317 22.0513 276.672 22.154C277.027 22.2473 277.339 22.3873 277.61 22.574C277.918 22.7793 278.072 23.0173 278.072 23.288C278.072 23.4373 278.025 23.5633 277.932 23.666C277.848 23.7687 277.745 23.82 277.624 23.82C277.54 23.82 277.456 23.8013 277.372 23.764C277.288 23.7267 277.176 23.666 277.036 23.582C276.784 23.4327 276.546 23.316 276.322 23.232C276.107 23.148 275.837 23.106 275.51 23.106C275.118 23.106 274.801 23.19 274.558 23.358C274.325 23.526 274.208 23.7547 274.208 24.044C274.208 24.3053 274.315 24.5107 274.53 24.66C274.754 24.8 275.169 24.9353 275.776 25.066C276.401 25.1967 276.891 25.346 277.246 25.514C277.601 25.682 277.853 25.892 278.002 26.144C278.161 26.3867 278.24 26.6993 278.24 27.082C278.24 27.6887 277.983 28.1787 277.47 28.552C276.966 28.916 276.289 29.098 275.44 29.098ZM282.194 29.098C281.242 29.098 280.463 28.902 279.856 28.51C279.688 28.4073 279.567 28.3 279.492 28.188C279.427 28.076 279.394 27.95 279.394 27.81C279.394 27.6607 279.436 27.5347 279.52 27.432C279.604 27.3293 279.711 27.278 279.842 27.278C279.963 27.278 280.155 27.3527 280.416 27.502C280.696 27.6513 280.967 27.7727 281.228 27.866C281.499 27.9593 281.835 28.006 282.236 28.006C282.684 28.006 283.034 27.9267 283.286 27.768C283.538 27.6093 283.664 27.3853 283.664 27.096C283.664 26.9093 283.613 26.76 283.51 26.648C283.417 26.536 283.249 26.438 283.006 26.354C282.763 26.2607 282.404 26.1627 281.928 26.06C281.107 25.8827 280.514 25.6447 280.15 25.346C279.795 25.038 279.618 24.6227 279.618 24.1C279.618 23.6987 279.735 23.3393 279.968 23.022C280.201 22.6953 280.523 22.4433 280.934 22.266C281.345 22.0887 281.811 22 282.334 22C282.707 22 283.071 22.0513 283.426 22.154C283.781 22.2473 284.093 22.3873 284.364 22.574C284.672 22.7793 284.826 23.0173 284.826 23.288C284.826 23.4373 284.779 23.5633 284.686 23.666C284.602 23.7687 284.499 23.82 284.378 23.82C284.294 23.82 284.21 23.8013 284.126 23.764C284.042 23.7267 283.93 23.666 283.79 23.582C283.538 23.4327 283.3 23.316 283.076 23.232C282.861 23.148 282.591 23.106 282.264 23.106C281.872 23.106 281.555 23.19 281.312 23.358C281.079 23.526 280.962 23.7547 280.962 24.044C280.962 24.3053 281.069 24.5107 281.284 24.66C281.508 24.8 281.923 24.9353 282.53 25.066C283.155 25.1967 283.645 25.346 284 25.514C284.355 25.682 284.607 25.892 284.756 26.144C284.915 26.3867 284.994 26.6993 284.994 27.082C284.994 27.6887 284.737 28.1787 284.224 28.552C283.72 28.916 283.043 29.098 282.194 29.098ZM233.41 45.112C232.701 45.112 232.024 45.014 231.38 44.818C230.745 44.622 230.237 44.3513 229.854 44.006C229.677 43.8567 229.588 43.6653 229.588 43.432C229.588 43.264 229.635 43.124 229.728 43.012C229.821 42.8907 229.933 42.83 230.064 42.83C230.195 42.83 230.353 42.8907 230.54 43.012C231.371 43.628 232.318 43.936 233.382 43.936C234.129 43.936 234.703 43.796 235.104 43.516C235.505 43.236 235.706 42.8347 235.706 42.312C235.706 41.9013 235.519 41.5933 235.146 41.388C234.773 41.1827 234.175 40.9867 233.354 40.8C232.57 40.632 231.926 40.4407 231.422 40.226C230.918 40.0113 230.521 39.722 230.232 39.358C229.952 38.9847 229.812 38.5133 229.812 37.944C229.812 37.3747 229.966 36.8707 230.274 36.432C230.591 35.984 231.03 35.6387 231.59 35.396C232.15 35.144 232.789 35.018 233.508 35.018C234.171 35.018 234.782 35.1113 235.342 35.298C235.902 35.4847 236.378 35.76 236.77 36.124C236.957 36.2827 237.05 36.474 237.05 36.698C237.05 36.8567 236.999 36.9967 236.896 37.118C236.803 37.2393 236.691 37.3 236.56 37.3C236.439 37.3 236.285 37.2393 236.098 37.118C235.669 36.7913 235.263 36.558 234.88 36.418C234.507 36.2687 234.054 36.194 233.522 36.194C232.803 36.194 232.243 36.3433 231.842 36.642C231.441 36.9313 231.24 37.3373 231.24 37.86C231.24 38.308 231.417 38.6487 231.772 38.882C232.127 39.106 232.696 39.3113 233.48 39.498C234.301 39.6847 234.964 39.8807 235.468 40.086C235.981 40.282 236.387 40.5573 236.686 40.912C236.994 41.2573 237.148 41.7053 237.148 42.256C237.148 42.816 236.989 43.3153 236.672 43.754C236.364 44.1833 235.925 44.5193 235.356 44.762C234.796 44.9953 234.147 45.112 233.41 45.112ZM241.725 45.098C241.053 45.098 240.461 44.9533 239.947 44.664C239.443 44.3747 239.051 43.964 238.771 43.432C238.501 42.8907 238.365 42.2653 238.365 41.556C238.365 40.8373 238.501 40.212 238.771 39.68C239.051 39.1387 239.443 38.7233 239.947 38.434C240.461 38.1447 241.053 38 241.725 38C242.397 38 242.985 38.1447 243.489 38.434C244.003 38.7233 244.395 39.1387 244.665 39.68C244.945 40.212 245.085 40.8373 245.085 41.556C245.085 42.2653 244.945 42.8907 244.665 43.432C244.395 43.964 244.003 44.3747 243.489 44.664C242.985 44.9533 242.397 45.098 241.725 45.098ZM241.725 43.978C242.351 43.978 242.827 43.7727 243.153 43.362C243.489 42.9513 243.657 42.3493 243.657 41.556C243.657 40.772 243.489 40.1747 243.153 39.764C242.817 39.344 242.341 39.134 241.725 39.134C241.109 39.134 240.633 39.344 240.297 39.764C239.961 40.1747 239.793 40.772 239.793 41.556C239.793 42.3493 239.957 42.9513 240.283 43.362C240.619 43.7727 241.1 43.978 241.725 43.978ZM247.374 45.07C247.168 45.07 246.996 45.014 246.856 44.902C246.725 44.79 246.66 44.622 246.66 44.398V35.746C246.66 35.522 246.725 35.354 246.856 35.242C246.996 35.1207 247.168 35.06 247.374 35.06C247.579 35.06 247.747 35.1207 247.878 35.242C248.008 35.354 248.074 35.522 248.074 35.746V44.398C248.074 44.622 248.008 44.79 247.878 44.902C247.747 45.014 247.579 45.07 247.374 45.07ZM255.342 38.028C255.557 38.028 255.725 38.0887 255.846 38.21C255.977 38.3313 256.042 38.4993 256.042 38.714V44.412C256.042 44.608 255.977 44.7667 255.846 44.888C255.716 45.0093 255.543 45.07 255.328 45.07C255.132 45.07 254.974 45.014 254.852 44.902C254.731 44.7807 254.67 44.622 254.67 44.426V43.894C254.456 44.286 254.157 44.5847 253.774 44.79C253.401 44.9953 252.981 45.098 252.514 45.098C250.853 45.098 250.022 44.1833 250.022 42.354V38.714C250.022 38.4993 250.083 38.3313 250.204 38.21C250.335 38.0887 250.512 38.028 250.736 38.028C250.951 38.028 251.119 38.0887 251.24 38.21C251.371 38.3313 251.436 38.4993 251.436 38.714V42.34C251.436 42.8907 251.548 43.2967 251.772 43.558C251.996 43.8193 252.342 43.95 252.808 43.95C253.359 43.95 253.798 43.7727 254.124 43.418C254.46 43.0633 254.628 42.592 254.628 42.004V38.714C254.628 38.5087 254.694 38.3453 254.824 38.224C254.955 38.0933 255.128 38.028 255.342 38.028ZM261.367 43.992C261.572 44.0107 261.717 44.0667 261.801 44.16C261.894 44.244 261.941 44.3653 261.941 44.524C261.941 44.7107 261.866 44.8553 261.717 44.958C261.577 45.0513 261.367 45.0887 261.087 45.07L260.709 45.042C259.953 44.986 259.388 44.7573 259.015 44.356C258.642 43.9453 258.455 43.3433 258.455 42.55V39.26H257.615C257.204 39.26 256.999 39.078 256.999 38.714C256.999 38.546 257.05 38.4153 257.153 38.322C257.265 38.2193 257.419 38.168 257.615 38.168H258.455V36.726C258.455 36.5113 258.516 36.3433 258.637 36.222C258.768 36.1007 258.94 36.04 259.155 36.04C259.37 36.04 259.542 36.1007 259.673 36.222C259.804 36.3433 259.869 36.5113 259.869 36.726V38.168H261.255C261.451 38.168 261.6 38.2193 261.703 38.322C261.815 38.4153 261.871 38.546 261.871 38.714C261.871 38.8913 261.815 39.0267 261.703 39.12C261.6 39.2133 261.451 39.26 261.255 39.26H259.869V42.648C259.869 43.0867 259.958 43.4087 260.135 43.614C260.322 43.8193 260.602 43.936 260.975 43.964L261.367 43.992ZM263.671 45.07C263.465 45.07 263.293 45.014 263.153 44.902C263.022 44.79 262.957 44.622 262.957 44.398V38.714C262.957 38.49 263.022 38.322 263.153 38.21C263.293 38.0887 263.465 38.028 263.671 38.028C263.876 38.028 264.044 38.0887 264.175 38.21C264.305 38.322 264.371 38.49 264.371 38.714V44.398C264.371 44.622 264.305 44.79 264.175 44.902C264.044 45.014 263.876 45.07 263.671 45.07ZM263.671 36.656C263.4 36.656 263.185 36.5813 263.027 36.432C262.868 36.2827 262.789 36.0867 262.789 35.844C262.789 35.6013 262.868 35.41 263.027 35.27C263.185 35.1207 263.4 35.046 263.671 35.046C263.932 35.046 264.142 35.1207 264.301 35.27C264.469 35.41 264.553 35.6013 264.553 35.844C264.553 36.0867 264.473 36.2827 264.315 36.432C264.156 36.5813 263.941 36.656 263.671 36.656ZM269.315 45.098C268.643 45.098 268.051 44.9533 267.537 44.664C267.033 44.3747 266.641 43.964 266.361 43.432C266.091 42.8907 265.955 42.2653 265.955 41.556C265.955 40.8373 266.091 40.212 266.361 39.68C266.641 39.1387 267.033 38.7233 267.537 38.434C268.051 38.1447 268.643 38 269.315 38C269.987 38 270.575 38.1447 271.079 38.434C271.593 38.7233 271.985 39.1387 272.255 39.68C272.535 40.212 272.675 40.8373 272.675 41.556C272.675 42.2653 272.535 42.8907 272.255 43.432C271.985 43.964 271.593 44.3747 271.079 44.664C270.575 44.9533 269.987 45.098 269.315 45.098ZM269.315 43.978C269.941 43.978 270.417 43.7727 270.743 43.362C271.079 42.9513 271.247 42.3493 271.247 41.556C271.247 40.772 271.079 40.1747 270.743 39.764C270.407 39.344 269.931 39.134 269.315 39.134C268.699 39.134 268.223 39.344 267.887 39.764C267.551 40.1747 267.383 40.772 267.383 41.556C267.383 42.3493 267.547 42.9513 267.873 43.362C268.209 43.7727 268.69 43.978 269.315 43.978ZM277.932 38C279.565 38 280.382 38.9193 280.382 40.758V44.398C280.382 44.6127 280.316 44.7807 280.186 44.902C280.064 45.014 279.892 45.07 279.668 45.07C279.453 45.07 279.28 45.0093 279.15 44.888C279.028 44.7667 278.968 44.6033 278.968 44.398V40.828C278.968 40.2493 278.851 39.8247 278.618 39.554C278.394 39.2833 278.039 39.148 277.554 39.148C276.984 39.148 276.527 39.3253 276.182 39.68C275.836 40.0347 275.664 40.5107 275.664 41.108V44.398C275.664 44.6033 275.598 44.7667 275.468 44.888C275.346 45.0093 275.178 45.07 274.964 45.07C274.749 45.07 274.576 45.0093 274.446 44.888C274.315 44.7667 274.25 44.6033 274.25 44.398V38.7C274.25 38.504 274.315 38.3453 274.446 38.224C274.586 38.0933 274.758 38.028 274.964 38.028C275.169 38.028 275.332 38.0887 275.454 38.21C275.575 38.3313 275.636 38.49 275.636 38.686V39.26C275.86 38.8493 276.172 38.5367 276.574 38.322C276.975 38.1073 277.428 38 277.932 38ZM284.696 45.098C283.744 45.098 282.965 44.902 282.358 44.51C282.19 44.4073 282.069 44.3 281.994 44.188C281.929 44.076 281.896 43.95 281.896 43.81C281.896 43.6607 281.938 43.5347 282.022 43.432C282.106 43.3293 282.213 43.278 282.344 43.278C282.465 43.278 282.657 43.3527 282.918 43.502C283.198 43.6513 283.469 43.7727 283.73 43.866C284.001 43.9593 284.337 44.006 284.738 44.006C285.186 44.006 285.536 43.9267 285.788 43.768C286.04 43.6093 286.166 43.3853 286.166 43.096C286.166 42.9093 286.115 42.76 286.012 42.648C285.919 42.536 285.751 42.438 285.508 42.354C285.265 42.2607 284.906 42.1627 284.43 42.06C283.609 41.8827 283.016 41.6447 282.652 41.346C282.297 41.038 282.12 40.6227 282.12 40.1C282.12 39.6987 282.237 39.3393 282.47 39.022C282.703 38.6953 283.025 38.4433 283.436 38.266C283.847 38.0887 284.313 38 284.836 38C285.209 38 285.573 38.0513 285.928 38.154C286.283 38.2473 286.595 38.3873 286.866 38.574C287.174 38.7793 287.328 39.0173 287.328 39.288C287.328 39.4373 287.281 39.5633 287.188 39.666C287.104 39.7687 287.001 39.82 286.88 39.82C286.796 39.82 286.712 39.8013 286.628 39.764C286.544 39.7267 286.432 39.666 286.292 39.582C286.04 39.4327 285.802 39.316 285.578 39.232C285.363 39.148 285.093 39.106 284.766 39.106C284.374 39.106 284.057 39.19 283.814 39.358C283.581 39.526 283.464 39.7547 283.464 40.044C283.464 40.3053 283.571 40.5107 283.786 40.66C284.01 40.8 284.425 40.9353 285.032 41.066C285.657 41.1967 286.147 41.346 286.502 41.514C286.857 41.682 287.109 41.892 287.258 42.144C287.417 42.3867 287.496 42.6993 287.496 43.082C287.496 43.6887 287.239 44.1787 286.726 44.552C286.222 44.916 285.545 45.098 284.696 45.098Z" fill="black"/>
<path d="M213 15H210V10.5C210 10.1022 209.842 9.72064 209.561 9.43934C209.279 9.15804 208.898 9 208.5 9C208.102 9 207.721 9.15804 207.439 9.43934C207.158 9.72064 207 10.1022 207 10.5V15H201V10.5C201 10.1022 200.842 9.72064 200.561 9.43934C200.279 9.15804 199.898 9 199.5 9C199.102 9 198.721 9.15804 198.439 9.43934C198.158 9.72064 198 10.1022 198 10.5V15H195C194.602 15 194.221 15.158 193.939 15.4393C193.658 15.7206 193.5 16.1022 193.5 16.5C193.5 16.8978 193.658 17.2794 193.939 17.5607C194.221 17.842 194.602 18 195 18V25.5C194.999 25.6974 195.037 25.8931 195.111 26.0759C195.186 26.2586 195.296 26.4248 195.435 26.565L199.5 30.615V37.5C199.5 37.8978 199.658 38.2794 199.939 38.5607C200.221 38.842 200.602 39 201 39C201.398 39 201.779 38.842 202.061 38.5607C202.342 38.2794 202.5 37.8978 202.5 37.5V31.5H205.5V37.5C205.5 37.8978 205.658 38.2794 205.939 38.5607C206.221 38.842 206.602 39 207 39C207.398 39 207.779 38.842 208.061 38.5607C208.342 38.2794 208.5 37.8978 208.5 37.5V30.615L212.565 26.565C212.704 26.4248 212.814 26.2586 212.889 26.0759C212.963 25.8931 213.001 25.6974 213 25.5V18C213.398 18 213.779 17.842 214.061 17.5607C214.342 17.2794 214.5 16.8978 214.5 16.5C214.5 16.1022 214.342 15.7206 214.061 15.4393C213.779 15.158 213.398 15 213 15ZM210 24.885L206.385 28.5H201.615L198 24.885V18H210V24.885ZM202.5 25.5H205.5C205.898 25.5 206.279 25.342 206.561 25.0607C206.842 24.7794 207 24.3978 207 24C207 23.6022 206.842 23.2206 206.561 22.9393C206.279 22.658 205.898 22.5 205.5 22.5H202.5C202.102 22.5 201.721 22.658 201.439 22.9393C201.158 23.2206 201 23.6022 201 24C201 24.3978 201.158 24.7794 201.439 25.0607C201.721 25.342 202.102 25.5 202.5 25.5Z" fill="#0CAD42"/>
<line x1="156" y1="61" x2="156" y2="-4.37114e-08" stroke="#DDDDDD" stroke-width="2" stroke-dasharray="2 2"/>
<path d="M239.84 144.07C239.625 144.07 239.452 144.005 239.322 143.874C239.191 143.734 239.126 143.557 239.126 143.342V134.83C239.126 134.615 239.186 134.447 239.308 134.326C239.438 134.195 239.616 134.13 239.84 134.13H244.852C245.3 134.13 245.524 134.326 245.524 134.718C245.524 135.11 245.3 135.306 244.852 135.306H240.554V138.4H244.572C245.02 138.4 245.244 138.596 245.244 138.988C245.244 139.38 245.02 139.576 244.572 139.576H240.554V143.342C240.554 143.566 240.488 143.743 240.358 143.874C240.236 144.005 240.064 144.07 239.84 144.07ZM248.08 144.07C247.874 144.07 247.702 144.014 247.562 143.902C247.431 143.79 247.366 143.622 247.366 143.398V137.714C247.366 137.49 247.431 137.322 247.562 137.21C247.702 137.089 247.874 137.028 248.08 137.028C248.285 137.028 248.453 137.089 248.584 137.21C248.714 137.322 248.78 137.49 248.78 137.714V143.398C248.78 143.622 248.714 143.79 248.584 143.902C248.453 144.014 248.285 144.07 248.08 144.07ZM248.08 135.656C247.809 135.656 247.594 135.581 247.436 135.432C247.277 135.283 247.198 135.087 247.198 134.844C247.198 134.601 247.277 134.41 247.436 134.27C247.594 134.121 247.809 134.046 248.08 134.046C248.341 134.046 248.551 134.121 248.71 134.27C248.878 134.41 248.962 134.601 248.962 134.844C248.962 135.087 248.882 135.283 248.724 135.432C248.565 135.581 248.35 135.656 248.08 135.656ZM254.438 137C256.072 137 256.888 137.919 256.888 139.758V143.398C256.888 143.613 256.823 143.781 256.692 143.902C256.571 144.014 256.398 144.07 256.174 144.07C255.96 144.07 255.787 144.009 255.656 143.888C255.535 143.767 255.474 143.603 255.474 143.398V139.828C255.474 139.249 255.358 138.825 255.124 138.554C254.9 138.283 254.546 138.148 254.06 138.148C253.491 138.148 253.034 138.325 252.688 138.68C252.343 139.035 252.17 139.511 252.17 140.108V143.398C252.17 143.603 252.105 143.767 251.974 143.888C251.853 144.009 251.685 144.07 251.47 144.07C251.256 144.07 251.083 144.009 250.952 143.888C250.822 143.767 250.756 143.603 250.756 143.398V137.7C250.756 137.504 250.822 137.345 250.952 137.224C251.092 137.093 251.265 137.028 251.47 137.028C251.676 137.028 251.839 137.089 251.96 137.21C252.082 137.331 252.142 137.49 252.142 137.686V138.26C252.366 137.849 252.679 137.537 253.08 137.322C253.482 137.107 253.934 137 254.438 137ZM262.169 142.992C262.374 143.011 262.519 143.067 262.603 143.16C262.696 143.244 262.743 143.365 262.743 143.524C262.743 143.711 262.668 143.855 262.519 143.958C262.379 144.051 262.169 144.089 261.889 144.07L261.511 144.042C260.755 143.986 260.19 143.757 259.817 143.356C259.443 142.945 259.257 142.343 259.257 141.55V138.26H258.417C258.006 138.26 257.801 138.078 257.801 137.714C257.801 137.546 257.852 137.415 257.955 137.322C258.067 137.219 258.221 137.168 258.417 137.168H259.257V135.726C259.257 135.511 259.317 135.343 259.439 135.222C259.569 135.101 259.742 135.04 259.957 135.04C260.171 135.04 260.344 135.101 260.475 135.222C260.605 135.343 260.671 135.511 260.671 135.726V137.168H262.057C262.253 137.168 262.402 137.219 262.505 137.322C262.617 137.415 262.673 137.546 262.673 137.714C262.673 137.891 262.617 138.027 262.505 138.12C262.402 138.213 262.253 138.26 262.057 138.26H260.671V141.648C260.671 142.087 260.759 142.409 260.937 142.614C261.123 142.819 261.403 142.936 261.777 142.964L262.169 142.992ZM269.106 142.278C269.237 142.278 269.344 142.329 269.428 142.432C269.512 142.535 269.554 142.665 269.554 142.824C269.554 143.095 269.386 143.323 269.05 143.51C268.724 143.697 268.364 143.841 267.972 143.944C267.59 144.047 267.221 144.098 266.866 144.098C265.784 144.098 264.93 143.785 264.304 143.16C263.679 142.525 263.366 141.662 263.366 140.57C263.366 139.87 263.502 139.249 263.772 138.708C264.052 138.167 264.44 137.747 264.934 137.448C265.438 137.149 266.008 137 266.642 137C267.557 137 268.28 137.294 268.812 137.882C269.344 138.47 269.61 139.263 269.61 140.262C269.61 140.635 269.442 140.822 269.106 140.822H264.78C264.874 142.269 265.569 142.992 266.866 142.992C267.212 142.992 267.51 142.945 267.762 142.852C268.014 142.759 268.28 142.637 268.56 142.488C268.588 142.469 268.663 142.432 268.784 142.376C268.915 142.311 269.022 142.278 269.106 142.278ZM266.67 138.036C266.129 138.036 265.695 138.209 265.368 138.554C265.042 138.899 264.846 139.385 264.78 140.01H268.392C268.364 139.375 268.201 138.89 267.902 138.554C267.613 138.209 267.202 138.036 266.67 138.036ZM274.094 144.098C273.432 144.098 272.848 143.953 272.344 143.664C271.85 143.375 271.462 142.964 271.182 142.432C270.912 141.9 270.776 141.284 270.776 140.584C270.776 139.875 270.916 139.249 271.196 138.708C271.486 138.167 271.887 137.747 272.4 137.448C272.914 137.149 273.502 137 274.164 137C274.519 137 274.874 137.051 275.228 137.154C275.592 137.257 275.914 137.397 276.194 137.574C276.493 137.779 276.642 138.017 276.642 138.288C276.642 138.447 276.6 138.582 276.516 138.694C276.432 138.797 276.325 138.848 276.194 138.848C276.11 138.848 276.026 138.829 275.942 138.792C275.858 138.745 275.751 138.68 275.62 138.596C275.387 138.447 275.168 138.335 274.962 138.26C274.766 138.176 274.528 138.134 274.248 138.134C273.614 138.134 273.119 138.349 272.764 138.778C272.419 139.207 272.246 139.805 272.246 140.57C272.246 141.335 272.419 141.928 272.764 142.348C273.11 142.759 273.6 142.964 274.234 142.964C274.514 142.964 274.762 142.922 274.976 142.838C275.191 142.754 275.41 142.642 275.634 142.502C275.737 142.437 275.84 142.381 275.942 142.334C276.045 142.287 276.138 142.264 276.222 142.264C276.353 142.264 276.46 142.32 276.544 142.432C276.628 142.535 276.67 142.665 276.67 142.824C276.67 142.955 276.633 143.076 276.558 143.188C276.493 143.291 276.376 143.398 276.208 143.51C275.928 143.697 275.602 143.841 275.228 143.944C274.855 144.047 274.477 144.098 274.094 144.098ZM281.632 137C283.256 137 284.068 137.919 284.068 139.758V143.398C284.068 143.603 284.003 143.767 283.872 143.888C283.741 144.009 283.569 144.07 283.354 144.07C283.139 144.07 282.967 144.009 282.836 143.888C282.715 143.767 282.654 143.603 282.654 143.398V139.772C282.654 139.212 282.537 138.801 282.304 138.54C282.08 138.279 281.725 138.148 281.24 138.148C280.671 138.148 280.213 138.325 279.868 138.68C279.523 139.035 279.35 139.511 279.35 140.108V143.398C279.35 143.603 279.285 143.767 279.154 143.888C279.033 144.009 278.865 144.07 278.65 144.07C278.435 144.07 278.263 144.009 278.132 143.888C278.001 143.767 277.936 143.603 277.936 143.398V134.732C277.936 134.527 278.001 134.363 278.132 134.242C278.272 134.121 278.449 134.06 278.664 134.06C278.869 134.06 279.033 134.121 279.154 134.242C279.285 134.354 279.35 134.508 279.35 134.704V138.204C279.583 137.812 279.896 137.513 280.288 137.308C280.68 137.103 281.128 137 281.632 137ZM235.923 160.07C235.708 160.07 235.535 160.005 235.405 159.874C235.274 159.743 235.209 159.566 235.209 159.342V150.83C235.209 150.615 235.269 150.447 235.391 150.326C235.521 150.195 235.699 150.13 235.923 150.13H239.297C240.342 150.13 241.154 150.387 241.733 150.9C242.311 151.413 242.601 152.141 242.601 153.084C242.601 154.017 242.311 154.745 241.733 155.268C241.154 155.791 240.342 156.052 239.297 156.052H236.651V159.342C236.651 159.566 236.585 159.743 236.455 159.874C236.333 160.005 236.156 160.07 235.923 160.07ZM239.143 154.89C240.524 154.89 241.215 154.288 241.215 153.084C241.215 151.889 240.524 151.292 239.143 151.292H236.651V154.89H239.143ZM244.887 160.07C244.682 160.07 244.509 160.014 244.369 159.902C244.239 159.79 244.173 159.622 244.173 159.398V150.746C244.173 150.522 244.239 150.354 244.369 150.242C244.509 150.121 244.682 150.06 244.887 150.06C245.093 150.06 245.261 150.121 245.391 150.242C245.522 150.354 245.587 150.522 245.587 150.746V159.398C245.587 159.622 245.522 159.79 245.391 159.902C245.261 160.014 245.093 160.07 244.887 160.07ZM250.434 153C251.339 153 252.011 153.229 252.45 153.686C252.898 154.143 253.122 154.839 253.122 155.772V159.398C253.122 159.613 253.061 159.781 252.94 159.902C252.819 160.014 252.651 160.07 252.436 160.07C252.231 160.07 252.067 160.009 251.946 159.888C251.825 159.767 251.764 159.603 251.764 159.398V158.88C251.587 159.272 251.321 159.575 250.966 159.79C250.621 159.995 250.215 160.098 249.748 160.098C249.3 160.098 248.889 160.009 248.516 159.832C248.152 159.645 247.863 159.393 247.648 159.076C247.433 158.759 247.326 158.399 247.326 157.998C247.317 157.494 247.443 157.102 247.704 156.822C247.965 156.533 248.39 156.327 248.978 156.206C249.566 156.075 250.383 156.01 251.428 156.01H251.75V155.604C251.75 155.081 251.643 154.703 251.428 154.47C251.213 154.237 250.868 154.12 250.392 154.12C250.065 154.12 249.757 154.162 249.468 154.246C249.179 154.33 248.861 154.451 248.516 154.61C248.264 154.75 248.087 154.82 247.984 154.82C247.844 154.82 247.727 154.769 247.634 154.666C247.55 154.563 247.508 154.433 247.508 154.274C247.508 154.134 247.545 154.013 247.62 153.91C247.704 153.798 247.835 153.691 248.012 153.588C248.339 153.411 248.721 153.271 249.16 153.168C249.599 153.056 250.023 153 250.434 153ZM250 159.048C250.513 159.048 250.933 158.875 251.26 158.53C251.587 158.175 251.75 157.723 251.75 157.172V156.808H251.498C250.77 156.808 250.21 156.841 249.818 156.906C249.426 156.971 249.146 157.083 248.978 157.242C248.81 157.391 248.726 157.611 248.726 157.9C248.726 158.236 248.847 158.511 249.09 158.726C249.333 158.941 249.636 159.048 250 159.048ZM258.402 158.992C258.608 159.011 258.752 159.067 258.836 159.16C258.93 159.244 258.976 159.365 258.976 159.524C258.976 159.711 258.902 159.855 258.752 159.958C258.612 160.051 258.402 160.089 258.122 160.07L257.744 160.042C256.988 159.986 256.424 159.757 256.05 159.356C255.677 158.945 255.49 158.343 255.49 157.55V154.26H254.65C254.24 154.26 254.034 154.078 254.034 153.714C254.034 153.546 254.086 153.415 254.188 153.322C254.3 153.219 254.454 153.168 254.65 153.168H255.49V151.726C255.49 151.511 255.551 151.343 255.672 151.222C255.803 151.101 255.976 151.04 256.19 151.04C256.405 151.04 256.578 151.101 256.708 151.222C256.839 151.343 256.904 151.511 256.904 151.726V153.168H258.29C258.486 153.168 258.636 153.219 258.738 153.322C258.85 153.415 258.906 153.546 258.906 153.714C258.906 153.891 258.85 154.027 258.738 154.12C258.636 154.213 258.486 154.26 258.29 154.26H256.904V157.648C256.904 158.087 256.993 158.409 257.17 158.614C257.357 158.819 257.637 158.936 258.01 158.964L258.402 158.992ZM263.321 151.208C262.854 151.245 262.509 151.395 262.285 151.656C262.061 151.908 261.949 152.281 261.949 152.776V153.168H263.335C263.531 153.168 263.68 153.219 263.783 153.322C263.895 153.415 263.951 153.546 263.951 153.714C263.951 153.882 263.895 154.017 263.783 154.12C263.68 154.213 263.531 154.26 263.335 154.26H261.949V159.384C261.949 159.608 261.879 159.781 261.739 159.902C261.608 160.014 261.44 160.07 261.235 160.07C261.03 160.07 260.862 160.014 260.731 159.902C260.6 159.781 260.535 159.608 260.535 159.384V154.26H259.695C259.499 154.26 259.345 154.213 259.233 154.12C259.13 154.017 259.079 153.882 259.079 153.714C259.079 153.546 259.13 153.415 259.233 153.322C259.345 153.219 259.499 153.168 259.695 153.168H260.535V152.986C260.535 152.127 260.754 151.455 261.193 150.97C261.632 150.475 262.252 150.2 263.055 150.144L263.419 150.116C263.718 150.097 263.932 150.13 264.063 150.214C264.203 150.298 264.273 150.433 264.273 150.62C264.273 150.947 264.077 151.133 263.685 151.18L263.321 151.208ZM267.786 160.098C267.114 160.098 266.521 159.953 266.008 159.664C265.504 159.375 265.112 158.964 264.832 158.432C264.561 157.891 264.426 157.265 264.426 156.556C264.426 155.837 264.561 155.212 264.832 154.68C265.112 154.139 265.504 153.723 266.008 153.434C266.521 153.145 267.114 153 267.786 153C268.458 153 269.046 153.145 269.55 153.434C270.063 153.723 270.455 154.139 270.726 154.68C271.006 155.212 271.146 155.837 271.146 156.556C271.146 157.265 271.006 157.891 270.726 158.432C270.455 158.964 270.063 159.375 269.55 159.664C269.046 159.953 268.458 160.098 267.786 160.098ZM267.786 158.978C268.411 158.978 268.887 158.773 269.214 158.362C269.55 157.951 269.718 157.349 269.718 156.556C269.718 155.772 269.55 155.175 269.214 154.764C268.878 154.344 268.402 154.134 267.786 154.134C267.17 154.134 266.694 154.344 266.358 154.764C266.022 155.175 265.854 155.772 265.854 156.556C265.854 157.349 266.017 157.951 266.344 158.362C266.68 158.773 267.161 158.978 267.786 158.978ZM276.304 153.028C276.752 153 276.976 153.191 276.976 153.602C276.976 153.807 276.925 153.961 276.822 154.064C276.72 154.167 276.542 154.227 276.29 154.246L275.87 154.288C275.282 154.344 274.844 154.549 274.554 154.904C274.274 155.259 274.134 155.688 274.134 156.192V159.398C274.134 159.622 274.069 159.79 273.938 159.902C273.808 160.014 273.64 160.07 273.434 160.07C273.229 160.07 273.056 160.014 272.916 159.902C272.786 159.79 272.72 159.622 272.72 159.398V153.7C272.72 153.485 272.786 153.322 272.916 153.21C273.056 153.089 273.229 153.028 273.434 153.028C273.621 153.028 273.775 153.089 273.896 153.21C274.027 153.322 274.092 153.481 274.092 153.686V154.358C274.279 153.947 274.55 153.635 274.904 153.42C275.259 153.205 275.66 153.079 276.108 153.042L276.304 153.028ZM285.687 153C287.218 153 287.983 153.919 287.983 155.758V159.398C287.983 159.613 287.918 159.781 287.787 159.902C287.657 160.014 287.484 160.07 287.269 160.07C287.064 160.07 286.896 160.014 286.765 159.902C286.635 159.781 286.569 159.613 286.569 159.398V155.772C286.569 155.203 286.467 154.792 286.261 154.54C286.056 154.279 285.734 154.148 285.295 154.148C284.782 154.148 284.376 154.325 284.077 154.68C283.779 155.025 283.629 155.501 283.629 156.108V159.398C283.629 159.613 283.564 159.781 283.433 159.902C283.303 160.014 283.13 160.07 282.915 160.07C282.71 160.07 282.542 160.014 282.411 159.902C282.281 159.781 282.215 159.613 282.215 159.398V155.772C282.215 155.203 282.113 154.792 281.907 154.54C281.702 154.279 281.38 154.148 280.941 154.148C280.428 154.148 280.017 154.325 279.709 154.68C279.411 155.025 279.261 155.501 279.261 156.108V159.398C279.261 159.613 279.196 159.781 279.065 159.902C278.935 160.014 278.767 160.07 278.561 160.07C278.356 160.07 278.183 160.014 278.043 159.902C277.913 159.781 277.847 159.613 277.847 159.398V153.7C277.847 153.495 277.917 153.331 278.057 153.21C278.197 153.089 278.365 153.028 278.561 153.028C278.757 153.028 278.916 153.089 279.037 153.21C279.168 153.322 279.233 153.481 279.233 153.686V154.204C279.439 153.812 279.723 153.513 280.087 153.308C280.451 153.103 280.871 153 281.347 153C281.87 153 282.299 153.107 282.635 153.322C282.981 153.537 283.237 153.868 283.405 154.316C283.611 153.915 283.914 153.597 284.315 153.364C284.717 153.121 285.174 153 285.687 153Z" fill="black"/>
<path d="M275.98 102.325L273.145 101.38L274.48 98.71C274.615 98.4305 274.661 98.116 274.61 97.8097C274.559 97.5034 274.414 97.2205 274.195 97L271 93.805C270.778 93.5831 270.493 93.4363 270.183 93.3852C269.874 93.3341 269.556 93.3812 269.275 93.52L266.605 94.855L265.66 92.02C265.56 91.7245 265.371 91.4674 265.118 91.2846C264.865 91.1018 264.562 91.0023 264.25 91H259.75C259.436 90.9992 259.129 91.0972 258.873 91.2803C258.617 91.4633 258.426 91.7221 258.325 92.02L257.38 94.855L254.71 93.52C254.431 93.3847 254.116 93.3394 253.81 93.3905C253.503 93.4415 253.22 93.5864 253 93.805L249.805 97C249.583 97.2217 249.436 97.5073 249.385 97.8167C249.334 98.1261 249.381 98.4438 249.52 98.725L250.855 101.395L248.02 102.34C247.724 102.44 247.467 102.629 247.285 102.882C247.102 103.135 247.002 103.438 247 103.75V108.25C246.999 108.564 247.097 108.871 247.28 109.127C247.463 109.383 247.722 109.574 248.02 109.675L250.855 110.62L249.52 113.29C249.385 113.569 249.339 113.884 249.39 114.19C249.442 114.497 249.586 114.78 249.805 115L253 118.195C253.222 118.417 253.507 118.564 253.817 118.615C254.126 118.666 254.444 118.619 254.725 118.48L257.395 117.145L258.34 119.98C258.441 120.278 258.632 120.537 258.888 120.72C259.144 120.903 259.451 121.001 259.765 121H264.265C264.579 121.001 264.886 120.903 265.142 120.72C265.398 120.537 265.589 120.278 265.69 119.98L266.635 117.145L269.305 118.48C269.583 118.612 269.894 118.655 270.197 118.604C270.501 118.553 270.781 118.41 271 118.195L274.195 115C274.417 114.778 274.564 114.493 274.615 114.183C274.666 113.874 274.619 113.556 274.48 113.275L273.145 110.605L275.98 109.66C276.276 109.56 276.533 109.371 276.715 109.118C276.898 108.865 276.998 108.562 277 108.25V103.75C277.001 103.436 276.903 103.129 276.72 102.873C276.537 102.617 276.278 102.426 275.98 102.325ZM274 107.17L272.2 107.77C271.786 107.904 271.406 108.127 271.087 108.423C270.768 108.718 270.517 109.08 270.351 109.482C270.186 109.885 270.11 110.318 270.128 110.753C270.147 111.188 270.26 111.613 270.46 112L271.315 113.71L269.665 115.36L268 114.46C267.615 114.268 267.194 114.162 266.764 114.147C266.335 114.132 265.907 114.21 265.51 114.375C265.114 114.54 264.757 114.788 264.464 115.103C264.172 115.418 263.95 115.792 263.815 116.2L263.215 118H260.83L260.23 116.2C260.096 115.786 259.873 115.406 259.577 115.087C259.282 114.768 258.92 114.517 258.518 114.351C258.115 114.186 257.682 114.11 257.247 114.128C256.812 114.147 256.387 114.26 256 114.46L254.29 115.315L252.64 113.665L253.54 112C253.74 111.613 253.853 111.188 253.872 110.753C253.89 110.318 253.814 109.885 253.649 109.482C253.483 109.08 253.232 108.718 252.913 108.423C252.594 108.127 252.214 107.904 251.8 107.77L250 107.17V104.83L251.8 104.23C252.214 104.096 252.594 103.873 252.913 103.577C253.232 103.282 253.483 102.92 253.649 102.518C253.814 102.115 253.89 101.682 253.872 101.247C253.853 100.812 253.74 100.387 253.54 100L252.685 98.335L254.335 96.685L256 97.54C256.387 97.7396 256.812 97.8528 257.247 97.8716C257.682 97.8904 258.115 97.8144 258.518 97.6488C258.92 97.4833 259.282 97.2322 259.577 96.9129C259.873 96.5937 260.096 96.2139 260.23 95.8L260.83 94H263.17L263.77 95.8C263.904 96.2139 264.127 96.5937 264.423 96.9129C264.718 97.2322 265.08 97.4833 265.482 97.6488C265.885 97.8144 266.318 97.8904 266.753 97.8716C267.188 97.8528 267.613 97.7396 268 97.54L269.71 96.685L271.36 98.335L270.46 100C270.268 100.385 270.162 100.806 270.147 101.236C270.132 101.665 270.21 102.093 270.375 102.49C270.54 102.886 270.788 103.243 271.103 103.536C271.418 103.828 271.792 104.05 272.2 104.185L274 104.785V107.17ZM262 100C260.813 100 259.653 100.352 258.667 101.011C257.68 101.67 256.911 102.608 256.457 103.704C256.003 104.8 255.884 106.007 256.115 107.171C256.347 108.334 256.918 109.404 257.757 110.243C258.596 111.082 259.666 111.653 260.829 111.885C261.993 112.116 263.2 111.997 264.296 111.543C265.392 111.089 266.33 110.32 266.989 109.333C267.648 108.347 268 107.187 268 106C268 104.409 267.368 102.883 266.243 101.757C265.117 100.632 263.591 100 262 100V100ZM262 109C261.407 109 260.827 108.824 260.333 108.494C259.84 108.165 259.455 107.696 259.228 107.148C259.001 106.6 258.942 105.997 259.058 105.415C259.173 104.833 259.459 104.298 259.879 103.879C260.298 103.459 260.833 103.173 261.415 103.058C261.997 102.942 262.6 103.001 263.148 103.228C263.696 103.455 264.165 103.84 264.494 104.333C264.824 104.827 265 105.407 265 106C265 106.796 264.684 107.559 264.121 108.121C263.559 108.684 262.796 109 262 109Z" fill="#0CAD42"/>
<path d="M46.4726 138.918C47.042 139.077 47.4806 139.361 47.7886 139.772C48.106 140.183 48.2646 140.696 48.2646 141.312C48.2646 142.161 47.9706 142.824 47.3826 143.3C46.804 143.767 45.992 144 44.9466 144H41.3766C41.1526 144 40.9753 143.939 40.8446 143.818C40.7233 143.687 40.6626 143.515 40.6626 143.3V134.83C40.6626 134.615 40.7233 134.447 40.8446 134.326C40.9753 134.195 41.1526 134.13 41.3766 134.13H44.7926C45.81 134.13 46.6033 134.359 47.1726 134.816C47.7513 135.264 48.0406 135.894 48.0406 136.706C48.0406 137.229 47.9006 137.681 47.6206 138.064C47.35 138.447 46.9673 138.731 46.4726 138.918ZM42.0766 138.4H44.5686C45.95 138.4 46.6406 137.877 46.6406 136.832C46.6406 136.309 46.468 135.922 46.1226 135.67C45.7866 135.418 45.2686 135.292 44.5686 135.292H42.0766V138.4ZM44.7926 142.838C45.5113 142.838 46.0386 142.707 46.3746 142.446C46.7106 142.185 46.8786 141.779 46.8786 141.228C46.8786 140.668 46.706 140.253 46.3606 139.982C46.0246 139.702 45.502 139.562 44.7926 139.562H42.0766V142.838H44.7926ZM52.8529 137C53.7583 137 54.4303 137.229 54.8689 137.686C55.3169 138.143 55.5409 138.839 55.5409 139.772V143.398C55.5409 143.613 55.4803 143.781 55.3589 143.902C55.2376 144.014 55.0696 144.07 54.8549 144.07C54.6496 144.07 54.4863 144.009 54.3649 143.888C54.2436 143.767 54.1829 143.603 54.1829 143.398V142.88C54.0056 143.272 53.7396 143.575 53.3849 143.79C53.0396 143.995 52.6336 144.098 52.1669 144.098C51.7189 144.098 51.3083 144.009 50.9349 143.832C50.5709 143.645 50.2816 143.393 50.0669 143.076C49.8523 142.759 49.7449 142.399 49.7449 141.998C49.7356 141.494 49.8616 141.102 50.1229 140.822C50.3843 140.533 50.8089 140.327 51.3969 140.206C51.9849 140.075 52.8016 140.01 53.8469 140.01H54.1689V139.604C54.1689 139.081 54.0616 138.703 53.8469 138.47C53.6323 138.237 53.2869 138.12 52.8109 138.12C52.4843 138.12 52.1763 138.162 51.8869 138.246C51.5976 138.33 51.2803 138.451 50.9349 138.61C50.6829 138.75 50.5056 138.82 50.4029 138.82C50.2629 138.82 50.1463 138.769 50.0529 138.666C49.9689 138.563 49.9269 138.433 49.9269 138.274C49.9269 138.134 49.9643 138.013 50.0389 137.91C50.1229 137.798 50.2536 137.691 50.4309 137.588C50.7576 137.411 51.1403 137.271 51.5789 137.168C52.0176 137.056 52.4423 137 52.8529 137ZM52.4189 143.048C52.9323 143.048 53.3523 142.875 53.6789 142.53C54.0056 142.175 54.1689 141.723 54.1689 141.172V140.808H53.9169C53.1889 140.808 52.6289 140.841 52.2369 140.906C51.8449 140.971 51.5649 141.083 51.3969 141.242C51.2289 141.391 51.1449 141.611 51.1449 141.9C51.1449 142.236 51.2663 142.511 51.5089 142.726C51.7516 142.941 52.0549 143.048 52.4189 143.048ZM61.1571 137C62.7905 137 63.6071 137.919 63.6071 139.758V143.398C63.6071 143.613 63.5418 143.781 63.4111 143.902C63.2898 144.014 63.1171 144.07 62.8931 144.07C62.6785 144.07 62.5058 144.009 62.3751 143.888C62.2538 143.767 62.1931 143.603 62.1931 143.398V139.828C62.1931 139.249 62.0765 138.825 61.8431 138.554C61.6191 138.283 61.2645 138.148 60.7791 138.148C60.2098 138.148 59.7525 138.325 59.4071 138.68C59.0618 139.035 58.8891 139.511 58.8891 140.108V143.398C58.8891 143.603 58.8238 143.767 58.6931 143.888C58.5718 144.009 58.4038 144.07 58.1891 144.07C57.9745 144.07 57.8018 144.009 57.6711 143.888C57.5405 143.767 57.4751 143.603 57.4751 143.398V137.7C57.4751 137.504 57.5405 137.345 57.6711 137.224C57.8111 137.093 57.9838 137.028 58.1891 137.028C58.3945 137.028 58.5578 137.089 58.6791 137.21C58.8005 137.331 58.8611 137.49 58.8611 137.686V138.26C59.0851 137.849 59.3978 137.537 59.7991 137.322C60.2005 137.107 60.6531 137 61.1571 137ZM71.2815 142.894C71.4495 143.034 71.5335 143.207 71.5335 143.412C71.5335 143.589 71.4729 143.743 71.3515 143.874C71.2302 144.005 71.0855 144.07 70.9175 144.07C70.7402 144.07 70.5815 144.005 70.4415 143.874L66.9555 140.794V143.384C66.9555 143.608 66.8902 143.781 66.7595 143.902C66.6289 144.014 66.4609 144.07 66.2555 144.07C66.0502 144.07 65.8775 144.014 65.7375 143.902C65.6069 143.781 65.5415 143.608 65.5415 143.384V134.746C65.5415 134.522 65.6069 134.354 65.7375 134.242C65.8775 134.121 66.0502 134.06 66.2555 134.06C66.4609 134.06 66.6289 134.121 66.7595 134.242C66.8902 134.354 66.9555 134.522 66.9555 134.746V140.234L70.1475 137.252C70.3062 137.112 70.4602 137.042 70.6095 137.042C70.7869 137.042 70.9409 137.107 71.0715 137.238C71.2022 137.369 71.2675 137.523 71.2675 137.7C71.2675 137.877 71.1882 138.041 71.0295 138.19L68.5375 140.472L71.2815 142.894ZM38.8356 160.112C37.893 160.112 37.0716 159.911 36.3716 159.51C35.6716 159.099 35.135 158.516 34.7616 157.76C34.3883 156.995 34.2016 156.094 34.2016 155.058C34.2016 154.031 34.3883 153.14 34.7616 152.384C35.135 151.619 35.6716 151.035 36.3716 150.634C37.0716 150.223 37.893 150.018 38.8356 150.018C39.4516 150.018 40.035 150.116 40.5856 150.312C41.1363 150.499 41.617 150.774 42.0276 151.138C42.205 151.278 42.2936 151.465 42.2936 151.698C42.2936 151.866 42.247 152.011 42.1536 152.132C42.0603 152.244 41.9483 152.3 41.8176 152.3C41.659 152.3 41.505 152.239 41.3556 152.118C40.9076 151.782 40.497 151.549 40.1236 151.418C39.7596 151.278 39.3443 151.208 38.8776 151.208C37.851 151.208 37.0623 151.539 36.5116 152.202C35.961 152.865 35.6856 153.817 35.6856 155.058C35.6856 156.309 35.961 157.265 36.5116 157.928C37.0623 158.591 37.851 158.922 38.8776 158.922C39.3256 158.922 39.7316 158.852 40.0956 158.712C40.469 158.572 40.889 158.339 41.3556 158.012C41.5423 157.891 41.6963 157.83 41.8176 157.83C41.9483 157.83 42.0603 157.891 42.1536 158.012C42.247 158.124 42.2936 158.264 42.2936 158.432C42.2936 158.665 42.205 158.852 42.0276 158.992C41.617 159.356 41.1363 159.636 40.5856 159.832C40.035 160.019 39.4516 160.112 38.8356 160.112ZM47.5403 153C49.1643 153 49.9763 153.919 49.9763 155.758V159.398C49.9763 159.603 49.9109 159.767 49.7803 159.888C49.6496 160.009 49.4769 160.07 49.2623 160.07C49.0476 160.07 48.8749 160.009 48.7443 159.888C48.6229 159.767 48.5623 159.603 48.5623 159.398V155.772C48.5623 155.212 48.4456 154.801 48.2123 154.54C47.9883 154.279 47.6336 154.148 47.1483 154.148C46.5789 154.148 46.1216 154.325 45.7763 154.68C45.4309 155.035 45.2583 155.511 45.2583 156.108V159.398C45.2583 159.603 45.1929 159.767 45.0623 159.888C44.9409 160.009 44.7729 160.07 44.5583 160.07C44.3436 160.07 44.1709 160.009 44.0403 159.888C43.9096 159.767 43.8443 159.603 43.8443 159.398V150.732C43.8443 150.527 43.9096 150.363 44.0403 150.242C44.1803 150.121 44.3576 150.06 44.5723 150.06C44.7776 150.06 44.9409 150.121 45.0623 150.242C45.1929 150.354 45.2583 150.508 45.2583 150.704V154.204C45.4916 153.812 45.8043 153.513 46.1963 153.308C46.5883 153.103 47.0363 153 47.5403 153ZM54.7807 153C55.686 153 56.358 153.229 56.7967 153.686C57.2447 154.143 57.4687 154.839 57.4687 155.772V159.398C57.4687 159.613 57.408 159.781 57.2867 159.902C57.1653 160.014 56.9973 160.07 56.7827 160.07C56.5773 160.07 56.414 160.009 56.2927 159.888C56.1713 159.767 56.1107 159.603 56.1107 159.398V158.88C55.9333 159.272 55.6673 159.575 55.3127 159.79C54.9673 159.995 54.5613 160.098 54.0947 160.098C53.6467 160.098 53.236 160.009 52.8627 159.832C52.4987 159.645 52.2093 159.393 51.9947 159.076C51.78 158.759 51.6727 158.399 51.6727 157.998C51.6633 157.494 51.7893 157.102 52.0507 156.822C52.312 156.533 52.7367 156.327 53.3247 156.206C53.9127 156.075 54.7293 156.01 55.7747 156.01H56.0967V155.604C56.0967 155.081 55.9893 154.703 55.7747 154.47C55.56 154.237 55.2147 154.12 54.7387 154.12C54.412 154.12 54.104 154.162 53.8147 154.246C53.5253 154.33 53.208 154.451 52.8627 154.61C52.6107 154.75 52.4333 154.82 52.3307 154.82C52.1907 154.82 52.074 154.769 51.9807 154.666C51.8967 154.563 51.8547 154.433 51.8547 154.274C51.8547 154.134 51.892 154.013 51.9667 153.91C52.0507 153.798 52.1813 153.691 52.3587 153.588C52.6853 153.411 53.068 153.271 53.5067 153.168C53.9453 153.056 54.37 153 54.7807 153ZM54.3467 159.048C54.86 159.048 55.28 158.875 55.6067 158.53C55.9333 158.175 56.0967 157.723 56.0967 157.172V156.808H55.8447C55.1167 156.808 54.5567 156.841 54.1647 156.906C53.7727 156.971 53.4927 157.083 53.3247 157.242C53.1567 157.391 53.0727 157.611 53.0727 157.9C53.0727 158.236 53.194 158.511 53.4367 158.726C53.6793 158.941 53.9827 159.048 54.3467 159.048ZM62.9869 153.028C63.4349 153 63.6589 153.191 63.6589 153.602C63.6589 153.807 63.6075 153.961 63.5049 154.064C63.4022 154.167 63.2249 154.227 62.9729 154.246L62.5529 154.288C61.9649 154.344 61.5262 154.549 61.2369 154.904C60.9569 155.259 60.8169 155.688 60.8169 156.192V159.398C60.8169 159.622 60.7515 159.79 60.6209 159.902C60.4902 160.014 60.3222 160.07 60.1169 160.07C59.9115 160.07 59.7389 160.014 59.5989 159.902C59.4682 159.79 59.4029 159.622 59.4029 159.398V153.7C59.4029 153.485 59.4682 153.322 59.5989 153.21C59.7389 153.089 59.9115 153.028 60.1169 153.028C60.3035 153.028 60.4575 153.089 60.5789 153.21C60.7095 153.322 60.7749 153.481 60.7749 153.686V154.358C60.9615 153.947 61.2322 153.635 61.5869 153.42C61.9415 153.205 62.3429 153.079 62.7909 153.042L62.9869 153.028ZM68.4637 158.992C68.669 159.011 68.8137 159.067 68.8977 159.16C68.991 159.244 69.0377 159.365 69.0377 159.524C69.0377 159.711 68.963 159.855 68.8137 159.958C68.6737 160.051 68.4637 160.089 68.1837 160.07L67.8057 160.042C67.0497 159.986 66.485 159.757 66.1117 159.356C65.7384 158.945 65.5517 158.343 65.5517 157.55V154.26H64.7117C64.301 154.26 64.0957 154.078 64.0957 153.714C64.0957 153.546 64.147 153.415 64.2497 153.322C64.3617 153.219 64.5157 153.168 64.7117 153.168H65.5517V151.726C65.5517 151.511 65.6124 151.343 65.7337 151.222C65.8644 151.101 66.037 151.04 66.2517 151.04C66.4664 151.04 66.639 151.101 66.7697 151.222C66.9004 151.343 66.9657 151.511 66.9657 151.726V153.168H68.3517C68.5477 153.168 68.697 153.219 68.7997 153.322C68.9117 153.415 68.9677 153.546 68.9677 153.714C68.9677 153.891 68.9117 154.027 68.7997 154.12C68.697 154.213 68.5477 154.26 68.3517 154.26H66.9657V157.648C66.9657 158.087 67.0544 158.409 67.2317 158.614C67.4184 158.819 67.6984 158.936 68.0717 158.964L68.4637 158.992ZM75.4012 158.278C75.5319 158.278 75.6392 158.329 75.7232 158.432C75.8072 158.535 75.8492 158.665 75.8492 158.824C75.8492 159.095 75.6812 159.323 75.3452 159.51C75.0186 159.697 74.6592 159.841 74.2672 159.944C73.8846 160.047 73.5159 160.098 73.1612 160.098C72.0786 160.098 71.2246 159.785 70.5992 159.16C69.9739 158.525 69.6612 157.662 69.6612 156.57C69.6612 155.87 69.7966 155.249 70.0672 154.708C70.3472 154.167 70.7346 153.747 71.2292 153.448C71.7332 153.149 72.3026 153 72.9372 153C73.8519 153 74.5752 153.294 75.1072 153.882C75.6392 154.47 75.9052 155.263 75.9052 156.262C75.9052 156.635 75.7372 156.822 75.4012 156.822H71.0752C71.1686 158.269 71.8639 158.992 73.1612 158.992C73.5066 158.992 73.8052 158.945 74.0572 158.852C74.3092 158.759 74.5752 158.637 74.8552 158.488C74.8832 158.469 74.9579 158.432 75.0792 158.376C75.2099 158.311 75.3172 158.278 75.4012 158.278ZM72.9652 154.036C72.4239 154.036 71.9899 154.209 71.6632 154.554C71.3366 154.899 71.1406 155.385 71.0752 156.01H74.6872C74.6592 155.375 74.4959 154.89 74.1972 154.554C73.9079 154.209 73.4972 154.036 72.9652 154.036ZM81.0474 153.028C81.4954 153 81.7194 153.191 81.7194 153.602C81.7194 153.807 81.6681 153.961 81.5654 154.064C81.4627 154.167 81.2854 154.227 81.0334 154.246L80.6134 154.288C80.0254 154.344 79.5867 154.549 79.2974 154.904C79.0174 155.259 78.8774 155.688 78.8774 156.192V159.398C78.8774 159.622 78.8121 159.79 78.6814 159.902C78.5507 160.014 78.3827 160.07 78.1774 160.07C77.9721 160.07 77.7994 160.014 77.6594 159.902C77.5287 159.79 77.4634 159.622 77.4634 159.398V153.7C77.4634 153.485 77.5287 153.322 77.6594 153.21C77.7994 153.089 77.9721 153.028 78.1774 153.028C78.3641 153.028 78.5181 153.089 78.6394 153.21C78.7701 153.322 78.8354 153.481 78.8354 153.686V154.358C79.0221 153.947 79.2927 153.635 79.6474 153.42C80.0021 153.205 80.4034 153.079 80.8514 153.042L81.0474 153.028Z" fill="black"/>
<path d="M153.24 143.104C153.324 143.225 153.366 143.356 153.366 143.496C153.366 143.664 153.296 143.809 153.156 143.93C153.025 144.042 152.871 144.098 152.694 144.098C152.432 144.098 152.222 143.981 152.064 143.748L150.188 140.836C149.973 140.5 149.744 140.267 149.502 140.136C149.259 139.996 148.942 139.926 148.55 139.926H146.968V143.342C146.968 143.566 146.902 143.743 146.772 143.874C146.65 144.005 146.478 144.07 146.254 144.07C146.039 144.07 145.866 144.005 145.736 143.874C145.605 143.743 145.54 143.566 145.54 143.342V134.83C145.54 134.615 145.6 134.447 145.722 134.326C145.852 134.195 146.03 134.13 146.254 134.13H149.74C150.832 134.13 151.662 134.373 152.232 134.858C152.81 135.343 153.1 136.053 153.1 136.986C153.1 137.761 152.88 138.391 152.442 138.876C152.003 139.352 151.378 139.655 150.566 139.786C150.808 139.851 151.028 139.968 151.224 140.136C151.42 140.304 151.611 140.537 151.798 140.836L153.24 143.104ZM149.572 138.764C150.3 138.764 150.836 138.624 151.182 138.344C151.536 138.055 151.714 137.611 151.714 137.014C151.714 136.417 151.541 135.983 151.196 135.712C150.85 135.432 150.309 135.292 149.572 135.292H146.954V138.764H149.572ZM160.386 142.278C160.516 142.278 160.624 142.329 160.708 142.432C160.792 142.535 160.834 142.665 160.834 142.824C160.834 143.095 160.666 143.323 160.33 143.51C160.003 143.697 159.644 143.841 159.252 143.944C158.869 144.047 158.5 144.098 158.146 144.098C157.063 144.098 156.209 143.785 155.584 143.16C154.958 142.525 154.646 141.662 154.646 140.57C154.646 139.87 154.781 139.249 155.052 138.708C155.332 138.167 155.719 137.747 156.214 137.448C156.718 137.149 157.287 137 157.922 137C158.836 137 159.56 137.294 160.092 137.882C160.624 138.47 160.89 139.263 160.89 140.262C160.89 140.635 160.722 140.822 160.386 140.822H156.06C156.153 142.269 156.848 142.992 158.146 142.992C158.491 142.992 158.79 142.945 159.042 142.852C159.294 142.759 159.56 142.637 159.84 142.488C159.868 142.469 159.942 142.432 160.064 142.376C160.194 142.311 160.302 142.278 160.386 142.278ZM157.95 138.036C157.408 138.036 156.974 138.209 156.648 138.554C156.321 138.899 156.125 139.385 156.06 140.01H159.672C159.644 139.375 159.48 138.89 159.182 138.554C158.892 138.209 158.482 138.036 157.95 138.036ZM165.725 142.992C165.931 143.011 166.075 143.067 166.159 143.16C166.253 143.244 166.299 143.365 166.299 143.524C166.299 143.711 166.225 143.855 166.075 143.958C165.935 144.051 165.725 144.089 165.445 144.07L165.067 144.042C164.311 143.986 163.747 143.757 163.373 143.356C163 142.945 162.813 142.343 162.813 141.55V138.26H161.973C161.563 138.26 161.357 138.078 161.357 137.714C161.357 137.546 161.409 137.415 161.511 137.322C161.623 137.219 161.777 137.168 161.973 137.168H162.813V135.726C162.813 135.511 162.874 135.343 162.995 135.222C163.126 135.101 163.299 135.04 163.513 135.04C163.728 135.04 163.901 135.101 164.031 135.222C164.162 135.343 164.227 135.511 164.227 135.726V137.168H165.613C165.809 137.168 165.959 137.219 166.061 137.322C166.173 137.415 166.229 137.546 166.229 137.714C166.229 137.891 166.173 138.027 166.061 138.12C165.959 138.213 165.809 138.26 165.613 138.26H164.227V141.648C164.227 142.087 164.316 142.409 164.493 142.614C164.68 142.819 164.96 142.936 165.333 142.964L165.725 142.992ZM170.185 137C171.09 137 171.762 137.229 172.201 137.686C172.649 138.143 172.873 138.839 172.873 139.772V143.398C172.873 143.613 172.812 143.781 172.691 143.902C172.57 144.014 172.402 144.07 172.187 144.07C171.982 144.07 171.818 144.009 171.697 143.888C171.576 143.767 171.515 143.603 171.515 143.398V142.88C171.338 143.272 171.072 143.575 170.717 143.79C170.372 143.995 169.966 144.098 169.499 144.098C169.051 144.098 168.64 144.009 168.267 143.832C167.903 143.645 167.614 143.393 167.399 143.076C167.184 142.759 167.077 142.399 167.077 141.998C167.068 141.494 167.194 141.102 167.455 140.822C167.716 140.533 168.141 140.327 168.729 140.206C169.317 140.075 170.134 140.01 171.179 140.01H171.501V139.604C171.501 139.081 171.394 138.703 171.179 138.47C170.964 138.237 170.619 138.12 170.143 138.12C169.816 138.12 169.508 138.162 169.219 138.246C168.93 138.33 168.612 138.451 168.267 138.61C168.015 138.75 167.838 138.82 167.735 138.82C167.595 138.82 167.478 138.769 167.385 138.666C167.301 138.563 167.259 138.433 167.259 138.274C167.259 138.134 167.296 138.013 167.371 137.91C167.455 137.798 167.586 137.691 167.763 137.588C168.09 137.411 168.472 137.271 168.911 137.168C169.35 137.056 169.774 137 170.185 137ZM169.751 143.048C170.264 143.048 170.684 142.875 171.011 142.53C171.338 142.175 171.501 141.723 171.501 141.172V140.808H171.249C170.521 140.808 169.961 140.841 169.569 140.906C169.177 140.971 168.897 141.083 168.729 141.242C168.561 141.391 168.477 141.611 168.477 141.9C168.477 142.236 168.598 142.511 168.841 142.726C169.084 142.941 169.387 143.048 169.751 143.048ZM175.521 144.07C175.316 144.07 175.143 144.014 175.003 143.902C174.872 143.79 174.807 143.622 174.807 143.398V137.714C174.807 137.49 174.872 137.322 175.003 137.21C175.143 137.089 175.316 137.028 175.521 137.028C175.726 137.028 175.894 137.089 176.025 137.21C176.156 137.322 176.221 137.49 176.221 137.714V143.398C176.221 143.622 176.156 143.79 176.025 143.902C175.894 144.014 175.726 144.07 175.521 144.07ZM175.521 135.656C175.25 135.656 175.036 135.581 174.877 135.432C174.718 135.283 174.639 135.087 174.639 134.844C174.639 134.601 174.718 134.41 174.877 134.27C175.036 134.121 175.25 134.046 175.521 134.046C175.782 134.046 175.992 134.121 176.151 134.27C176.319 134.41 176.403 134.601 176.403 134.844C176.403 135.087 176.324 135.283 176.165 135.432C176.006 135.581 175.792 135.656 175.521 135.656ZM178.912 144.07C178.706 144.07 178.534 144.014 178.394 143.902C178.263 143.79 178.198 143.622 178.198 143.398V134.746C178.198 134.522 178.263 134.354 178.394 134.242C178.534 134.121 178.706 134.06 178.912 134.06C179.117 134.06 179.285 134.121 179.416 134.242C179.546 134.354 179.612 134.522 179.612 134.746V143.398C179.612 143.622 179.546 143.79 179.416 143.902C179.285 144.014 179.117 144.07 178.912 144.07ZM143.663 150.06C143.868 150.06 144.031 150.13 144.153 150.27C144.283 150.401 144.349 150.573 144.349 150.788V159.342C144.349 159.557 144.283 159.734 144.153 159.874C144.022 160.005 143.854 160.07 143.649 160.07C143.406 160.07 143.219 159.977 143.089 159.79L137.601 152.552V159.342C137.601 159.557 137.535 159.734 137.405 159.874C137.283 160.005 137.12 160.07 136.915 160.07C136.709 160.07 136.546 160.005 136.425 159.874C136.303 159.743 136.243 159.566 136.243 159.342V150.788C136.243 150.573 136.308 150.401 136.439 150.27C136.569 150.13 136.737 150.06 136.943 150.06C137.185 150.06 137.372 150.153 137.503 150.34L142.991 157.592V150.788C142.991 150.573 143.051 150.401 143.173 150.27C143.294 150.13 143.457 150.06 143.663 150.06ZM151.827 158.278C151.958 158.278 152.065 158.329 152.149 158.432C152.233 158.535 152.275 158.665 152.275 158.824C152.275 159.095 152.107 159.323 151.771 159.51C151.444 159.697 151.085 159.841 150.693 159.944C150.31 160.047 149.942 160.098 149.587 160.098C148.504 160.098 147.65 159.785 147.025 159.16C146.4 158.525 146.087 157.662 146.087 156.57C146.087 155.87 146.222 155.249 146.493 154.708C146.773 154.167 147.16 153.747 147.655 153.448C148.159 153.149 148.728 153 149.363 153C150.278 153 151.001 153.294 151.533 153.882C152.065 154.47 152.331 155.263 152.331 156.262C152.331 156.635 152.163 156.822 151.827 156.822H147.501C147.594 158.269 148.29 158.992 149.587 158.992C149.932 158.992 150.231 158.945 150.483 158.852C150.735 158.759 151.001 158.637 151.281 158.488C151.309 158.469 151.384 158.432 151.505 158.376C151.636 158.311 151.743 158.278 151.827 158.278ZM149.391 154.036C148.85 154.036 148.416 154.209 148.089 154.554C147.762 154.899 147.566 155.385 147.501 156.01H151.113C151.085 155.375 150.922 154.89 150.623 154.554C150.334 154.209 149.923 154.036 149.391 154.036ZM157.167 158.992C157.372 159.011 157.517 159.067 157.601 159.16C157.694 159.244 157.741 159.365 157.741 159.524C157.741 159.711 157.666 159.855 157.517 159.958C157.377 160.051 157.167 160.089 156.887 160.07L156.509 160.042C155.753 159.986 155.188 159.757 154.815 159.356C154.441 158.945 154.255 158.343 154.255 157.55V154.26H153.415C153.004 154.26 152.799 154.078 152.799 153.714C152.799 153.546 152.85 153.415 152.953 153.322C153.065 153.219 153.219 153.168 153.415 153.168H154.255V151.726C154.255 151.511 154.315 151.343 154.437 151.222C154.567 151.101 154.74 151.04 154.955 151.04C155.169 151.04 155.342 151.101 155.473 151.222C155.603 151.343 155.669 151.511 155.669 151.726V153.168H157.055C157.251 153.168 157.4 153.219 157.503 153.322C157.615 153.415 157.671 153.546 157.671 153.714C157.671 153.891 157.615 154.027 157.503 154.12C157.4 154.213 157.251 154.26 157.055 154.26H155.669V157.648C155.669 158.087 155.757 158.409 155.935 158.614C156.121 158.819 156.401 158.936 156.775 158.964L157.167 158.992ZM168.148 153.462C168.251 153.182 168.442 153.042 168.722 153.042C168.899 153.042 169.058 153.103 169.198 153.224C169.338 153.345 169.408 153.495 169.408 153.672C169.408 153.765 169.389 153.849 169.352 153.924L167.028 159.594C166.972 159.743 166.879 159.86 166.748 159.944C166.617 160.019 166.473 160.056 166.314 160.056C166.165 160.056 166.025 160.019 165.894 159.944C165.763 159.86 165.67 159.743 165.614 159.594L163.794 155.1L162.016 159.594C161.96 159.743 161.867 159.86 161.736 159.944C161.615 160.019 161.475 160.056 161.316 160.056C161.167 160.056 161.022 160.019 160.882 159.944C160.751 159.86 160.653 159.743 160.588 159.594L158.278 153.924C158.241 153.849 158.222 153.77 158.222 153.686C158.222 153.499 158.297 153.345 158.446 153.224C158.605 153.103 158.777 153.042 158.964 153.042C159.244 153.042 159.435 153.177 159.538 153.448L161.344 158.222L163.192 153.49C163.248 153.341 163.337 153.229 163.458 153.154C163.579 153.079 163.71 153.042 163.85 153.042C163.981 153.042 164.107 153.079 164.228 153.154C164.349 153.229 164.438 153.341 164.494 153.49L166.342 158.194L168.148 153.462ZM173.592 160.098C172.92 160.098 172.327 159.953 171.814 159.664C171.31 159.375 170.918 158.964 170.638 158.432C170.367 157.891 170.232 157.265 170.232 156.556C170.232 155.837 170.367 155.212 170.638 154.68C170.918 154.139 171.31 153.723 171.814 153.434C172.327 153.145 172.92 153 173.592 153C174.264 153 174.852 153.145 175.356 153.434C175.869 153.723 176.261 154.139 176.532 154.68C176.812 155.212 176.952 155.837 176.952 156.556C176.952 157.265 176.812 157.891 176.532 158.432C176.261 158.964 175.869 159.375 175.356 159.664C174.852 159.953 174.264 160.098 173.592 160.098ZM173.592 158.978C174.217 158.978 174.693 158.773 175.02 158.362C175.356 157.951 175.524 157.349 175.524 156.556C175.524 155.772 175.356 155.175 175.02 154.764C174.684 154.344 174.208 154.134 173.592 154.134C172.976 154.134 172.5 154.344 172.164 154.764C171.828 155.175 171.66 155.772 171.66 156.556C171.66 157.349 171.823 157.951 172.15 158.362C172.486 158.773 172.966 158.978 173.592 158.978ZM182.11 153.028C182.558 153 182.782 153.191 182.782 153.602C182.782 153.807 182.731 153.961 182.628 154.064C182.525 154.167 182.348 154.227 182.096 154.246L181.676 154.288C181.088 154.344 180.649 154.549 180.36 154.904C180.08 155.259 179.94 155.688 179.94 156.192V159.398C179.94 159.622 179.875 159.79 179.744 159.902C179.613 160.014 179.445 160.07 179.24 160.07C179.035 160.07 178.862 160.014 178.722 159.902C178.591 159.79 178.526 159.622 178.526 159.398V153.7C178.526 153.485 178.591 153.322 178.722 153.21C178.862 153.089 179.035 153.028 179.24 153.028C179.427 153.028 179.581 153.089 179.702 153.21C179.833 153.322 179.898 153.481 179.898 153.686V154.358C180.085 153.947 180.355 153.635 180.71 153.42C181.065 153.205 181.466 153.079 181.914 153.042L182.11 153.028ZM189.393 158.894C189.561 159.034 189.645 159.207 189.645 159.412C189.645 159.589 189.584 159.743 189.463 159.874C189.342 160.005 189.197 160.07 189.029 160.07C188.852 160.07 188.693 160.005 188.553 159.874L185.067 156.794V159.384C185.067 159.608 185.002 159.781 184.871 159.902C184.74 160.014 184.572 160.07 184.367 160.07C184.162 160.07 183.989 160.014 183.849 159.902C183.718 159.781 183.653 159.608 183.653 159.384V150.746C183.653 150.522 183.718 150.354 183.849 150.242C183.989 150.121 184.162 150.06 184.367 150.06C184.572 150.06 184.74 150.121 184.871 150.242C185.002 150.354 185.067 150.522 185.067 150.746V156.234L188.259 153.252C188.418 153.112 188.572 153.042 188.721 153.042C188.898 153.042 189.052 153.107 189.183 153.238C189.314 153.369 189.379 153.523 189.379 153.7C189.379 153.877 189.3 154.041 189.141 154.19L186.649 156.472L189.393 158.894Z" fill="black"/>
<path d="M175 99.73C175.007 99.6352 175.007 99.5399 175 99.445V99.445L172 91.945C171.883 91.6486 171.674 91.3971 171.405 91.2272C171.135 91.0573 170.818 90.9777 170.5 91H149.5C149.2 90.9997 148.906 91.0897 148.657 91.2581C148.409 91.4266 148.216 91.6659 148.105 91.945L145.105 99.445C145.098 99.5399 145.098 99.6352 145.105 99.73C145.055 99.8135 145.02 99.9048 145 100V100C145.017 101.037 145.302 102.052 145.828 102.946C146.353 103.839 147.102 104.582 148 105.1V119.5C148 119.898 148.158 120.279 148.439 120.561C148.721 120.842 149.102 121 149.5 121H170.5C170.898 121 171.279 120.842 171.561 120.561C171.842 120.279 172 119.898 172 119.5V105.16C172.907 104.636 173.661 103.885 174.187 102.98C174.713 102.074 174.994 101.047 175 100V100C175.014 99.9106 175.014 99.8195 175 99.73V99.73ZM161.5 118H158.5V112H161.5V118ZM169 118H164.5V110.5C164.5 110.102 164.342 109.721 164.061 109.439C163.779 109.158 163.398 109 163 109H157C156.602 109 156.221 109.158 155.939 109.439C155.658 109.721 155.5 110.102 155.5 110.5V118H151V106C151.854 105.995 152.698 105.808 153.474 105.451C154.25 105.094 154.941 104.576 155.5 103.93C156.063 104.568 156.756 105.08 157.531 105.43C158.307 105.78 159.149 105.961 160 105.961C160.851 105.961 161.693 105.78 162.469 105.43C163.244 105.08 163.937 104.568 164.5 103.93C165.059 104.576 165.75 105.094 166.526 105.451C167.302 105.808 168.146 105.995 169 106V118ZM169 103C168.204 103 167.441 102.684 166.879 102.121C166.316 101.559 166 100.796 166 100C166 99.6022 165.842 99.2207 165.561 98.9394C165.279 98.6581 164.898 98.5 164.5 98.5C164.102 98.5 163.721 98.6581 163.439 98.9394C163.158 99.2207 163 99.6022 163 100C163 100.796 162.684 101.559 162.121 102.121C161.559 102.684 160.796 103 160 103C159.204 103 158.441 102.684 157.879 102.121C157.316 101.559 157 100.796 157 100C157 99.6022 156.842 99.2207 156.561 98.9394C156.279 98.6581 155.898 98.5 155.5 98.5C155.102 98.5 154.721 98.6581 154.439 98.9394C154.158 99.2207 154 99.6022 154 100C154.015 100.394 153.952 100.787 153.815 101.157C153.678 101.526 153.469 101.865 153.201 102.154C152.933 102.443 152.61 102.677 152.252 102.841C151.894 103.006 151.506 103.098 151.112 103.113C150.317 103.142 149.542 102.855 148.958 102.313C148.669 102.045 148.436 101.723 148.271 101.365C148.107 101.006 148.015 100.619 148 100.225L150.52 94H169.48L172 100.225C171.943 100.981 171.602 101.688 171.046 102.202C170.489 102.717 169.758 103.002 169 103V103Z" fill="#0CAD42"/>
<path d="M175 99.73C175.007 99.6352 175.007 99.5399 175 99.445V99.445L172 91.945C171.883 91.6486 171.674 91.3971 171.405 91.2272C171.135 91.0573 170.818 90.9777 170.5 91H149.5C149.2 90.9997 148.906 91.0897 148.657 91.2581C148.409 91.4266 148.216 91.6659 148.105 91.945L145.105 99.445C145.098 99.5399 145.098 99.6352 145.105 99.73C145.055 99.8135 145.02 99.9048 145 100V100C145.017 101.037 145.302 102.052 145.828 102.946C146.353 103.839 147.102 104.582 148 105.1V119.5C148 119.898 148.158 120.279 148.439 120.561C148.721 120.842 149.102 121 149.5 121H170.5C170.898 121 171.279 120.842 171.561 120.561C171.842 120.279 172 119.898 172 119.5V105.16C172.907 104.636 173.661 103.885 174.187 102.98C174.713 102.074 174.994 101.047 175 100V100C175.014 99.9106 175.014 99.8195 175 99.73V99.73ZM161.5 118H158.5V112H161.5V118ZM169 118H164.5V110.5C164.5 110.102 164.342 109.721 164.061 109.439C163.779 109.158 163.398 109 163 109H157C156.602 109 156.221 109.158 155.939 109.439C155.658 109.721 155.5 110.102 155.5 110.5V118H151V106C151.854 105.995 152.698 105.808 153.474 105.451C154.25 105.094 154.941 104.576 155.5 103.93C156.063 104.568 156.756 105.08 157.531 105.43C158.307 105.78 159.149 105.961 160 105.961C160.851 105.961 161.693 105.78 162.469 105.43C163.244 105.08 163.937 104.568 164.5 103.93C165.059 104.576 165.75 105.094 166.526 105.451C167.302 105.808 168.146 105.995 169 106V118ZM169 103C168.204 103 167.441 102.684 166.879 102.121C166.316 101.559 166 100.796 166 100C166 99.6022 165.842 99.2207 165.561 98.9394C165.279 98.6581 164.898 98.5 164.5 98.5C164.102 98.5 163.721 98.6581 163.439 98.9394C163.158 99.2207 163 99.6022 163 100C163 100.796 162.684 101.559 162.121 102.121C161.559 102.684 160.796 103 160 103C159.204 103 158.441 102.684 157.879 102.121C157.316 101.559 157 100.796 157 100C157 99.6022 156.842 99.2207 156.561 98.9394C156.279 98.6581 155.898 98.5 155.5 98.5C155.102 98.5 154.721 98.6581 154.439 98.9394C154.158 99.2207 154 99.6022 154 100C154.015 100.394 153.952 100.787 153.815 101.157C153.678 101.526 153.469 101.865 153.201 102.154C152.933 102.443 152.61 102.677 152.252 102.841C151.894 103.006 151.506 103.098 151.112 103.113C150.317 103.142 149.542 102.855 148.958 102.313C148.669 102.045 148.436 101.723 148.271 101.365C148.107 101.006 148.015 100.619 148 100.225L150.52 94H169.48L172 100.225C171.943 100.981 171.602 101.688 171.046 102.202C170.489 102.717 169.758 103.002 169 103V103Z" fill="#0CAD42"/>
<path fill-rule="evenodd" clip-rule="evenodd" d="M50.5 105.625V109.422C50.5 110.25 51.1716 110.922 52 110.922C52.8284 110.922 53.5 110.25 53.5 109.422V105.625C53.5 104.797 52.8284 104.125 52 104.125C51.1716 104.125 50.5 104.797 50.5 105.625ZM56.5 105.625V109.422C56.5 110.25 57.1716 110.922 58 110.922C58.8284 110.922 59.5 110.25 59.5 109.422V105.625C59.5 104.797 58.8284 104.125 58 104.125C57.1716 104.125 56.5 104.797 56.5 105.625ZM62.5 109.422V105.625C62.5 104.797 63.1716 104.125 64 104.125C64.8284 104.125 65.5 104.797 65.5 105.625V109.422C65.5 110.25 64.8284 110.922 64 110.922C63.1716 110.922 62.5 110.25 62.5 109.422Z" fill="#00B24B"/>
<path fill-rule="evenodd" clip-rule="evenodd" d="M46 100.75C46 99.9216 46.6716 99.25 47.5 99.25H68.5C69.3284 99.25 70 99.9216 70 100.75V114.25C70 115.078 69.3284 115.75 68.5 115.75H47.5C46.6716 115.75 46 115.078 46 114.25V100.75ZM49 102.25V112.75H67V102.25H49Z" fill="#00B24B"/>
<path fill-rule="evenodd" clip-rule="evenodd" d="M44.9336 113.471C45.6284 113.007 46.4875 112.75 47.5 112.75H68.5C70.1889 112.75 71.3892 113.487 72.1173 114.499C72.7903 115.433 73 116.51 73 117.25V120.25C73 121.078 72.3284 121.75 71.5 121.75H44.5C43.6716 121.75 43 121.078 43 120.25V117.25H44.5C43 117.25 43 117.249 43 117.248L43 117.247L43 117.244L43.0001 117.236L43.0003 117.217C43.0005 117.203 43.0009 117.186 43.0016 117.166C43.0029 117.127 43.0053 117.075 43.0097 117.014C43.0184 116.892 43.0351 116.728 43.0673 116.535C43.1305 116.155 43.2598 115.626 43.5334 115.079C43.8098 114.526 44.2481 113.928 44.9336 113.471ZM46 117.264V118.75H70V117.25C70 116.99 69.9097 116.567 69.6827 116.251C69.5108 116.013 69.2111 115.75 68.5 115.75H47.5C47.0125 115.75 46.7466 115.868 46.5977 115.967C46.4394 116.072 46.3152 116.224 46.2166 116.421C46.1152 116.624 46.057 116.845 46.0265 117.028C46.0118 117.116 46.0051 117.186 46.002 117.228C46.0008 117.245 46.0002 117.258 46 117.264Z" fill="#00B24B"/>
<path fill-rule="evenodd" clip-rule="evenodd" d="M57.5257 90.327C57.8336 90.2243 58.1664 90.2243 58.4743 90.327L71.9743 94.827C72.5869 95.0311 73 95.6044 73 96.25V100.75C73 101.578 72.3284 102.25 71.5 102.25H44.5C43.6716 102.25 43 101.578 43 100.75V96.25C43 95.6044 43.4131 95.0311 44.0257 94.827L57.5257 90.327ZM46 97.3311V99.25H70V97.3311L58 93.3311L46 97.3311Z" fill="#00B24B"/>
</svg>
