<svg width="108" height="71" viewBox="0 0 108 71" fill="none" xmlns="http://www.w3.org/2000/svg">
<path d="M1.38861 70H46.9886V55.3H24.6886L24.5886 55L35.0886 44.1C44.2886 34.6 46.3886 28.9 46.3886 21C46.3886 8.2 35.8886 0.399996 24.0886 0.399996C12.1886 0.399996 4.78861 6.3 0.68861 13.4L12.2886 21.7C15.1886 17.3 18.6886 15.4 22.7886 15.4C26.9886 15.4 29.9886 18.6 29.9886 22.9C29.9886 27.8 26.9886 32 21.5886 37.7L1.18861 59.4L1.38861 70ZM67.4192 70H83.8192V1.3H70.9192L49.3192 16.6L57.0192 28.6L67.4192 20.9V70Z" fill="#0CAD42"/>
</svg>
