<svg width="60" height="43" viewBox="0 0 60 43" fill="none" xmlns="http://www.w3.org/2000/svg">
<path d="M15.66 42.54C23.82 42.54 29.82 37.98 29.82 30.72C29.82 25.98 27.36 22.56 23.46 20.76V20.58C26.64 18.6 28.56 15.36 28.56 11.34C28.56 4.26 22.56 0.239998 15.06 0.239998C8.94 0.239998 3.9 3.48 2.1 7.98L9.9 12.12C10.86 10.02 12.3 8.88 14.76 8.88C17.34 8.88 19.2 10.56 19.2 13.08C19.2 15.42 17.7 17.16 14.82 17.16H11.46V24.72H14.16C17.88 24.72 19.74 26.82 19.74 29.4C19.74 32.4 17.46 34.02 14.94 34.02C11.76 34.02 9.9 32.52 9 29.7L0.54 33.06C2.52 38.46 8.1 42.54 15.66 42.54ZM45.7242 42.54C53.8842 42.54 59.8842 37.98 59.8842 30.72C59.8842 25.98 57.4242 22.56 53.5242 20.76V20.58C56.7042 18.6 58.6242 15.36 58.6242 11.34C58.6242 4.26 52.6242 0.239998 45.1242 0.239998C39.0042 0.239998 33.9642 3.48 32.1642 7.98L39.9642 12.12C40.9242 10.02 42.3642 8.88 44.8242 8.88C47.4042 8.88 49.2642 10.56 49.2642 13.08C49.2642 15.42 47.7642 17.16 44.8842 17.16H41.5242V24.72H44.2242C47.9442 24.72 49.8042 26.82 49.8042 29.4C49.8042 32.4 47.5242 34.02 45.0042 34.02C41.8242 34.02 39.9642 32.52 39.0642 29.7L30.6042 33.06C32.5842 38.46 38.1642 42.54 45.7242 42.54Z" fill="#00AC47"/>
</svg>
