<svg width="190" height="44" viewBox="0 0 190 44" fill="none" xmlns="http://www.w3.org/2000/svg">
<path fill-rule="evenodd" clip-rule="evenodd" d="M39.4175 0.466309H30.1016V20.85H34.5952V14.3267H38.1213L42.4891 20.85H47.7199L42.7409 13.5712C45.3302 12.6099 47.1056 10.5461 47.1056 7.25372V7.19536C47.1056 5.27278 46.4974 3.6696 45.3579 2.53324C44.0248 1.19419 42.0099 0.466309 39.4175 0.466309ZM42.5658 7.48713C42.5658 9.20702 41.3127 10.371 39.1288 10.371H34.5952V4.51418H39.0397C41.2267 4.51418 42.5658 5.50619 42.5658 7.42571V7.48713Z" fill="#231F20"/>
<path d="M49.6885 12.1155V0.466309H54.1698V12.011C54.1698 15.3341 55.8315 17.0509 58.5652 17.0509C61.2989 17.0509 62.9667 15.3894 62.9667 12.1431V0.472451H67.4481V11.968C67.4481 18.1412 63.9803 21.1817 58.5099 21.1817C53.0395 21.1817 49.6885 18.1136 49.6885 12.1155Z" fill="#231F20"/>
<path d="M69.4326 17.8803L72.0834 14.7077C73.9263 16.2187 75.8398 17.1831 78.1681 17.1831C80.011 17.1831 81.1075 16.4552 81.1075 15.2605V15.2021C81.1075 14.0658 80.4103 13.4823 77.004 12.61C72.8973 11.5597 70.2466 10.4264 70.2466 6.38159V6.32016C70.2466 2.63469 73.2198 0.177713 77.3817 0.177713C80.13 0.13297 82.8078 1.04863 84.9531 2.76676L82.6249 6.1451C80.8188 4.89204 79.0435 4.13652 77.3265 4.13652C75.6095 4.13652 74.7003 4.92276 74.7003 5.91476V5.97311C74.7003 7.31217 75.5757 7.74521 79.1018 8.65122C83.2392 9.72615 85.5674 11.2126 85.5674 14.7752V14.8336C85.5674 18.8784 82.4774 21.1511 78.0821 21.1511C74.8948 21.1609 71.8157 19.9965 69.4326 17.8803Z" fill="#231F20"/>
<path d="M88.3896 0.466309H92.8741V8.53442H101.143V0.466309H105.63V20.85H101.143V12.6683H92.8741V20.85H88.3896V0.466309Z" fill="#231F20"/>
<path d="M4.39554 19.2254C4.39678 18.3976 3.89883 17.6506 3.13415 17.3332C2.36947 17.0158 1.48886 17.1906 0.903414 17.776C0.317969 18.3614 0.143148 19.2419 0.460562 20.0065C0.777976 20.7711 1.52503 21.269 2.35297 21.2678C3.48035 21.2661 4.39385 20.3527 4.39554 19.2254Z" fill="#231F20"/>
<path d="M4.39554 13.5743C4.39554 12.7467 3.8968 12.0007 3.13202 11.6843C2.36724 11.3679 1.48713 11.5434 0.902327 12.129C0.31752 12.7147 0.143262 13.595 0.460857 14.3592C0.778451 15.1234 1.52531 15.621 2.35297 15.6197C3.48155 15.618 4.39554 14.7028 4.39554 13.5743Z" fill="#231F20"/>
<path d="M4.39554 7.98167C4.39678 7.15381 3.89883 6.40683 3.13415 6.08945C2.36947 5.77207 1.48886 5.94687 0.903414 6.53226C0.317969 7.11765 0.143148 7.99817 0.460562 8.76278C0.777976 9.52738 1.52503 10.0253 2.35297 10.024C3.48035 10.0223 4.39385 9.10894 4.39554 7.98167Z" fill="#231F20"/>
<path d="M9.88431 19.2254C9.88555 18.3976 9.3876 17.6506 8.62292 17.3332C7.85824 17.0158 6.97763 17.1906 6.39218 17.776C5.80674 18.3614 5.63192 19.2419 5.94933 20.0065C6.26675 20.7711 7.0138 21.269 7.84174 21.2678C8.96912 21.2661 9.88262 20.3527 9.88431 19.2254Z" fill="#231F20"/>
<path d="M9.88431 13.5743C9.88431 12.7467 9.38557 12.0007 8.62079 11.6843C7.85601 11.3679 6.9759 11.5434 6.3911 12.129C5.80629 12.7147 5.63203 13.595 5.94963 14.3592C6.26722 15.1234 7.01408 15.621 7.84174 15.6197C8.97032 15.618 9.88431 14.7028 9.88431 13.5743Z" fill="#231F20"/>
<path d="M9.88431 7.98167C9.88555 7.15381 9.3876 6.40683 8.62292 6.08945C7.85824 5.77207 6.97763 5.94687 6.39218 6.53226C5.80674 7.11765 5.63192 7.99817 5.94933 8.76278C6.26675 9.52738 7.0138 10.0253 7.84174 10.024C8.96912 10.0223 9.88262 9.10894 9.88431 7.98167Z" fill="#231F20"/>
<path d="M9.04882 2.35829C9.04882 1.86858 8.75364 1.42716 8.30104 1.24004C7.84845 1.05293 7.32769 1.15702 6.98182 1.50374C6.63595 1.85045 6.53318 2.37142 6.72146 2.82349C6.90974 3.27556 7.35196 3.56959 7.84171 3.56835C8.50888 3.56666 9.04882 3.02539 9.04882 2.35829Z" fill="#231F20"/>
<path d="M15.481 7.98167C15.4822 7.15409 14.9846 6.40731 14.2203 6.08975C13.456 5.77218 12.5756 5.94642 11.99 6.53117C11.4043 7.11592 11.2287 7.99594 11.5451 8.76064C11.8616 9.52535 12.6077 10.024 13.4353 10.024C14.5639 10.024 15.4793 9.11014 15.481 7.98167Z" fill="#231F20"/>
<path d="M21.1294 7.98167C21.1307 7.15409 20.6331 6.40731 19.8688 6.08975C19.1044 5.77218 18.2241 5.94642 17.6384 6.53117C17.0527 7.11592 16.8771 7.99594 17.1936 8.76064C17.51 9.52535 18.2561 10.024 19.0838 10.024C20.2124 10.024 21.1277 9.11014 21.1294 7.98167Z" fill="#231F20"/>
<path d="M15.4809 2.43813C15.4809 1.30847 14.5651 0.3927 13.4353 0.3927C12.3055 0.3927 11.3896 1.30847 11.3896 2.43813C11.3896 3.5678 12.3055 4.48357 13.4353 4.48357C13.9778 4.48357 14.4981 4.26807 14.8818 3.88447C15.2654 3.50088 15.4809 2.98062 15.4809 2.43813Z" fill="#231F20"/>
<path d="M21.1294 2.43807C21.1294 1.61077 20.631 0.864932 19.8666 0.548337C19.1022 0.231743 18.2224 0.406742 17.6373 0.991732C17.0523 1.57672 16.8772 2.4565 17.1939 3.22083C17.5105 3.98515 18.2564 4.48351 19.0838 4.48351C20.2136 4.48351 21.1294 3.56774 21.1294 2.43807Z" fill="#231F20"/>
<path fill-rule="evenodd" clip-rule="evenodd" d="M39.3739 0.380371H30.0732V20.7272H34.5485V14.2162H38.0777L42.4392 20.7272H47.6609L42.688 13.4607C45.2743 12.5025 47.0496 10.4386 47.0496 7.15549V7.09714C47.0496 5.17762 46.4384 3.58059 45.305 2.44423C43.9812 1.10825 41.9632 0.380371 39.3739 0.380371ZM42.513 7.38583C42.513 9.10265 41.2628 10.2636 39.0821 10.2636L34.5485 10.2574V4.4221H38.9961C41.1768 4.4221 42.513 5.41103 42.513 7.32748V7.38583Z" fill="#231F20"/>
<path d="M49.6084 12.0111V0.380327H54.0867V11.8913C54.0867 15.2051 55.7423 16.9189 58.4759 16.9189C61.2096 16.9189 62.8651 15.2635 62.8651 12.0387V0.368042H67.3434V11.8636C67.3434 18.0245 63.8818 21.0497 58.4176 21.0497C52.9533 21.0497 49.6084 17.9969 49.6084 12.0111Z" fill="#231F20"/>
<path d="M69.3496 17.7636L71.9942 14.5971C73.8371 16.1082 75.7445 17.0541 78.0697 17.0541C79.9126 17.0541 81.0061 16.3262 81.0061 15.1346V15.0824C81.0061 13.9491 80.3088 13.3686 76.9087 12.4964C72.8082 11.4491 70.1513 10.3158 70.1513 6.27717V6.21882C70.1513 2.53335 73.1153 0.0763691 77.2742 0.0763691C80.0172 0.0320231 82.6896 0.946641 84.8301 2.66234L82.505 6.04069C80.7051 4.7907 78.9297 4.03518 77.2158 4.03518C75.5019 4.03518 74.5989 4.81834 74.5989 5.80727V5.8687C74.5989 7.20775 75.4712 7.64387 78.9881 8.54374C83.1162 9.61866 85.4383 11.1021 85.4383 14.6463V14.7046C85.4383 18.7463 82.3668 21.0129 77.9683 21.0129C74.7942 21.0226 71.7272 19.8662 69.3496 17.7636Z" fill="#231F20"/>
<path d="M88.1904 0.380371H92.6657V8.43312H100.922V0.380371H105.397V20.7272H100.922V12.5609H92.6657V20.7272H88.1904V0.380371Z" fill="#231F20"/>
<path d="M108.22 10.6137V10.5553C108.22 4.77223 112.581 0.0333252 118.829 0.0333252C122.668 0.0333252 124.972 1.31096 126.852 3.17212L124.004 6.45526C122.435 5.03021 120.835 4.16105 118.801 4.16105C115.37 4.16105 112.901 7.00808 112.901 10.497V10.5553C112.901 14.0443 115.312 16.9496 118.801 16.9496C121.126 16.9496 122.552 16.0283 124.149 14.5664L126.999 17.4441C124.904 19.683 122.579 21.0774 118.657 21.0774C112.667 21.0774 108.22 16.4552 108.22 10.6137Z" fill="#231F20"/>
<path fill-rule="evenodd" clip-rule="evenodd" d="M140.505 0.236084H136.377L127.669 20.7273H132.239L134.098 16.1665H142.698L144.556 20.7273H149.225L140.505 0.236084ZM138.382 5.61687L141.085 12.2139H135.68L138.382 5.61687Z" fill="#231F20"/>
<path fill-rule="evenodd" clip-rule="evenodd" d="M160.518 0.380371H151.218V20.7272H155.693V14.2162H159.219L163.581 20.7272H168.802L163.833 13.4607C166.419 12.5025 168.194 10.4386 168.194 7.15549V7.09714C168.194 5.17762 167.583 3.58059 166.45 2.44423C165.126 1.10825 163.108 0.380371 160.518 0.380371ZM163.657 7.38583C163.657 9.10265 162.407 10.2636 160.227 10.2636L155.693 10.2574V4.4221H160.141C162.321 4.4221 163.657 5.41103 163.657 7.32748V7.38583Z" fill="#231F20"/>
<path fill-rule="evenodd" clip-rule="evenodd" d="M179.01 0.380371H171.085V20.7272H179.01C185.404 20.7272 189.824 16.2801 189.824 10.5553V10.497C189.824 4.77222 185.404 0.380371 179.01 0.380371ZM175.563 16.6886V4.4221L179.01 4.41289C182.695 4.41289 185.153 6.94972 185.153 10.5553V10.6137C185.153 14.2316 182.674 16.6886 179.01 16.6886H175.563Z" fill="#231F20"/>
<path fill-rule="evenodd" clip-rule="evenodd" d="M187.906 22.0037C186.989 22.0037 186.235 22.7261 186.196 23.6419C186.235 24.5576 186.989 25.2801 187.906 25.2801C188.822 25.2801 189.576 24.5576 189.615 23.6419C189.576 22.7261 188.822 22.0037 187.906 22.0037ZM187.904 22.0878C188.762 22.0878 189.458 22.7836 189.458 23.6419C189.458 24.5001 188.762 25.1959 187.904 25.1959C187.046 25.1959 186.35 24.5001 186.35 23.6419C186.35 22.7836 187.046 22.0878 187.904 22.0878ZM187.234 22.7205H188.018C188.208 22.7116 188.395 22.7777 188.537 22.9048C188.629 22.9938 188.681 23.1173 188.678 23.2457C188.679 23.5061 188.485 23.726 188.227 23.7586L188.77 24.4619H188.448L187.944 23.8016H187.492V24.4619H187.234V22.7205ZM188.411 23.2733C188.411 23.4668 188.239 23.5804 187.993 23.5804H187.492V22.9662H188.009C188.257 22.9662 188.411 23.0891 188.411 23.2733Z" fill="#231F20"/>
<path fill-rule="evenodd" clip-rule="evenodd" d="M109.473 23.9429H105.897V33.5036H106.979V30.1253H109.298C111.331 30.1253 113.051 29.0626 113.051 27.0018V26.9742C113.051 25.0884 111.623 23.9429 109.473 23.9429ZM111.967 27.0417C111.967 28.2948 110.932 29.1425 109.347 29.1425H106.991V24.9441H109.405C110.95 24.9441 111.967 25.6505 111.967 27.0141V27.0417Z" fill="#231F20"/>
<path d="M114.771 26.4458H115.819V28.2886C116.341 27.1123 117.355 26.2677 118.7 26.3199V27.4532H118.617C117.081 27.4532 115.819 28.5588 115.819 30.6903V33.5097H114.771V26.4458Z" fill="#231F20"/>
<path fill-rule="evenodd" clip-rule="evenodd" d="M119.634 29.9594V29.987C119.634 32.1737 121.216 33.6633 123.169 33.6633C124.294 33.6878 125.366 33.1913 126.075 32.3181L125.424 31.7346C124.861 32.3744 124.048 32.7377 123.197 32.7296C121.941 32.7296 120.862 31.8758 120.712 30.3402H126.305C126.312 30.2277 126.312 30.1149 126.305 30.0024C126.305 27.9416 125.104 26.2739 123.012 26.2739C121.068 26.2739 119.634 27.9262 119.634 29.9594ZM122.991 27.1799C124.404 27.1799 125.135 28.2948 125.249 29.5816H120.703C120.841 28.1996 121.762 27.1799 122.991 27.1799Z" fill="#231F20"/>
<path fill-rule="evenodd" clip-rule="evenodd" d="M129.217 26.4458H128.163V35.6933H129.217V32.1583C129.797 33.0924 130.82 33.6603 131.92 33.6601C133.637 33.6601 135.298 32.2842 135.298 29.9747V29.947C135.298 27.6282 133.612 26.2892 131.92 26.2892C130.62 26.2892 129.785 27.014 129.217 27.8617V26.4458ZM134.226 29.9593V29.9869C134.226 31.6976 133.093 32.708 131.738 32.708C131.035 32.6889 130.369 32.389 129.889 31.8754C129.409 31.3618 129.155 30.6772 129.183 29.9747V29.947C129.16 29.2478 129.417 28.5685 129.897 28.0591C130.376 27.5497 131.039 27.2521 131.738 27.232C133.074 27.232 134.226 28.2947 134.226 29.9593Z" fill="#231F20"/>
<path fill-rule="evenodd" clip-rule="evenodd" d="M136.652 31.4213V31.4489C136.652 32.8955 137.976 33.6479 139.279 33.6633C140.279 33.6918 141.231 33.234 141.834 32.4348V33.4974H142.841V29.1977C142.89 28.4413 142.63 27.6976 142.12 27.1369C141.604 26.6148 140.836 26.3538 139.841 26.3538C138.953 26.3519 138.076 26.5547 137.279 26.9465L137.586 27.8034C138.254 27.4686 138.989 27.291 139.736 27.2844C141.063 27.2844 141.84 27.9385 141.84 29.21V29.4496C141.135 29.2426 140.404 29.1392 139.669 29.1424C137.881 29.1424 136.652 29.9379 136.652 31.4213ZM141.852 30.2235V30.9084C141.852 32.0232 140.787 32.8126 139.494 32.8064C138.535 32.8064 137.718 32.2904 137.718 31.3998V31.3752C137.718 30.4876 138.455 29.9164 139.779 29.9164C140.482 29.9172 141.18 30.0207 141.852 30.2235Z" fill="#231F20"/>
<path fill-rule="evenodd" clip-rule="evenodd" d="M146.255 23.7371H145.051V24.9103H146.255V23.7371ZM146.169 26.4459H145.115V33.5097H146.169V26.4459Z" fill="#231F20"/>
<path fill-rule="evenodd" clip-rule="evenodd" d="M148.109 29.9593V29.9869C148.109 32.3088 149.79 33.6478 151.485 33.6601C152.781 33.6601 153.614 32.9384 154.191 32.0907V33.5096H155.238V23.5374H154.191V27.791C153.613 26.8515 152.591 26.2775 151.488 26.2738C149.79 26.2738 148.109 27.6559 148.109 29.9593ZM154.225 29.947V29.9746C154.25 30.6765 153.995 31.3597 153.516 31.8727C153.036 32.3858 152.371 32.6864 151.669 32.708C150.345 32.708 149.191 31.6362 149.191 29.9746V29.947C149.191 28.2425 150.309 27.232 151.669 27.232C152.369 27.2496 153.033 27.5465 153.513 28.0564C153.993 28.5664 154.25 29.2471 154.225 29.947Z" fill="#231F20"/>
<path d="M160.479 23.9429H161.679L165.08 32.1738L168.492 23.9429H169.653L165.556 33.565H164.594L160.479 23.9429Z" fill="#231F20"/>
<path fill-rule="evenodd" clip-rule="evenodd" d="M172.547 23.7371H171.346V24.9103H172.547V23.7371ZM172.464 26.4459H171.419V33.5097H172.464V26.4459Z" fill="#231F20"/>
<path d="M174.205 32.5883L174.736 31.8389C175.436 32.3986 176.298 32.7145 177.194 32.7388C178.038 32.7388 178.653 32.3027 178.653 31.6178V31.5932C178.653 30.8868 177.82 30.6104 176.893 30.3647C175.787 30.0576 174.555 29.6737 174.555 28.3776V28.3469C174.555 27.1184 175.566 26.326 176.963 26.326C177.865 26.3458 178.743 26.6148 179.5 27.1031L179.024 27.8985C178.403 27.4733 177.673 27.2327 176.92 27.2044C176.091 27.2044 175.557 27.6405 175.557 28.2271V28.2548C175.557 28.9212 176.429 29.1761 177.375 29.4833C178.465 29.8088 179.642 30.2357 179.642 31.5041V31.5287C179.642 32.8678 178.533 33.6448 177.126 33.6448C176.063 33.6233 175.036 33.2519 174.205 32.5883Z" fill="#231F20"/>
<path fill-rule="evenodd" clip-rule="evenodd" d="M181.052 31.4213V31.4489C181.052 32.8955 182.379 33.6479 183.69 33.6633C184.69 33.6903 185.64 33.2327 186.243 32.4348V33.4974H187.253V29.1977C187.303 28.4407 187.041 27.6963 186.528 27.1369C186.009 26.6148 185.244 26.3538 184.249 26.3538C183.359 26.3523 182.481 26.5551 181.681 26.9465L181.989 27.8034C182.657 27.4693 183.392 27.2918 184.139 27.2843C185.459 27.2843 186.24 27.9385 186.24 29.21V29.4496C185.533 29.2426 184.801 29.1392 184.065 29.1424C182.28 29.1424 181.052 29.9379 181.052 31.4213ZM186.255 30.2235V30.9084C186.255 32.0232 185.189 32.8126 183.893 32.8064C182.938 32.8064 182.118 32.2904 182.118 31.3998V31.3752C182.118 30.4876 182.855 29.9164 184.179 29.9164C184.882 29.9178 185.581 30.0212 186.255 30.2235Z" fill="#231F20"/>
</svg>
