<svg width="113" height="113" viewBox="0 0 113 113" fill="none" xmlns="http://www.w3.org/2000/svg">
<circle cx="56.5" cy="56.5" r="56.5" fill="#00B24B"/>
<path fill-rule="evenodd" clip-rule="evenodd" d="M82.3634 58.5085H78.655V62.4338H82.3634C83.5611 62.4338 84.5321 63.4048 84.5321 64.6025V73.9061C84.5321 75.1038 83.5611 76.0748 82.3634 76.0748H63.4309C62.2332 76.0748 61.2622 75.1038 61.2622 73.9061V70.2627H57.337V73.9061C57.3312 75.5241 57.9713 77.0775 59.1154 78.2216C60.2595 79.3657 61.8129 80.0058 63.4309 80.0001H82.3634C83.9814 80.0058 85.5348 79.3657 86.6789 78.2216C87.823 77.0775 88.4631 75.5241 88.4574 73.9061V64.8194C88.5041 63.1693 87.8841 61.57 86.7374 60.3825C85.5908 59.195 84.0141 58.5196 82.3634 58.5085Z" fill="black"/>
<path fill-rule="evenodd" clip-rule="evenodd" d="M74.47 46.7542H70.8266V50.6795H74.47C75.6677 50.6795 76.6387 51.6504 76.6387 52.8482V65.8602C76.6387 67.0579 75.6677 68.0288 74.47 68.0288H47.752C46.5543 68.0288 45.5833 67.0579 45.5833 65.8602V62.2168H41.6797V65.9252C41.6739 67.5432 42.3141 69.0966 43.4582 70.2407C44.6023 71.3848 46.1557 72.025 47.7737 72.0192H74.47C76.088 72.025 77.6414 71.3848 78.7855 70.2407C79.9296 69.0966 80.5697 67.5432 80.564 65.9252V52.9132C80.5872 51.284 79.9548 49.7138 78.8088 48.5555C77.6628 47.3973 76.0994 46.7482 74.47 46.7542Z" fill="black"/>
<path fill-rule="evenodd" clip-rule="evenodd" d="M32.0073 64.3855H66.706C68.3717 64.3979 69.9709 63.7327 71.1365 62.5427C72.3021 61.3526 72.9338 59.7398 72.8867 58.0747V41.094C72.8925 39.476 72.2523 37.9226 71.1082 36.7785C69.9641 35.6344 68.4107 34.9943 66.7927 35H32.094C30.476 34.9943 28.9226 35.6344 27.7785 36.7785C26.6344 37.9226 25.9943 39.476 26 41.094V58.2915C25.9879 61.6284 28.6706 64.3498 32.0073 64.3855ZM29.9253 41.094C29.9253 39.8962 30.8962 38.9253 32.0939 38.9253H66.7926C67.9904 38.9253 68.9613 39.8962 68.9613 41.094V58.0746C68.9613 59.2724 67.9904 60.2433 66.7926 60.2433H32.0939C30.8962 60.2433 29.9253 59.2724 29.9253 58.0746V41.094Z" fill="black"/>
<path fill-rule="evenodd" clip-rule="evenodd" d="M48.4457 58.2916V56.3398C47.2283 56.3416 46.0291 56.0436 44.9541 55.4723L45.6047 53.0868C46.69 53.6309 47.8825 53.9272 49.0963 53.9542C50.1806 53.9542 51.0481 53.5205 51.0481 52.653C51.0481 51.7856 50.3975 51.3518 48.8794 50.9181C46.7107 50.2675 45.171 49.1832 45.171 46.9928C45.266 45.0669 46.7458 43.4951 48.6625 43.2844V41.1157H50.6143V42.8507C51.6561 42.8926 52.683 43.1126 53.6505 43.5013L52.9999 45.8868C52.0495 45.4448 51.0118 45.2225 49.9637 45.2362C48.6625 45.2362 48.2288 45.8868 48.2288 46.3205C48.2288 46.7543 48.8794 47.4049 50.8312 48.0555C53.2167 48.9229 54.3228 50.0073 54.3228 51.9808C54.2941 54.0539 52.6825 55.7598 50.6143 55.906V58.0747L48.4457 58.2916Z" fill="black"/>
<path fill-rule="evenodd" clip-rule="evenodd" d="M82.3634 58.5085H78.655V62.4338H82.3634C83.5611 62.4338 84.5321 63.4048 84.5321 64.6025V73.9061C84.5321 75.1038 83.5611 76.0748 82.3634 76.0748H63.4309C62.2332 76.0748 61.2622 75.1038 61.2622 73.9061V70.2627H57.337V73.9061C57.3312 75.5241 57.9713 77.0775 59.1154 78.2216C60.2595 79.3657 61.8129 80.0058 63.4309 80.0001H82.3634C83.9814 80.0058 85.5348 79.3657 86.6789 78.2216C87.823 77.0775 88.4631 75.5241 88.4574 73.9061V64.8194C88.5041 63.1693 87.8841 61.57 86.7374 60.3825C85.5908 59.195 84.0141 58.5196 82.3634 58.5085Z" fill="black"/>
<path fill-rule="evenodd" clip-rule="evenodd" d="M74.47 46.7542H70.8266V50.6795H74.47C75.6677 50.6795 76.6387 51.6504 76.6387 52.8482V65.8602C76.6387 67.0579 75.6677 68.0288 74.47 68.0288H47.752C46.5543 68.0288 45.5833 67.0579 45.5833 65.8602V62.2168H41.6797V65.9252C41.6739 67.5432 42.3141 69.0966 43.4582 70.2407C44.6023 71.3848 46.1557 72.025 47.7737 72.0192H74.47C76.088 72.025 77.6414 71.3848 78.7855 70.2407C79.9296 69.0966 80.5697 67.5432 80.564 65.9252V52.9132C80.5872 51.284 79.9548 49.7138 78.8088 48.5555C77.6628 47.3973 76.0994 46.7482 74.47 46.7542Z" fill="black"/>
<path d="M32.0945 38.9253C30.8967 38.9253 29.9258 39.8962 29.9258 41.094V58.0746C29.9258 59.2724 30.8967 60.2433 32.0945 60.2433H66.7932C67.9909 60.2433 68.9618 59.2724 68.9618 58.0746V41.094C68.9618 39.8962 67.9909 38.9253 66.7932 38.9253H32.0945Z" fill="white"/>
<path fill-rule="evenodd" clip-rule="evenodd" d="M48.4457 58.2916V56.3398C47.2283 56.3416 46.0291 56.0436 44.9541 55.4723L45.6047 53.0868C46.69 53.6309 47.8825 53.9272 49.0963 53.9542C50.1806 53.9542 51.0481 53.5205 51.0481 52.653C51.0481 51.7856 50.3975 51.3518 48.8794 50.9181C46.7107 50.2675 45.171 49.1832 45.171 46.9928C45.266 45.0669 46.7458 43.4951 48.6625 43.2844V41.1157H50.6143V42.8507C51.6561 42.8926 52.683 43.1126 53.6505 43.5013L52.9999 45.8868C52.0495 45.4448 51.0118 45.2225 49.9637 45.2362C48.6625 45.2362 48.2288 45.8868 48.2288 46.3205C48.2288 46.7543 48.8794 47.4049 50.8312 48.0555C53.2167 48.9229 54.3228 50.0073 54.3228 51.9808C54.2941 54.0539 52.6825 55.7598 50.6143 55.906V58.0747L48.4457 58.2916Z" fill="black"/>
</svg>
