<svg width="57" height="45" viewBox="0 0 57 45" fill="none" xmlns="http://www.w3.org/2000/svg">
<path d="M4.88 44.88H11.24L12.86 34.14H20.3L18.62 44.88H24.92L26.6 34.14H34.4L34.46 27.24H27.62L28.82 19.56H36.02L36.08 12.72H29.9L31.46 2.64H25.22L23.66 12.72H16.16L17.72 2.64H11.48L9.92 12.72H2.18V19.56H8.84L7.64 27.24H0.62V34.14H6.56L4.88 44.88ZM13.88 27.24L15.14 19.56H22.58L21.38 27.24H13.88ZM46.9039 42H56.7439V0.779998H49.0039L36.0439 9.96L40.6639 17.16L46.9039 12.54V42Z" fill="#00AC47"/>
</svg>
