<svg width="228" height="58" viewBox="0 0 228 58" fill="none" xmlns="http://www.w3.org/2000/svg">
<g clip-path="url(#clip0)">
<path d="M218.838 57.182H8.6256C6.51603 57.1801 4.49343 56.3412 3.00174 54.8495C1.51005 53.3578 0.671158 51.3352 0.669189 49.2256V8.62563C0.671158 6.51606 1.51005 4.49346 3.00174 3.00177C4.49343 1.51008 6.51603 0.671189 8.6256 0.66922H218.838C220.948 0.671189 222.971 1.51008 224.462 3.00177C225.954 4.49346 226.793 6.51606 226.795 8.62563V49.1513C226.802 50.2015 226.601 51.2428 226.205 52.2154C225.808 53.188 225.223 54.0727 224.484 54.8189C223.745 55.565 222.866 56.1578 221.897 56.5633C220.928 56.9689 219.889 57.1791 218.838 57.182Z" fill="#006B35"/>
<path d="M218.838 57.8513H8.62564C6.33858 57.8493 4.14576 56.9399 2.52857 55.3227C0.911372 53.7055 0.00196906 51.5127 0 49.2256L0 8.62564C0.00196906 6.33858 0.911372 4.14576 2.52857 2.52857C4.14576 0.911372 6.33858 0.00196906 8.62564 0L218.838 0C221.126 0.00196906 223.318 0.911372 224.936 2.52857C226.553 4.14576 227.462 6.33858 227.464 8.62564V49.1513C227.477 50.2911 227.263 51.4221 226.835 52.4785C226.407 53.535 225.773 54.4958 224.971 55.3053C224.168 56.1147 223.213 56.7567 222.16 57.1937C221.107 57.6308 219.978 57.8543 218.838 57.8513ZM8.62564 1.41282C6.69417 1.41675 4.84293 2.18577 3.47717 3.55153C2.11141 4.91729 1.34239 6.76853 1.33846 8.7V49.2256C1.34239 51.1571 2.11141 53.0084 3.47717 54.3741C4.84293 55.7399 6.69417 56.5089 8.62564 56.5128H218.838C220.77 56.5089 222.621 55.7399 223.987 54.3741C225.353 53.0084 226.122 51.1571 226.126 49.2256V8.62564C226.122 6.69417 225.353 4.84293 223.987 3.47717C222.621 2.11141 220.77 1.34239 218.838 1.33846H8.62564V1.41282Z" fill="#7AC143"/>
<path d="M43.6486 43.1282V22.4564L35.0973 43.1282H33.0152L24.5383 22.4564V43.1282H19.6306V15.3179H26.546L34.1306 33.6846L41.6409 15.3179H48.5563V43.1282H43.6486ZM53.0922 33.0897C53.0922 27.2897 57.0332 22.5308 63.4281 22.5308C69.8229 22.5308 73.8383 27.3641 73.8383 33.0897C73.8383 38.8154 69.8973 43.7231 63.4281 43.7231C56.9588 43.7231 53.0922 38.8897 53.0922 33.0897ZM69.3024 33.0897C69.3024 29.5205 67.2204 26.3974 63.4281 26.3974C59.6357 26.3974 57.6281 29.5205 57.6281 33.0897C57.6281 36.659 59.7101 39.782 63.4281 39.782C67.146 39.782 69.3024 36.659 69.3024 33.0897ZM91.5357 43.1282V30.4872C91.5357 27.3641 89.9742 26.3231 87.446 26.3231C86.426 26.3545 85.4268 26.6187 84.5246 27.0956C83.6225 27.5724 82.8413 28.2493 82.2409 29.0743V43.1282H77.8537V22.9769H82.2409V25.7282C83.1356 24.7138 84.2333 23.8984 85.4629 23.3348C86.6926 22.7712 88.0268 22.472 89.3793 22.4564C93.6922 22.4564 95.9229 24.7615 95.9229 28.9256V43.1282H91.5357ZM99.9383 33.0897C99.9383 27.2154 104.177 22.5308 110.2 22.5308C116.223 22.5308 120.164 27.141 120.164 33.5359V34.5769H104.549C104.846 37.6256 107.151 40.1538 111.018 40.1538C113.135 40.1369 115.173 39.3431 116.743 37.9231L118.751 40.8231C116.743 42.7564 113.769 43.7231 110.572 43.7231C104.4 43.6487 99.9383 39.4102 99.9383 33.0897ZM110.125 26.1C109.402 26.0782 108.682 26.1997 108.006 26.4573C107.33 26.715 106.711 27.1038 106.186 27.6014C105.661 28.099 105.239 28.6955 104.946 29.3567C104.652 30.0178 104.492 30.7305 104.474 31.4538H115.851C115.845 30.7206 115.69 29.9962 115.396 29.3247C115.101 28.6532 114.673 28.0486 114.138 27.5478C113.602 27.047 112.97 26.6604 112.28 26.4115C111.591 26.1626 110.857 26.0566 110.125 26.1ZM123.361 47.1436C123.882 47.3498 124.438 47.4508 124.997 47.441C125.611 47.5109 126.23 47.3731 126.755 47.0495C127.281 46.726 127.683 46.2354 127.897 45.6564L128.864 43.3513L120.61 22.9026H125.295L131.169 37.9974L137.043 22.9026H141.728L131.987 46.6974C130.574 50.1179 128.195 51.2333 125.072 51.2333C124.246 51.2077 123.425 51.1081 122.618 50.9359L123.361 47.1436ZM144.628 43.1282V15.3179H156.897C162.772 15.3179 165.969 19.3333 165.969 24.0179C165.969 28.7026 162.697 32.7179 156.897 32.7179H149.536V43.1282H144.628ZM160.987 24.0179C160.987 21.341 158.979 19.5564 156.228 19.5564H149.536V28.4051H156.228C158.979 28.4795 160.987 26.6949 160.987 24.0179ZM181.659 43.1282V40.9718C180.822 41.8583 179.805 42.5558 178.676 43.0175C177.548 43.4792 176.334 43.6944 175.115 43.6487C171.843 43.6487 168.126 41.4179 168.126 36.9564C168.126 32.3461 171.843 30.4128 175.115 30.4128C177.867 30.4128 180.172 31.3051 181.659 33.0154V30.041C181.659 27.7359 179.725 26.2487 176.974 26.2487C175.863 26.2439 174.762 26.4656 173.74 26.9003C172.717 27.335 171.793 27.9735 171.025 28.7769L169.241 25.7282C171.522 23.559 174.571 22.3825 177.718 22.4564C182.179 22.4564 186.12 24.3154 186.12 29.7436V43.1282H181.659ZM181.659 38.5923V35.5436C180.692 34.1308 178.759 33.4615 176.826 33.4615C174.372 33.4615 172.513 34.8743 172.513 37.1051C172.513 39.3359 174.372 40.6743 176.826 40.6743C177.737 40.7213 178.647 40.5579 179.485 40.1969C180.323 39.8358 181.067 39.2868 181.659 38.5923ZM204.636 43.1282L198.464 34.8L195.638 37.7V43.1282H191.251V15.3179H195.638V32.7179L204.561 22.9769H209.99L201.587 32.1231L210.138 43.1282H204.636ZM211.626 17.8461C211.287 17.8461 210.957 17.7458 210.675 17.5579C210.394 17.37 210.175 17.1029 210.045 16.7904C209.916 16.4779 209.882 16.134 209.948 15.8022C210.014 15.4705 210.177 15.1657 210.416 14.9266C210.655 14.6874 210.96 14.5245 211.292 14.4585C211.624 14.3925 211.967 14.4264 212.28 14.5558C212.592 14.6853 212.86 14.9045 213.048 15.1857C213.235 15.467 213.336 15.7976 213.336 16.1359C213.34 16.3616 213.298 16.5858 213.214 16.7951C213.129 17.0044 213.003 17.1946 212.844 17.3542C212.684 17.5138 212.494 17.6396 212.285 17.7242C212.075 17.8087 211.851 17.8502 211.626 17.8461ZM211.626 14.7231C211.331 14.7231 211.044 14.8103 210.799 14.9737C210.555 15.1371 210.364 15.3694 210.252 15.6411C210.139 15.9129 210.11 16.2119 210.167 16.5004C210.224 16.7889 210.366 17.0539 210.574 17.2618C210.782 17.4698 211.047 17.6115 211.335 17.6688C211.624 17.7262 211.923 17.6968 212.195 17.5842C212.466 17.4717 212.699 17.281 212.862 17.0365C213.025 16.7919 213.113 16.5044 213.113 16.2102C213.1 15.8199 212.939 15.4492 212.663 15.173C212.387 14.8969 212.016 14.7361 211.626 14.7231ZM212.072 17.1769L211.551 16.4333H211.179V17.1769H210.882V15.1692H211.7C211.866 15.1648 212.028 15.2238 212.152 15.3343C212.276 15.4448 212.354 15.5985 212.369 15.7641C212.375 15.9111 212.325 16.055 212.228 16.1658C212.131 16.2765 211.995 16.3457 211.849 16.359L212.369 17.1769H212.072ZM211.774 15.3923H211.254V16.0615H211.774C211.871 16.0546 211.961 16.0132 212.029 15.9449C212.098 15.8767 212.139 15.7861 212.146 15.6897C212.114 15.6127 212.064 15.5449 211.999 15.4929C211.934 15.4409 211.856 15.4062 211.774 15.3923Z" fill="white"/>
</g>
<defs>
<clipPath id="clip0">
<rect width="227.538" height="58" fill="white"/>
</clipPath>
</defs>
</svg>
