<svg width="111" height="73" viewBox="0 0 111 73" fill="none" xmlns="http://www.w3.org/2000/svg">
<path d="M25 0.399996C11 0.399996 0.1 9.7 0.1 23.6C0.1 38 9.9 45.8 20.7 45.8C24.5 45.8 28.4 44.9 31.8 43.2L31.9 43.3C28.2 51.4 20.8 56.6 8.5 60L13 72.6C36.2 68.2 50.3 49.7 50.3 28.6C50.3 11.8 40.1 0.399996 25 0.399996ZM15.6 24.1C15.6 18.9 19.3 14.7 25.2 14.7C30.6 14.7 34.9 19.5 34.9 27.1V27.9C32.4 31 28.6 33.1 25.1 33.1C19.2 33.1 15.6 29.4 15.6 24.1ZM83.4181 70.9C100.218 70.9 110.818 57.1 110.818 35.6C110.818 13.6 99.8181 0.399996 83.4181 0.399996C66.7181 0.399996 56.1181 14.4 56.1181 35.6C56.1181 57.7 67.0181 70.9 83.4181 70.9ZM83.4181 55.7C76.4181 55.7 72.8181 47.6 72.8181 35.6C72.8181 22.1 77.1181 15.6 83.4181 15.6C90.5181 15.6 94.0181 23.6 94.0181 35.6C94.0181 49.3 89.8181 55.7 83.4181 55.7Z" fill="#0CAD42"/>
</svg>
