<svg width="24" height="24" viewBox="0 0 24 24" fill="none" xmlns="http://www.w3.org/2000/svg">
<path fill-rule="evenodd" clip-rule="evenodd" d="M17.572 5.7473C16.5426 3.78606 14.6904 2.85769 11.9005 2.85769C8.62356 2.85769 6.67515 4.18088 5.86821 7.02032C8.26488 7.95914 9.75429 7.87278 12.292 6.31573L12.649 6.09666L13.0635 6.15707C15.2675 6.47826 16.4087 6.32234 17.572 5.7473ZM18.312 7.95528C18.3475 8.13738 18.3793 8.32458 18.4073 8.51692V16.0174L15.1464 19.172C14.992 19.1364 14.8311 19.1176 14.6658 19.1176C13.4903 19.1176 12.5374 20.0705 12.5374 21.246C12.5374 22.4215 13.4903 23.3744 14.6658 23.3744C15.8413 23.3744 16.7943 22.4215 16.7943 21.246C16.7943 21.1052 16.7806 20.9676 16.7545 20.8344L20.3678 17.3388C20.5761 17.1373 20.7005 16.8656 20.718 16.578C22.2243 15.9482 23.5926 14.1705 23.5926 11.9706C23.5926 9.68749 22.1904 8.11904 20.6047 7.63386C19.7371 2.99137 16.7439 0.5448 11.9005 0.5448C7.11163 0.5448 4.17836 2.99802 3.3622 7.6345C1.77734 8.12042 0.376465 9.6885 0.376465 11.9706C0.376465 14.2864 1.89266 16.1342 3.48992 16.6679C4.34833 19.6335 7.23634 22.4024 10.7154 22.4024C11.3541 22.4024 11.8719 21.8847 11.8719 21.246C11.8719 20.6073 11.3541 20.0896 10.7154 20.0896C7.92723 20.0896 5.54278 17.2362 5.54278 14.9064V9.36545C8.21016 10.3022 10.2875 10.1672 13.1425 8.50202C15.419 8.79 16.9012 8.59074 18.312 7.95528ZM3.22989 13.6729V10.392C2.91273 10.7625 2.68935 11.2958 2.68935 11.9706C2.68935 12.6424 2.92044 13.2315 3.22989 13.6729ZM21.2797 11.9706C21.2797 12.656 21.0391 13.2554 20.7202 13.6996V10.3702C21.0474 10.7415 21.2797 11.2824 21.2797 11.9706ZM8.86331 16.4688C10.5889 18.1561 13.3047 18.1561 15.0766 16.4785C15.4275 16.1463 15.4426 15.5925 15.1104 15.2416C14.7782 14.8906 14.2243 14.8755 13.8734 15.2078C12.7799 16.2431 11.1356 16.2431 10.0868 15.2175C9.74131 14.8797 9.18732 14.8859 8.84946 15.2314C8.5116 15.5769 8.5178 16.1309 8.86331 16.4688ZM9.81145 10.5904H8.75705C8.05412 10.5904 7.70265 10.8848 7.70265 11.4736C7.70265 12.0624 8.05412 12.3568 8.75705 12.3568H9.81145C10.5144 12.3568 10.8658 12.0624 10.8658 11.4736C10.8658 10.8848 10.5144 10.5904 9.81145 10.5904ZM14.1386 10.5904H15.193C15.896 10.5904 16.2474 10.8848 16.2474 11.4736C16.2474 12.0624 15.896 12.3568 15.193 12.3568H14.1386C13.4357 12.3568 13.0842 12.0624 13.0842 11.4736C13.0842 10.8848 13.4357 10.5904 14.1386 10.5904Z" fill="#49D600"/>
</svg>
