<svg width="28" height="28" viewBox="0 0 28 28" fill="none" xmlns="http://www.w3.org/2000/svg">
<path fill-rule="evenodd" clip-rule="evenodd" d="M5.83337 4.66667H22.1667C23.095 4.66667 23.9852 5.03542 24.6416 5.6918C25.298 6.34818 25.6667 7.23841 25.6667 8.16667L25.6667 12.8333C25.6667 13.4777 25.1444 14 24.5 14C23.8557 14 23.3334 13.4777 23.3334 12.8333L23.3334 11.6667H4.66671V18.6667C4.66671 18.9761 4.78962 19.2728 5.00842 19.4916C5.22721 19.7104 5.52396 19.8333 5.83337 19.8333L16.3334 19.8333C16.9777 19.8333 17.5 20.3557 17.5 21C17.5 21.6443 16.9777 22.1667 16.3334 22.1667L5.83337 22.1667C4.90512 22.1667 4.01488 21.7979 3.3585 21.1415C2.70212 20.4852 2.33337 19.5949 2.33337 18.6667V8.16667C2.33337 7.23841 2.70212 6.34818 3.3585 5.6918C4.01488 5.03542 4.90512 4.66667 5.83337 4.66667ZM11.6667 16.3333H8.1667C7.85728 16.3333 7.56054 16.2104 7.34175 15.9916C7.12295 15.7728 7.00004 15.4761 7.00004 15.1667C7.00004 14.8573 7.12295 14.5605 7.34175 14.3417C7.56054 14.1229 7.85728 14 8.1667 14H11.6667C11.9761 14 12.2729 14.1229 12.4917 14.3417C12.7105 14.5605 12.8334 14.8573 12.8334 15.1667C12.8334 15.4761 12.7105 15.7728 12.4917 15.9916C12.2729 16.2104 11.9761 16.3333 11.6667 16.3333ZM4.66671 9.33334H23.3334V8.16667C23.3334 7.85725 23.2105 7.56051 22.9917 7.34171C22.7729 7.12292 22.4761 7 22.1667 7H5.83338C5.52396 7 5.22721 7.12292 5.00842 7.34171C4.78963 7.56051 4.66671 7.85725 4.66671 8.16667V9.33334Z" fill="#49D600"/>
<path d="M23.2004 16.5178L22.7201 15.0769C22.5428 14.545 21.7906 14.545 21.6133 15.0769L21.133 16.5178C21.0536 16.756 20.8307 16.9167 20.5796 16.9167H19.163C18.6116 16.9167 18.368 17.611 18.7986 17.9555L20.0701 18.9727C20.2749 19.1365 20.3451 19.4169 20.2418 19.658L19.4397 21.5297C19.2111 22.063 19.8167 22.5667 20.2994 22.2448L21.8431 21.2157C22.0391 21.0851 22.2943 21.0851 22.4903 21.2157L24.034 22.2448C24.5167 22.5667 25.1223 22.063 24.8937 21.5297L24.0915 19.658C23.9882 19.4169 24.0585 19.1365 24.2633 18.9727L25.5348 17.9555C25.9654 17.611 25.7218 16.9167 25.1704 16.9167H23.7538C23.5027 16.9167 23.2798 16.756 23.2004 16.5178Z" fill="#49D600"/>
</svg>
