<svg width="28" height="28" viewBox="0 0 28 28" fill="none" xmlns="http://www.w3.org/2000/svg">
<path d="M14.6884 15.1667L12.005 17.8383C11.8957 17.9468 11.8089 18.0758 11.7497 18.218C11.6904 18.3602 11.6599 18.5126 11.6599 18.6667C11.6599 18.8207 11.6904 18.9732 11.7497 19.1153C11.8089 19.2575 11.8957 19.3865 12.005 19.495C12.1135 19.6043 12.2425 19.6911 12.3847 19.7504C12.5269 19.8096 12.6794 19.8401 12.8334 19.8401C12.9874 19.8401 13.1399 19.8096 13.282 19.7504C13.4242 19.6911 13.5533 19.6043 13.6617 19.495L18.3284 14.8283C18.4346 14.7174 18.5178 14.5865 18.5734 14.4433C18.6901 14.1593 18.6901 13.8407 18.5734 13.5567C18.5178 13.4135 18.4346 13.2826 18.3284 13.1717L13.6617 8.505C13.5529 8.39622 13.4238 8.30993 13.2817 8.25106C13.1395 8.19219 12.9872 8.16189 12.8334 8.16189C12.6795 8.16189 12.5272 8.19219 12.3851 8.25106C12.243 8.30993 12.1138 8.39622 12.005 8.505C11.8963 8.61377 11.81 8.74291 11.7511 8.88504C11.6922 9.02716 11.6619 9.17949 11.6619 9.33333C11.6619 9.48717 11.6922 9.6395 11.7511 9.78162C11.81 9.92375 11.8963 10.0529 12.005 10.1617L14.6884 12.8333H3.50004C3.19062 12.8333 2.89388 12.9562 2.67508 13.175C2.45629 13.3938 2.33337 13.6906 2.33337 14C2.33337 14.3094 2.45629 14.6062 2.67508 14.825C2.89388 15.0437 3.19062 15.1667 3.50004 15.1667H14.6884ZM14 2.33333C11.8196 2.3236 9.68016 2.92508 7.82425 4.06955C5.96835 5.21403 4.4703 6.85569 3.50004 8.80833C3.3608 9.08681 3.33789 9.40919 3.43635 9.70456C3.5348 9.99993 3.74656 10.2441 4.02504 10.3833C4.30352 10.5226 4.6259 10.5455 4.92127 10.447C5.21664 10.3486 5.4608 10.1368 5.60004 9.85833C6.3376 8.36887 7.45951 7.10339 8.84985 6.19265C10.2402 5.28191 11.8485 4.75897 13.5086 4.67785C15.1687 4.59674 16.8203 4.9604 18.2928 5.73126C19.7653 6.50211 21.0053 7.6522 21.8845 9.06266C22.7638 10.4731 23.2504 12.0928 23.2942 13.7543C23.3379 15.4158 22.9372 17.0588 22.1335 18.5136C21.3297 19.9684 20.152 21.1822 18.7222 22.0295C17.2923 22.8768 15.6621 23.3269 14 23.3333C12.2604 23.3409 10.5539 22.8578 9.07635 21.9395C7.59881 21.0211 6.41012 19.7049 5.64671 18.1417C5.50747 17.8632 5.26331 17.6514 4.96794 17.553C4.67257 17.4545 4.35018 17.4774 4.07171 17.6167C3.79323 17.7559 3.58147 18.0001 3.48301 18.2954C3.38456 18.5908 3.40747 18.9132 3.54671 19.1917C4.47167 21.0531 5.87715 22.6336 7.61776 23.7697C9.35836 24.9058 11.3709 25.5563 13.4472 25.6538C15.5235 25.7513 17.5881 25.2924 19.4275 24.3244C21.267 23.3565 22.8144 21.9147 23.9098 20.1481C25.0052 18.3816 25.6087 16.3545 25.658 14.2765C25.7072 12.1985 25.2004 10.1451 24.19 8.32863C23.1796 6.51218 21.7022 4.99866 19.9107 3.94462C18.1192 2.89058 16.0786 2.33431 14 2.33333Z" fill="#49D600"/>
</svg>
