<svg width="113" height="113" viewBox="0 0 113 113" fill="none" xmlns="http://www.w3.org/2000/svg">
<circle cx="56.5" cy="56.5" r="56.5" fill="#00B24B"/>
<path d="M77.7812 36H35.9688C34.119 35.9949 32.3434 36.7274 31.0354 38.0354C29.7274 39.3434 28.9949 41.119 29 42.9688V70.8437C28.9949 72.6935 29.7274 74.4691 31.0354 75.7771C32.3434 77.0851 34.119 77.8176 35.9688 77.8125H77.7812C79.631 77.8176 81.4066 77.0851 82.7146 75.7771C84.0226 74.4691 84.7551 72.6935 84.75 70.8437V42.9688C84.7551 41.119 84.0226 39.3434 82.7146 38.0354C81.4066 36.7274 79.631 35.9949 77.7812 36Z" fill="white"/>
<path fill-rule="evenodd" clip-rule="evenodd" d="M35.9688 36H77.7812C79.631 35.9949 81.4066 36.7274 82.7146 38.0354C84.0226 39.3434 84.7551 41.119 84.75 42.9688V70.8437C84.7551 72.6935 84.0226 74.4691 82.7146 75.7771C81.4066 77.0851 79.631 77.8176 77.7812 77.8125H35.9688C34.119 77.8176 32.3434 77.0851 31.0354 75.7771C29.7274 74.4691 28.9949 72.6935 29 70.8437V42.9688C28.9949 41.119 29.7274 39.3434 31.0354 38.0354C32.3434 36.7274 34.119 35.9949 35.9688 36ZM77.7812 39.4844H35.9688C35.0431 39.4792 34.1538 39.8447 33.4992 40.4993C32.8446 41.1538 32.4792 42.0431 32.4844 42.9688H81.2656C81.2708 42.0431 80.9054 41.1538 80.2508 40.4993C79.5962 39.8447 78.7069 39.4792 77.7812 39.4844ZM81.2655 46.4531V49.9375H32.4843V46.4531H81.2655ZM35.9688 74.3281H77.7812C78.7069 74.3333 79.5962 73.9679 80.2508 73.3133C80.9054 72.6587 81.2708 71.7694 81.2656 70.8437V53.4219H32.4844V70.8437C32.4792 71.7694 32.8446 72.6587 33.4992 73.3133C34.1538 73.9679 35.0431 74.3333 35.9688 74.3281Z" fill="black"/>
<path d="M74.2969 65.6172H65.5859C64.6238 65.6172 63.8438 66.3972 63.8438 67.3594C63.8438 68.3216 64.6238 69.1016 65.5859 69.1016H74.2969C75.259 69.1016 76.0391 68.3216 76.0391 67.3594C76.0391 66.3972 75.259 65.6172 74.2969 65.6172Z" fill="black"/>
<path d="M74.2969 65.6172H65.5859C64.6238 65.6172 63.8438 66.3972 63.8438 67.3594C63.8438 68.3216 64.6238 69.1016 65.5859 69.1016H74.2969C75.259 69.1016 76.0391 68.3216 76.0391 67.3594C76.0391 66.3972 75.259 65.6172 74.2969 65.6172Z" fill="black"/>
</svg>
