<svg width="199" height="62" viewBox="0 0 199 62" fill="none" xmlns="http://www.w3.org/2000/svg">
<rect x="0.75356" y="1.42415" width="196.827" height="59.1515" rx="7.33333" fill="black" stroke="#999999" stroke-width="1.33333"/>
<path fill-rule="evenodd" clip-rule="evenodd" d="M8.66073 2.09082H189.673C193.672 2.09082 196.914 5.32658 196.914 9.31809V52.6817C196.914 56.6732 193.672 59.909 189.673 59.909H8.66073C4.66191 59.909 1.42023 56.6732 1.42023 52.6817V9.31809C1.42023 5.32658 4.66191 2.09082 8.66073 2.09082ZM195.755 9.31809C195.755 5.96522 193.032 3.24718 189.673 3.24718H8.66073C5.30172 3.24718 2.5787 5.96522 2.5787 9.31809V52.6817C2.5787 56.0346 5.30172 58.7526 8.66073 58.7526H189.673C193.032 58.7526 195.755 56.0346 195.755 52.6817V9.31809Z" fill="black"/>
<path d="M70.0892 16.8924C70.1389 17.9638 69.7464 19.0087 69.0031 19.7833C68.1726 20.6445 67.0141 21.1123 65.8173 21.0698C64.6129 21.0815 63.4547 20.6082 62.6044 19.7567C61.7541 18.9053 61.2836 17.7476 61.2992 16.5455C61.2836 15.3434 61.7541 14.1857 62.6044 13.3342C63.4547 12.4828 64.6129 12.0094 65.8173 12.0212C66.4295 12.0192 67.0356 12.1421 67.5985 12.3826C68.1225 12.5935 68.5889 12.9254 68.9597 13.351L68.1922 14.1171C67.6062 13.4214 66.7265 13.0413 65.8173 13.0908C64.9059 13.0865 64.0319 13.452 63.3957 14.1033C62.7595 14.7547 62.4157 15.6362 62.4432 16.5455C62.4238 17.9233 63.2367 19.1774 64.5038 19.7244C65.7708 20.2714 67.2431 20.0038 68.2356 19.0461C68.6812 18.5641 68.9382 17.9382 68.9597 17.2827H65.8173V16.2419H70.0313C70.0699 16.4566 70.0893 16.6743 70.0892 16.8924Z" fill="white"/>
<path d="M76.7215 13.2786H72.8116V16.025H76.374V17.0657H72.8116V19.8121H76.7215V20.8817H71.6531V12.209H76.7215V13.2786Z" fill="white"/>
<path d="M81.4713 20.8817H80.3562V13.2786H77.9234V12.209H83.962V13.2786H81.4713V20.8817Z" fill="white"/>
<path d="M88.2194 20.8817V12.209H89.3344V20.8817H88.2194Z" fill="white"/>
<path d="M94.287 20.8817H93.1719V13.2786H90.7391V12.209H96.7053V13.2786H94.287V20.8817Z" fill="white"/>
<path fill-rule="evenodd" clip-rule="evenodd" d="M100.369 16.5456C100.342 17.7431 100.802 18.9004 101.643 19.7545C103.406 21.5038 106.253 21.5038 108.015 19.7545C108.856 18.9004 109.316 17.7431 109.289 16.5456C109.316 15.3481 108.856 14.1908 108.015 13.3367C107.172 12.4893 106.025 12.0127 104.829 12.0127C103.633 12.0127 102.486 12.4893 101.643 13.3367C100.802 14.1908 100.342 15.3481 100.369 16.5456ZM107.19 19.0318C105.884 20.3292 103.774 20.3292 102.469 19.0318C101.819 18.3698 101.469 17.4717 101.498 16.5456C101.453 15.6278 101.782 14.7309 102.411 14.0594C103.716 12.762 105.826 12.762 107.132 14.0594C107.802 14.7116 108.174 15.611 108.16 16.5456C108.19 17.4717 107.839 18.3698 107.19 19.0318Z" fill="white"/>
<path d="M110.868 20.8817V12.209H112.229L116.457 18.9593V17.2825V12.209H117.572V20.8817H116.414L111.983 13.8134V15.4902V20.8817H110.868Z" fill="white"/>
<path fill-rule="evenodd" clip-rule="evenodd" d="M70.5526 35.423V38.0248H76.8084C76.7103 39.2502 76.2 40.4066 75.3603 41.306C74.0947 42.5927 72.3432 43.2857 70.5381 43.214C66.6992 43.214 63.5872 40.1076 63.5872 36.2758C63.5872 32.4439 66.6992 29.3376 70.5381 29.3376C72.3016 29.3089 74.0045 29.9795 75.2734 31.2022L77.1125 29.3665C75.3819 27.6173 73.0154 26.6422 70.5526 26.6635C67.0467 26.5273 63.7471 28.3166 61.9535 31.3266C60.16 34.3366 60.16 38.0848 61.9535 41.0948C63.7471 44.1048 67.0467 45.8942 70.5526 45.758C73.0604 45.8711 75.4946 44.896 77.2283 43.0839C78.7455 41.42 79.5555 39.2328 79.4874 36.9841C79.4921 36.4362 79.4436 35.8892 79.3426 35.3507L70.5526 35.423ZM86.612 33.5294C83.2149 33.5374 80.4667 36.2913 80.4721 39.6822C80.4774 43.0731 83.2342 45.8184 86.6313 45.8158C90.0284 45.8131 92.7809 43.0635 92.7809 39.6726C92.8048 38.0311 92.16 36.4503 90.9943 35.2922C89.8286 34.134 88.2419 33.4979 86.5975 33.5294H86.612ZM93.9684 39.6918C93.9577 36.3028 96.6986 33.5454 100.094 33.5294C101.738 33.4979 103.325 34.134 104.491 35.2922C105.656 36.4503 106.301 38.0311 106.277 39.6726C106.277 43.0616 103.528 45.8104 100.132 45.8157C96.7372 45.821 93.979 43.0808 93.9684 39.6918ZM96.462 41.2892C97.1233 42.6709 98.5635 43.5087 100.094 43.4019C101.054 43.3796 101.965 42.9711 102.62 42.2689C103.274 41.5667 103.616 40.6305 103.569 39.6726C103.566 38.1414 102.624 36.768 101.196 36.2094C99.7678 35.6508 98.1425 36.0205 97.0977 37.1417C96.0528 38.2628 95.8008 39.9076 96.462 41.2892ZM82.9705 41.3003C83.6365 42.6811 85.0809 43.5147 86.612 43.4019H86.5975C87.558 43.3796 88.4688 42.9711 89.1232 42.2689C89.7776 41.5667 90.1201 40.6305 90.073 39.6726C90.0688 38.1401 89.1258 36.7662 87.6957 36.2088C86.2656 35.6515 84.6394 36.0242 83.5961 37.1484C82.5527 38.2726 82.3046 39.9195 82.9705 41.3003ZM130.895 33.5294C133.296 33.6177 135.393 35.1761 136.166 37.4466L136.47 38.0971L128.23 41.4939C128.747 42.6679 129.93 43.4073 131.214 43.3585C132.453 43.3616 133.603 42.7138 134.24 41.6529L136.34 43.0983C135.197 44.8061 133.271 45.8269 131.214 45.8158C129.578 45.8397 128.003 45.1987 126.85 44.0401C125.698 42.8815 125.067 41.3049 125.103 39.6726C125.002 38.0776 125.568 36.5123 126.666 35.3486C127.763 34.1848 129.294 33.5263 130.895 33.5294ZM127.767 39.4991C127.708 38.596 128.015 37.707 128.62 37.0326C129.225 36.3582 130.076 35.9552 130.982 35.9144C131.937 35.8516 132.837 36.3635 133.27 37.2153L127.767 39.4991ZM123.785 45.4544H121.077V27.3862H123.785V45.4544ZM116.646 34.9026H116.544C115.719 33.9814 114.539 33.4555 113.301 33.4571C110.014 33.6162 107.43 36.3227 107.43 39.6076C107.43 42.8924 110.014 45.5989 113.301 45.758C114.543 45.7788 115.73 45.2495 116.544 44.3125H116.631V45.1942C116.631 47.5503 115.371 48.8079 113.344 48.8079C111.963 48.7756 110.738 47.9132 110.245 46.6252L107.885 47.6081C108.794 49.8151 110.953 51.2505 113.344 51.2362C116.515 51.2362 119.136 49.3716 119.136 44.8329V33.8908H116.646V34.9026ZM113.542 43.4015L113.547 43.4019H113.532L113.542 43.4015ZM115.982 42.2423C115.361 42.9443 114.48 43.3628 113.542 43.4015C111.608 43.229 110.125 41.6113 110.125 39.6726C110.125 37.7324 111.61 36.1137 113.547 35.9433C114.482 35.9913 115.359 36.4142 115.978 37.1163C116.597 37.8184 116.905 38.7402 116.834 39.6726C116.914 40.6093 116.606 41.5379 115.982 42.2423ZM148.851 27.3862H142.364V45.4544H145.072V38.603H148.851C150.955 38.7538 152.967 37.7191 154.065 35.9216C155.163 34.1241 155.163 31.8651 154.065 30.0676C152.967 28.2701 150.955 27.2354 148.851 27.3862ZM145.072 36.059H148.851L148.909 36.1023C150.625 36.1023 152.016 34.7142 152.016 33.0018C152.016 31.2895 150.625 29.9013 148.909 29.9013H145.072V36.059ZM165.548 33.4571C163.533 33.3369 161.639 34.4214 160.726 36.218L163.13 37.2153C163.614 36.3244 164.579 35.8029 165.591 35.8855C166.286 35.8046 166.984 36.0054 167.528 36.443C168.073 36.8806 168.419 37.5183 168.488 38.2127V38.4006C167.618 37.9409 166.648 37.7026 165.664 37.7068C163.072 37.7068 160.451 39.1522 160.451 41.7685C160.502 42.8955 161.009 43.9538 161.854 44.7025C162.7 45.4512 163.813 45.8267 164.94 45.7435C166.329 45.8431 167.662 45.1779 168.415 44.009H168.502V45.4544H171.109V38.5018C171.109 35.3362 168.705 33.5005 165.62 33.5005L165.548 33.4571ZM163.101 41.8263C163.101 42.9104 164.332 43.3585 165.215 43.3585L165.287 43.4019C166.919 43.3622 168.271 42.129 168.459 40.511C167.707 40.0923 166.857 39.8827 165.997 39.9039C164.636 39.9039 163.101 40.3809 163.101 41.8263ZM180.608 33.8908L177.509 41.7251H177.422L174.208 33.8908H171.311L176.134 44.8473L173.382 50.9327H176.206L183.62 33.8908H180.608ZM158.974 45.4544H156.266V27.3862H158.974V45.4544Z" fill="white"/>
<path d="M16.5384 12.9894C16.0768 13.559 15.8491 14.2822 15.9013 15.013V46.9865C15.8572 47.721 16.0954 48.4448 16.5674 49.0101L16.6687 49.1113L34.5817 31.2165V30.7974L16.6398 12.8882L16.5384 12.9894Z" fill="#00D8FF"/>
<path d="M40.519 37.1866L34.5817 31.2168V30.7977L40.519 24.8135L40.6493 24.8857L47.7595 28.9186C49.7868 30.0605 49.7868 31.9396 47.7595 33.0959L40.6783 37.1143L40.519 37.1866Z" fill="url(#paint0_linear)"/>
<path d="M40.6927 37.1143L34.5817 31L16.5384 49.0104C17.3909 49.7584 18.6561 49.7948 19.5504 49.0971L40.7072 37.0998" fill="#F1324B"/>
<path d="M40.6927 24.8999L19.536 12.9026C18.6417 12.2049 17.3764 12.2413 16.5239 12.9894L34.5817 30.9997L40.6927 24.8999Z" fill="#00F076"/>
<path opacity="0.2" d="M40.5189 36.9697L19.536 48.8947C18.6773 49.5356 17.4984 49.5356 16.6398 48.8947L16.5384 48.9959L16.6398 49.0971C17.4968 49.7427 18.6789 49.7427 19.536 49.0971L40.6927 37.0998L40.5189 36.9697Z" fill="black"/>
<path d="M16.5384 48.8078C16.0664 48.2425 15.8282 47.5188 15.8723 46.7842V47.001C15.8282 47.7356 16.0664 48.4593 16.5384 49.0246L16.6398 48.9234L16.5384 48.8078Z" fill="black"/>
<path d="M47.7595 32.8791L40.519 36.9697L40.6493 37.0998L47.7595 33.0815C48.5807 32.6964 49.133 31.9025 49.2076 31C49.0425 31.8164 48.5077 32.5104 47.7595 32.8791Z" fill="black"/>
<path d="M19.536 13.1054L47.7595 29.1211C48.5077 29.4897 49.0426 30.1837 49.2076 31.0002C49.133 30.0976 48.5807 29.3038 47.7595 28.9187L19.536 12.9031C17.5231 11.7467 15.9012 12.7007 15.9012 15.0134V15.2302C15.9012 12.9175 17.5231 11.9635 19.536 13.1054Z" fill="black"/>
<defs>
<linearGradient id="paint0_linear" x1="50.4095" y1="16.2559" x2="15.3798" y2="16.2559" gradientUnits="userSpaceOnUse">
<stop stop-color="#FFE000"/>
<stop offset="0.41" stop-color="#FFBD00"/>
<stop offset="0.78" stop-color="#FFA500"/>
<stop offset="1" stop-color="#FF9C00"/>
</linearGradient>
</defs>
</svg>
