<svg width="199" height="62" viewBox="0 0 199 62" fill="none" xmlns="http://www.w3.org/2000/svg">
<path d="M8.93418 60.5757H8.93558H190.629C194.792 60.5761 198.186 57.2395 198.246 53.0817V53.072L198.246 8.92782L198.246 8.91808C198.186 4.7603 194.792 1.42371 190.629 1.42415H8.93558C4.78565 1.42415 1.41939 4.78251 1.41939 8.92782L1.41939 53.072L1.41939 53.0734C1.42814 57.2143 4.78865 60.567 8.93418 60.5757Z" fill="black" stroke="#999999" stroke-width="1.33333"/>
<path d="M196.132 53.0722C196.132 56.1297 193.648 58.6083 190.585 58.6083H8.93559C7.46213 58.6121 6.0477 58.0305 5.00445 56.9919C3.96119 55.9533 3.37487 54.5429 3.37488 53.0722V8.91353C3.38286 5.8537 5.87014 3.37743 8.93559 3.37744H190.629C193.675 3.40126 196.132 5.87289 196.132 8.91353V53.0722Z" fill="black"/>
<path d="M45.7174 30.6819C45.7569 27.8117 47.2649 25.1612 49.7141 23.657C48.1588 21.4399 45.6472 20.0846 42.937 20C40.0408 19.6964 37.3328 21.7056 35.8703 21.7056C34.4077 21.7056 32.1486 20.0289 29.7448 20.0867C26.5771 20.191 23.6965 21.9469 22.1567 24.7122C18.8696 30.3783 21.3168 38.7186 24.4737 43.3007C26.0521 45.5412 27.8912 48.0562 30.2661 47.9695C32.641 47.8828 33.4954 46.5241 36.3337 46.5241C39.1719 46.5241 39.9684 47.9695 42.4302 47.9695C44.8919 47.9695 46.5428 45.7146 48.0633 43.4453C49.1935 41.8477 50.0635 40.0816 50.6409 38.2127C47.6252 36.927 45.6822 33.9549 45.7174 30.6819Z" fill="white"/>
<path d="M41.0835 16.9935C42.4624 15.3443 43.143 13.2235 42.9805 11.0815C40.8769 11.3 38.933 12.3011 37.5356 13.8857C36.1567 15.4515 35.4586 17.5006 35.5952 19.5808C37.7251 19.6033 39.7478 18.6498 41.0835 16.9935Z" fill="white"/>
<path fill-rule="evenodd" clip-rule="evenodd" d="M76.4751 47.6225H79.7767L73.5354 28.3979H69.6979L63.5001 47.6225H66.7004L68.4236 41.9708H74.6794L76.4751 47.6225ZM72.5217 34.6423L74.1436 39.6725H68.9594L70.6826 34.6279C71.0978 33.0282 71.4019 31.8189 71.5949 30.9998C72.0294 32.8789 72.3383 34.093 72.5217 34.6423Z" fill="white"/>
<path fill-rule="evenodd" clip-rule="evenodd" d="M93.8088 46.1195C95.1492 44.5731 95.8346 42.5672 95.7203 40.5256C95.7964 38.6712 95.1942 36.8525 94.026 35.4086C92.9055 34.0863 91.2245 33.3708 89.4928 33.479C87.7611 33.5872 86.1826 34.5064 85.236 35.9579L85.0623 33.7608H82.3398C82.4171 35.3219 82.4557 36.8445 82.4557 38.3285V53.2745H85.6126V45.9749C86.4577 47.3097 87.9745 48.0668 89.5514 47.9407C91.1672 47.9748 92.7192 47.3109 93.8088 46.1195ZM91.6656 37.3022C92.3041 38.2961 92.6225 39.4613 92.5779 40.6412C92.6371 41.8898 92.2974 43.1248 91.6077 44.1681C90.99 45.0511 89.9633 45.5581 88.8853 45.5124C87.9638 45.5437 87.0767 45.1619 86.4669 44.4716C85.8437 43.7672 85.5124 42.8525 85.5402 41.9132V39.6005C85.5511 39.2827 85.5998 38.9673 85.685 38.6609C85.8537 37.8822 86.2826 37.1839 86.9014 36.6806C87.4814 36.1944 88.2147 35.9282 88.9722 35.929C90.0455 35.8997 91.0602 36.417 91.6656 37.3022Z" fill="white"/>
<path fill-rule="evenodd" clip-rule="evenodd" d="M109.796 46.1195C111.136 44.5731 111.822 42.5672 111.707 40.5256C111.782 38.6714 111.18 36.8532 110.013 35.4086C108.893 34.0863 107.212 33.3708 105.48 33.479C103.748 33.5872 102.17 34.5064 101.223 35.9579L101.049 33.7608H98.3269C98.4041 35.3219 98.4427 36.8445 98.4427 38.3285V53.2745H101.6V45.9749C102.445 47.3097 103.962 48.0668 105.538 47.9407C107.155 47.9767 108.707 47.3125 109.796 46.1195ZM107.653 37.3022C108.291 38.2961 108.61 39.4613 108.565 40.6412C108.62 41.8671 108.291 43.0798 107.624 44.1103C107.006 44.9933 105.979 45.5003 104.901 45.4546C103.959 45.5271 103.036 45.1649 102.396 44.4716C101.774 43.7665 101.443 42.8523 101.469 41.9132V39.6005C101.481 39.2828 101.53 38.9675 101.614 38.6609C101.782 37.8818 102.211 37.1832 102.83 36.6806C103.41 36.1944 104.144 35.9282 104.901 35.929C105.995 35.8796 107.036 36.3992 107.653 37.3022Z" fill="white"/>
<path d="M129.519 42.2312C129.568 43.7478 128.943 45.2085 127.81 46.2207C126.337 47.42 124.466 48.0236 122.568 47.9119C120.822 47.994 119.089 47.5778 117.572 46.7121L118.282 44.1392C119.625 44.9547 121.17 45.3801 122.742 45.3679C123.712 45.429 124.674 45.1533 125.464 44.5873C126.101 44.0809 126.461 43.3038 126.435 42.4914C126.452 41.7546 126.164 41.0433 125.638 40.5256C124.859 39.8664 123.952 39.3743 122.974 39.0801C119.614 37.7889 117.934 35.9339 117.934 33.5151C117.882 31.9848 118.552 30.5187 119.744 29.5546C121.09 28.5159 122.768 28.002 124.465 28.1091C125.965 28.0604 127.455 28.3727 128.809 29.0198L128.071 31.5349C126.935 30.9333 125.664 30.6299 124.378 30.6531C123.46 30.5957 122.552 30.8788 121.83 31.4481C121.334 31.888 121.054 32.5208 121.062 33.1827C121.049 33.9117 121.376 34.6056 121.945 35.0618C122.799 35.6891 123.747 36.177 124.755 36.5072C126.141 36.9949 127.395 37.7963 128.418 38.8489C129.198 39.7983 129.591 41.0058 129.519 42.2312Z" fill="white"/>
<path d="M139.786 36.0735H136.383V42.8093C136.383 44.5246 136.982 45.3822 138.179 45.3822C138.641 45.3922 139.104 45.3436 139.554 45.2377L139.656 47.5649C138.881 47.8196 138.067 47.937 137.252 47.9118C136.17 47.9814 135.112 47.5747 134.356 46.7988C133.565 45.7186 133.2 44.3865 133.328 43.0551V36.0735H131.3V33.7608H133.328V31.2168L136.354 30.3062V33.7608H139.757L139.786 36.0735Z" fill="white"/>
<path fill-rule="evenodd" clip-rule="evenodd" d="M153.311 45.8302C154.561 44.3734 155.212 42.4993 155.136 40.5832C155.222 38.7282 154.589 36.9115 153.369 35.5096C152.105 34.1468 150.305 33.407 148.446 33.486C146.545 33.3978 144.702 34.1484 143.406 35.5385C142.128 36.9924 141.459 38.8816 141.538 40.8144C141.472 42.6828 142.119 44.5067 143.348 45.9169C144.589 47.2789 146.372 48.0203 148.214 47.9405C150.142 48.0234 152.008 47.2508 153.311 45.8302ZM151.11 37.3887C151.685 38.39 151.971 39.5308 151.936 40.6844C151.949 41.8559 151.633 43.0078 151.023 44.0089C150.475 45.0379 149.403 45.6811 148.236 45.6811C147.068 45.6811 145.996 45.0379 145.448 44.0089C144.878 43.0163 144.592 41.8861 144.623 40.7422C144.583 39.5698 144.868 38.4092 145.448 37.3887C146.006 36.3182 147.137 35.6692 148.344 35.7264C149.508 35.7094 150.581 36.354 151.11 37.3887Z" fill="white"/>
<path d="M165.171 36.4635C164.851 36.4052 164.526 36.3762 164.201 36.3768C163.205 36.3261 162.253 36.7902 161.681 37.6054C161.141 38.4169 160.873 39.3784 160.914 40.3518V47.579H157.829V38.0824C157.829 36.4828 157.791 35.0373 157.714 33.746H160.407L160.523 36.4057H160.61C160.903 35.5395 161.441 34.7765 162.159 34.2086C162.804 33.7299 163.586 33.4714 164.389 33.4714C164.645 33.4516 164.901 33.4516 165.157 33.4714L165.171 36.4635Z" fill="white"/>
<path fill-rule="evenodd" clip-rule="evenodd" d="M178.87 41.4792C178.957 41.0025 178.996 40.5183 178.986 40.0338C179.025 38.5064 178.595 37.0035 177.755 35.7263C176.73 34.2456 175.009 33.4026 173.208 33.5003C171.324 33.4268 169.517 34.2534 168.343 35.7263C167.165 37.206 166.554 39.0559 166.619 40.9444C166.526 42.8177 167.188 44.6503 168.458 46.0324C169.813 47.3456 171.656 48.0323 173.541 47.926C175.138 47.9656 176.725 47.6752 178.204 47.0732L177.726 44.9339C176.528 45.3828 175.256 45.6035 173.976 45.5843C172.883 45.6315 171.81 45.2881 170.949 44.6159C170.056 43.822 169.562 42.6726 169.602 41.4792H178.87ZM175.496 36.8682C175.926 37.582 176.132 38.4073 176.09 39.2388H169.66C169.73 38.3687 170.046 37.5365 170.573 36.8393C171.127 36.0309 172.053 35.5576 173.034 35.5818C174.03 35.5224 174.978 36.0174 175.496 36.8682Z" fill="white"/>
<path fill-rule="evenodd" clip-rule="evenodd" d="M71.595 20.4049C72.6419 19.4061 73.175 17.9851 73.0431 16.5455C73.1422 15.2554 72.6589 13.9885 71.7253 13.0909C70.6446 12.2947 69.3144 11.9103 67.9747 12.0068C67.097 12.004 66.2205 12.0717 65.3536 12.2092V21.4745C66.0892 21.5568 66.8291 21.5955 67.5692 21.5901C69.0094 21.6831 70.4359 21.2631 71.595 20.4049ZM70.5668 14.0015C71.1938 14.6954 71.5125 15.6132 71.4501 16.5455H71.5081C71.602 17.5969 71.262 18.641 70.5668 19.4364C69.8091 20.0915 68.8116 20.4007 67.8154 20.2892C67.473 20.3112 67.1296 20.3112 66.7873 20.2892V13.221C67.1886 13.1488 67.5959 13.1149 68.0037 13.1198C68.9426 13.0535 69.8681 13.3719 70.5668 14.0015Z" fill="white"/>
<path fill-rule="evenodd" clip-rule="evenodd" d="M80.7035 20.5639C81.3159 19.8492 81.6364 18.9307 81.6013 17.9909C81.6364 17.0756 81.3205 16.1813 80.7179 15.4903C80.0966 14.8211 79.213 14.4567 78.2996 14.4929C77.3654 14.4511 76.46 14.8211 75.8234 15.5048C75.1984 16.2187 74.8719 17.1449 74.9111 18.0921C74.8792 19.0139 75.2002 19.9132 75.8089 20.6072C76.4178 21.2768 77.293 21.6422 78.1982 21.6046C79.1463 21.6437 80.0632 21.2628 80.7035 20.5639ZM79.6174 16.5455C79.8699 16.9865 80.0092 17.4831 80.0229 17.9909V18.0921C80.057 18.688 79.9161 19.2808 79.6174 19.7978C79.3691 20.319 78.834 20.6429 78.2562 20.6217C77.6563 20.6581 77.0904 20.3417 76.8081 19.8122C76.5262 19.3201 76.3859 18.7599 76.4026 18.1933C76.3828 17.6172 76.5231 17.0469 76.8081 16.5455C77.0877 16.0133 77.6555 15.6959 78.2562 15.736C78.8307 15.7122 79.3649 16.0298 79.6174 16.5455Z" fill="white"/>
<path d="M92.9689 14.6953L90.8402 21.5034H89.3921L88.5087 18.6125C88.2879 17.89 88.1042 17.1567 87.9585 16.4154C87.8269 17.1597 87.643 17.8939 87.4082 18.6125L86.4669 21.5034H85.0188L83.0784 14.6953H84.6278L85.4098 17.9909C85.5932 18.7522 85.7477 19.4798 85.8732 20.1736C85.9891 19.605 86.1773 18.8823 86.438 18.0054L87.4082 14.7531H88.6391L89.5659 17.9331C89.7879 18.7137 89.9713 19.4605 90.1161 20.1736C90.2305 19.4191 90.3852 18.6712 90.5795 17.9331L91.405 14.7531H92.8531L92.9689 14.6953Z" fill="white"/>
<path d="M100.847 21.5031H99.3985V17.6003C99.3985 16.3958 98.9399 15.7935 98.0228 15.7935C97.6018 15.7899 97.2001 15.9693 96.9222 16.285C96.6444 16.6114 96.4952 17.0276 96.5023 17.4558V21.5031H95.0542V16.6463C95.0542 16.0489 95.0542 15.3984 95.0542 14.695H96.2127V15.7646C96.396 15.4259 96.6657 15.1417 96.9946 14.9407C97.4068 14.683 97.8839 14.5476 98.3703 14.5504C98.9641 14.5315 99.5398 14.7561 99.9632 15.172C100.526 15.7829 100.809 16.5995 100.745 17.4269L100.847 21.5031Z" fill="white"/>
<path d="M105.032 21.5035H103.453V11.5732H104.901L105.032 21.5035Z" fill="white"/>
<path fill-rule="evenodd" clip-rule="evenodd" d="M113.069 20.5635C113.681 19.8489 114.001 18.9304 113.966 17.9906C113.995 17.0988 113.69 16.2282 113.112 15.5478C112.491 14.8786 111.607 14.5142 110.694 14.5504C109.768 14.4937 108.864 14.842 108.217 15.5044C107.587 16.2162 107.255 17.1426 107.291 18.0918C107.255 19.0116 107.57 19.9107 108.174 20.6069C108.782 21.2782 109.658 21.6438 110.563 21.6042C111.511 21.6434 112.428 21.2624 113.069 20.5635ZM111.982 16.5451C112.235 16.9862 112.374 17.4828 112.388 17.9906V18.0918C112.431 18.6565 112.316 19.2221 112.055 19.7251C111.807 20.2464 111.271 20.5703 110.694 20.5491C110.094 20.5854 109.528 20.2691 109.246 19.7396C108.976 19.2687 108.836 18.7352 108.84 18.193C108.82 17.6169 108.961 17.0465 109.246 16.5451C109.5 16.0245 110.042 15.7059 110.621 15.7357C111.196 15.7118 111.73 16.0295 111.982 16.5451Z" fill="white"/>
<path fill-rule="evenodd" clip-rule="evenodd" d="M119.947 21.5034H121.308C121.236 20.9525 121.207 20.3967 121.221 19.8412V17.3261C121.221 15.447 120.328 14.5074 118.542 14.5074C117.72 14.4792 116.906 14.6847 116.196 15.1001L116.486 16.1408C117.004 15.8072 117.608 15.6314 118.224 15.6349C119.189 15.6349 119.672 16.083 119.672 16.9792V17.037C118.665 16.9811 117.662 17.2063 116.776 17.6874C116.102 18.0822 115.701 18.816 115.733 19.5954C115.704 20.1305 115.898 20.6538 116.269 21.0409C116.677 21.4613 117.247 21.6875 117.833 21.6624C118.615 21.7041 119.365 21.3512 119.831 20.7229L119.947 21.5034ZM119.73 18.1066V19.1474C119.735 19.5728 119.529 19.9732 119.18 20.217C118.914 20.4212 118.588 20.5329 118.253 20.535C117.982 20.5458 117.718 20.4527 117.514 20.2748C117.308 20.0637 117.202 19.774 117.225 19.4798C117.225 18.5644 118.06 18.1066 119.73 18.1066Z" fill="white"/>
<path fill-rule="evenodd" clip-rule="evenodd" d="M128.592 21.5035H129.939C129.9 20.9446 129.891 20.3375 129.91 19.6822V11.5732H128.462V15.4615C128.046 14.8156 127.301 14.458 126.536 14.5364C125.724 14.5237 124.949 14.8736 124.422 15.4904C123.808 16.243 123.493 17.1951 123.538 18.1645C123.496 19.073 123.784 19.9662 124.349 20.6796C124.846 21.3048 125.606 21.663 126.406 21.6481C127.319 21.7108 128.18 21.2209 128.592 20.405V21.5035ZM128.36 17.4707V18.6126V18.6271C128.381 19.07 128.242 19.5056 127.969 19.8557C127.684 20.2267 127.236 20.4368 126.768 20.4194C126.237 20.4334 125.735 20.1776 125.435 19.7401C125.105 19.2558 124.942 18.6772 124.972 18.0922C124.95 17.4813 125.122 16.8791 125.464 16.3722C125.764 15.9346 126.266 15.6788 126.797 15.6928C127.17 15.6827 127.534 15.8174 127.81 16.0686C128.088 16.3103 128.281 16.6345 128.36 16.9937C128.378 17.1522 128.378 17.3122 128.36 17.4707Z" fill="white"/>
<path fill-rule="evenodd" clip-rule="evenodd" d="M142.016 20.5639C142.628 19.8493 142.949 18.9307 142.914 17.991C142.946 17.101 142.647 16.2307 142.074 15.5482C141.454 14.8773 140.569 14.5126 139.656 14.5508C138.726 14.4898 137.815 14.8384 137.165 15.5048C136.535 16.2166 136.203 17.1429 136.238 18.0922C136.202 19.012 136.518 19.9111 137.122 20.6073C137.73 21.2769 138.606 21.6422 139.511 21.6046C140.459 21.6457 141.377 21.2645 142.016 20.5639ZM140.93 16.5455C141.183 16.9866 141.322 17.4832 141.335 17.991V18.0922C141.362 18.6671 141.227 19.238 140.944 19.74C140.676 20.2453 140.149 20.5612 139.576 20.5612C139.003 20.5612 138.476 20.2453 138.208 19.74C137.938 19.2691 137.798 18.7355 137.802 18.1933C137.782 17.6172 137.923 17.0469 138.208 16.5455C138.473 16.0424 138.999 15.7299 139.569 15.7361C140.143 15.7122 140.678 16.0299 140.93 16.5455Z" fill="white"/>
<path d="M151.067 21.5034H149.619V17.6006C149.619 16.3961 149.136 15.7938 148.171 15.7938C147.747 15.7777 147.34 15.9594 147.07 16.2853C146.791 16.611 146.642 17.0276 146.65 17.4561V21.5034H145.202V16.6466C145.202 16.0492 145.202 15.3987 145.202 14.6953H146.534V15.7649C146.719 15.4271 146.988 15.1431 147.316 14.941C147.749 14.6697 148.253 14.5338 148.764 14.5507C149.358 14.5318 149.934 14.7564 150.357 15.1723C150.92 15.7832 151.203 16.5998 151.139 17.4272L151.067 21.5034Z" fill="white"/>
<path d="M161.29 15.8225H159.625V19.1326C159.625 19.971 159.929 20.3902 160.508 20.3902C160.734 20.4191 160.963 20.4191 161.189 20.3902V21.5465C160.811 21.6724 160.414 21.7311 160.016 21.72C159.475 21.7627 158.944 21.5612 158.568 21.1707C158.179 20.6416 157.999 19.9883 158.061 19.335V15.8225H157.062V14.6951H158.061V13.452L159.509 13.0039V14.6951H161.174V15.8225H161.29Z" fill="white"/>
<path d="M169.313 21.5035H167.865V17.6297C167.865 16.4059 167.406 15.794 166.489 15.794C165.82 15.7693 165.221 16.2056 165.041 16.8492C165.014 17.0313 165.014 17.2163 165.041 17.3984V21.5035H163.593V11.5732H165.041V15.6783C165.47 14.9592 166.259 14.5321 167.097 14.5653C167.655 14.5362 168.202 14.7284 168.618 15.1002C169.171 15.7275 169.447 16.5507 169.385 17.384L169.313 21.5035Z" fill="white"/>
<path fill-rule="evenodd" clip-rule="evenodd" d="M177.61 18.468C177.632 18.2373 177.632 18.0049 177.61 17.7742C177.609 17.0172 177.371 16.2796 176.93 15.6638C176.43 14.9337 175.584 14.5172 174.7 14.5653C173.773 14.5285 172.885 14.9369 172.31 15.6638C171.735 16.3902 171.438 17.297 171.47 18.2223C171.422 19.1422 171.746 20.043 172.368 20.7229C173.032 21.3659 173.936 21.7015 174.859 21.648C175.642 21.6642 176.421 21.5216 177.147 21.2288L176.915 20.1736C176.328 20.3934 175.704 20.5012 175.076 20.4916C174.553 20.505 174.041 20.3364 173.628 20.0146C173.187 19.6237 172.943 19.0568 172.962 18.468H177.61ZM175.873 16.2131C176.085 16.5653 176.186 16.9734 176.162 17.3839L173.02 17.3695C173.058 16.9452 173.213 16.5398 173.469 16.1986C173.742 15.8058 174.192 15.5731 174.671 15.5771C175.158 15.5536 175.619 15.7975 175.873 16.2131Z" fill="white"/>
</svg>
