<svg width="36" height="36" viewBox="0 0 36 36" fill="none" xmlns="http://www.w3.org/2000/svg">
<path d="M22.6472 18.9507L19.5 17.1343V10.5C19.5 10.1022 19.342 9.72064 19.0607 9.43934C18.7794 9.15804 18.3978 9 18 9C17.6022 9 17.2207 9.15804 16.9393 9.43934C16.658 9.72064 16.5 10.1022 16.5 10.5V18C16.4999 18.2634 16.5692 18.5221 16.7009 18.7502C16.8325 18.9783 17.0219 19.1677 17.25 19.2993L21.1472 21.5493C21.3179 21.6479 21.5062 21.712 21.7016 21.7377C21.897 21.7635 22.0956 21.7505 22.2859 21.6996C22.4763 21.6486 22.6548 21.5606 22.8111 21.4406C22.9675 21.3207 23.0987 21.1711 23.1972 21.0004C23.2957 20.8297 23.3596 20.6413 23.3853 20.4459C23.411 20.2505 23.3979 20.0519 23.3469 19.8616C23.2958 19.6712 23.2077 19.4928 23.0877 19.3365C22.9676 19.1802 22.818 19.0491 22.6472 18.9507ZM18 3C15.0333 3 12.1332 3.87973 9.66645 5.52796C7.19972 7.17618 5.27713 9.51886 4.14181 12.2597C3.0065 15.0006 2.70945 18.0166 3.28823 20.9264C3.86701 23.8361 5.29562 26.5088 7.39341 28.6066C9.49119 30.7044 12.1639 32.133 15.0737 32.7118C17.9834 33.2906 20.9994 32.9935 23.7403 31.8582C26.4812 30.7229 28.8238 28.8003 30.4721 26.3336C32.1203 23.8668 33 20.9667 33 18C32.9956 14.0231 31.4138 10.2104 28.6017 7.39828C25.7896 4.5862 21.9769 3.00442 18 3ZM18 30C15.6266 30 13.3066 29.2962 11.3332 27.9776C9.35977 26.6591 7.8217 24.7849 6.91345 22.5922C6.0052 20.3995 5.76756 17.9867 6.23058 15.6589C6.69361 13.3311 7.8365 11.1929 9.51473 9.51472C11.193 7.83649 13.3312 6.6936 15.6589 6.23058C17.9867 5.76755 20.3995 6.00519 22.5922 6.91345C24.7849 7.8217 26.6591 9.35977 27.9776 11.3332C29.2962 13.3065 30 15.6266 30 18C29.9964 21.1815 28.7309 24.2316 26.4813 26.4813C24.2316 28.7309 21.1815 29.9964 18 30Z" fill="#49D600"/>
</svg>
