<svg width="36" height="36" viewBox="0 0 36 36" fill="none" xmlns="http://www.w3.org/2000/svg">
<path d="M28.5 6H7.5C6.30653 6 5.16193 6.47411 4.31802 7.31802C3.47411 8.16193 3 9.30653 3 10.5V25.5C3 26.6935 3.47411 27.8381 4.31802 28.682C5.16193 29.5259 6.30653 30 7.5 30H28.5C29.6935 30 30.8381 29.5259 31.682 28.682C32.5259 27.8381 33 26.6935 33 25.5V10.5C33 9.30653 32.5259 8.16193 31.682 7.31802C30.8381 6.47411 29.6935 6 28.5 6ZM27.885 9L19.065 17.82C18.9256 17.9606 18.7597 18.0722 18.5769 18.1483C18.3941 18.2245 18.198 18.2637 18 18.2637C17.802 18.2637 17.6059 18.2245 17.4231 18.1483C17.2403 18.0722 17.0744 17.9606 16.935 17.82L8.115 9H27.885ZM30 25.5C30 25.8978 29.842 26.2794 29.5607 26.5607C29.2794 26.842 28.8978 27 28.5 27H7.5C7.10218 27 6.72064 26.842 6.43934 26.5607C6.15804 26.2794 6 25.8978 6 25.5V11.115L14.82 19.935C15.6638 20.7777 16.8075 21.251 18 21.251C19.1925 21.251 20.3362 20.7777 21.18 19.935L30 11.115V25.5Z" fill="#49D600"/>
</svg>
