<svg width="36" height="36" viewBox="0 0 36 36" fill="none" xmlns="http://www.w3.org/2000/svg">
<path d="M18.0212 2.99932C16.0513 2.99932 14.1008 3.38731 12.2809 4.14113C10.461 4.89495 8.80745 5.99984 7.41457 7.39272C4.60153 10.2058 3.02117 14.0211 3.02117 17.9993C3.00806 21.463 4.20736 24.8221 6.41117 27.4943L3.41117 30.4943C3.20304 30.7053 3.06204 30.9731 3.00598 31.2641C2.94992 31.5551 2.9813 31.8562 3.09617 32.1293C3.22076 32.3992 3.42273 32.626 3.67644 32.7809C3.93016 32.9358 4.22417 33.0118 4.52117 32.9993H18.0212C21.9994 32.9993 25.8147 31.419 28.6278 28.6059C31.4408 25.7929 33.0212 21.9776 33.0212 17.9993C33.0212 14.0211 31.4408 10.2058 28.6278 7.39272C25.8147 4.57968 21.9994 2.99932 18.0212 2.99932ZM18.0212 29.9993H8.13617L9.53117 28.6043C9.67291 28.4654 9.78566 28.2997 9.86291 28.1169C9.94015 27.9341 9.98035 27.7378 9.98117 27.5393C9.97554 27.1437 9.8138 26.7663 9.53117 26.4893C7.56705 24.5274 6.34394 21.9451 6.07021 19.1825C5.79649 16.4199 6.48909 13.6478 8.03001 11.3386C9.57094 9.02938 11.8649 7.32586 14.5209 6.51828C17.177 5.7107 20.031 5.84903 22.5965 6.90969C25.162 7.97036 27.2805 9.88774 28.5908 12.3352C29.9012 14.7826 30.3225 17.6086 29.7829 20.3318C29.2433 23.055 27.7761 25.5069 25.6315 27.2697C23.4868 29.0325 20.7973 29.9971 18.0212 29.9993Z" fill="#49D600"/>
<path d="M15.5919 15.698C15.2097 15.8019 14.8019 15.7505 14.4575 15.555C14.2856 15.457 14.1348 15.3259 14.0138 15.1694C13.8928 15.0129 13.8039 14.834 13.7523 14.643C13.7007 14.452 13.6874 14.2526 13.7132 14.0565C13.739 13.8603 13.8033 13.6712 13.9025 13.5C14.2974 12.816 14.8654 12.248 15.5493 11.853C16.2333 11.4581 17.0091 11.2501 17.7989 11.25C18.5887 11.2498 19.3646 11.4576 20.0487 11.8523C20.7328 12.247 21.3009 12.8149 21.696 13.4987C22.0911 14.1826 22.2993 14.9584 22.2996 15.7482C22.2999 16.538 22.0924 17.3139 21.6978 17.9981C21.3032 18.6823 20.7356 19.2505 20.0518 19.6458C19.368 20.0411 18.5923 20.2495 17.8025 20.25C17.4047 20.25 17.0231 20.0919 16.7418 19.8106C16.4605 19.5293 16.3025 19.1478 16.3025 18.75C16.3025 18.3521 16.4605 17.9706 16.7418 17.6893C17.0231 17.408 17.4047 17.25 17.8025 17.25C18.2003 17.25 18.5819 17.0919 18.8632 16.8106C19.1445 16.5293 19.3025 16.1478 19.3025 15.75C19.3048 15.4178 19.1969 15.0943 18.9955 14.8302C18.7942 14.566 18.5109 14.3762 18.19 14.2904C17.8691 14.2046 17.5289 14.2277 17.2226 14.3561C16.9163 14.4846 16.6612 14.711 16.4975 15C16.2996 15.3431 15.9741 15.594 15.5919 15.698Z" fill="#49D600"/>
<path d="M17.5025 21.75C17.7965 21.6976 18.0994 21.7341 18.3725 21.855V21.87C18.7329 22.0311 19.0213 22.3195 19.1825 22.68C19.2665 22.858 19.3076 23.0532 19.3025 23.25C19.3025 23.6478 19.1445 24.0293 18.8632 24.3106C18.5819 24.5919 18.2003 24.75 17.8025 24.75C17.6051 24.7511 17.4094 24.7133 17.2266 24.6386C17.0439 24.564 16.8777 24.454 16.7375 24.315C16.5972 24.1781 16.4851 24.015 16.4075 23.835C16.3338 23.6489 16.2981 23.45 16.3025 23.25C16.2926 23.0431 16.3338 22.8371 16.4225 22.65C16.4956 22.4712 16.6026 22.3082 16.7375 22.17L16.9625 21.975L17.2325 21.84L17.5025 21.75Z" fill="#49D600"/>
</svg>
