<svg width="36" height="36" viewBox="0 0 36 36" fill="none" xmlns="http://www.w3.org/2000/svg">
<path fill-rule="evenodd" clip-rule="evenodd" d="M25.1639 9.96082C23.8405 7.43922 21.4591 6.24559 17.872 6.24559C13.6588 6.24559 11.1537 7.94684 10.1162 11.5975C13.1977 12.8046 15.1126 12.6936 18.3753 10.6917L18.8344 10.41L19.3673 10.4877C22.2011 10.9006 23.6683 10.7002 25.1639 9.96082ZM26.1154 12.7996C26.1611 13.0338 26.2019 13.2745 26.2379 13.5217V23.1652L22.0453 27.2212C21.8468 27.1754 21.6399 27.1511 21.4275 27.1511C19.9161 27.1511 18.6909 28.3763 18.6909 29.8877C18.6909 31.3991 19.9161 32.6243 21.4275 32.6243C22.9388 32.6243 24.164 31.3991 24.164 29.8877C24.164 29.7067 24.1464 29.5297 24.1129 29.3585L28.7586 24.8642C29.0264 24.6051 29.1863 24.2558 29.2089 23.886C31.1455 23.0762 32.9047 20.7907 32.9047 17.9622C32.9047 15.0268 31.102 13.0102 29.0632 12.3864C27.9477 6.41747 24.0992 3.27188 17.872 3.27188C11.7149 3.27188 7.94357 6.42602 6.89422 12.3872C4.85654 13.012 3.05542 15.0281 3.05542 17.9622C3.05542 20.9396 5.00482 23.3154 7.05843 24.0016C8.1621 27.8145 11.8753 31.3746 16.3484 31.3746C17.1695 31.3746 17.8352 30.7089 17.8352 29.8877C17.8352 29.0665 17.1695 28.4008 16.3484 28.4008C12.7636 28.4008 9.69782 24.7322 9.69782 21.7368V14.6127C13.1273 15.8171 15.7982 15.6435 19.4689 13.5026C22.3958 13.8728 24.3016 13.6167 26.1154 12.7996ZM6.72411 20.1509V15.9326C6.31633 16.4089 6.02913 17.0945 6.02913 17.9622C6.02913 18.8259 6.32625 19.5834 6.72411 20.1509ZM29.931 17.9622C29.931 18.8434 29.6217 19.6141 29.2116 20.1852V15.9046C29.6323 16.3819 29.931 17.0774 29.931 17.9622ZM13.9671 23.7455C16.1857 25.915 19.6775 25.915 21.9556 23.7581C22.4068 23.3309 22.4262 22.6189 21.9991 22.1677C21.5719 21.7165 20.8598 21.6971 20.4087 22.1243C19.0027 23.4555 16.8886 23.4555 15.5402 22.1368C15.0959 21.7024 14.3837 21.7104 13.9493 22.1546C13.5149 22.5989 13.5228 23.3111 13.9671 23.7455ZM15.1861 16.1876H13.8305C12.9267 16.1876 12.4748 16.5662 12.4748 17.3232C12.4748 18.0803 12.9267 18.4588 13.8305 18.4588H15.1861C16.0899 18.4588 16.5418 18.0803 16.5418 17.3232C16.5418 16.5662 16.0899 16.1876 15.1861 16.1876ZM20.7496 16.1876H22.1053C23.0091 16.1876 23.4609 16.5662 23.4609 17.3232C23.4609 18.0803 23.0091 18.4588 22.1053 18.4588H20.7496C19.8459 18.4588 19.394 18.0803 19.394 17.3232C19.394 16.5662 19.8459 16.1876 20.7496 16.1876Z" fill="#49D600"/>
</svg>
