<svg width="113" height="113" viewBox="0 0 113 113" fill="none" xmlns="http://www.w3.org/2000/svg">
<circle cx="56.5" cy="56.5" r="56.5" fill="#00B24B"/>
<path d="M80.9713 47.7602V51.2561L56.4998 61.744L32.0282 51.2561V47.7602C31.0995 47.755 30.2072 48.1217 29.5505 48.7784C28.8937 49.4352 28.5271 50.3274 28.5323 51.2561V79.2236C28.5271 80.1524 28.8937 81.0446 29.5505 81.7014C30.2072 82.3581 31.0995 82.7248 32.0282 82.7196H80.7771C81.7059 82.7248 82.5981 82.3581 83.2549 81.7014C83.9116 81.0446 84.2783 80.1524 84.2731 79.2236V51.2561C84.3573 50.3398 84.0435 49.4315 83.4117 48.7626C82.7799 48.0936 81.891 47.7285 80.9713 47.7602Z" fill="black"/>
<path d="M80.9714 79.2235H32.0283V54.752L56.4999 65.2398L80.9714 54.752V79.2235Z" fill="white"/>
<path fill-rule="evenodd" clip-rule="evenodd" d="M37.2723 46.0123H75.7276V51.4504L79.2236 49.8966V37.2724C79.2288 35.4165 78.4938 33.6351 77.1814 32.3227C75.8691 31.0103 74.0877 30.2754 72.2317 30.2805H40.7683C38.9123 30.2754 37.1309 31.0103 35.8186 32.3227C34.5062 33.6351 33.7712 35.4165 33.7764 37.2724V49.8966L37.2723 51.4504V46.0123ZM37.2723 42.5162V40.7683H75.7276V42.5162H37.2723ZM72.2317 33.7764H40.7683C39.8395 33.7712 38.9473 34.1379 38.2905 34.7946C37.6338 35.4514 37.2671 36.3436 37.2723 37.2724H75.7276C75.7328 36.3436 75.3662 35.4514 74.7094 34.7946C74.0527 34.1379 73.1605 33.7712 72.2317 33.7764Z" fill="black"/>
<path fill-rule="evenodd" clip-rule="evenodd" d="M80.9713 51.2561V47.7602C81.891 47.7285 82.7799 48.0936 83.4117 48.7626C84.0435 49.4315 84.3573 50.3398 84.2731 51.2561V79.2236C84.2783 80.1524 83.9116 81.0446 83.2549 81.7014C82.5981 82.3581 81.7059 82.7248 80.7771 82.7196H32.0282C31.0995 82.7248 30.2072 82.3581 29.5505 81.7014C28.8937 81.0446 28.5271 80.1524 28.5323 79.2236V51.2561C28.5271 50.3274 28.8937 49.4352 29.5505 48.7784C30.2072 48.1217 31.0995 47.755 32.0282 47.7602V51.2561L56.4998 61.744L80.9713 51.2561ZM32.0282 54.7521V79.2236H80.9713V54.7521L56.4998 65.2399L32.0282 54.7521Z" fill="black"/>
<path d="M37.2725 42.5165V40.7685H75.7278V42.5165H37.2725Z" fill="white"/>
</svg>
