<svg width="28" height="28" viewBox="0 0 28 28" fill="none" xmlns="http://www.w3.org/2000/svg">
<path d="M4.66667 4.66667H23.3333C24.2616 4.66667 25.1518 5.03542 25.8082 5.69179C26.4646 6.34817 26.8333 7.23841 26.8333 8.16667V15.9167C26.8333 16.469 26.3856 16.9167 25.8333 16.9167H25.5C24.9477 16.9167 24.5 16.469 24.5 15.9167V8.16667C24.5 7.85725 24.3771 7.5605 24.1583 7.34171C23.9395 7.12292 23.6428 7 23.3333 7H4.66667C4.35725 7 4.06051 7.12292 3.84171 7.34171C3.62292 7.5605 3.50001 7.85725 3.50001 8.16667V19.8333C3.50001 20.1428 3.62292 20.4395 3.84171 20.6583C4.06051 20.8771 4.35725 21 4.66667 21H14.75C15.3023 21 15.75 21.4477 15.75 22V22.3333C15.75 22.8856 15.3023 23.3333 14.75 23.3333H4.66667C3.73841 23.3333 2.84818 22.9646 2.1918 22.3082C1.53542 21.6518 1.16667 20.7616 1.16667 19.8333V8.16667C1.16667 7.23841 1.53542 6.34817 2.1918 5.69179C2.84818 5.03542 3.73841 4.66667 4.66667 4.66667Z" fill="#49D600"/>
<path fill-rule="evenodd" clip-rule="evenodd" d="M11.6367 9.9768C12.2056 9.38544 13.0211 9.04654 14 9.04654C15.4229 9.04654 16.3076 9.71167 16.7636 10.5092C16.9697 10.8697 17.0676 11.2193 17.1156 11.4714C17.1401 11.5997 17.1529 11.7098 17.1597 11.7931C17.1631 11.8349 17.1651 11.8706 17.1661 11.8991C17.1667 11.9134 17.167 11.926 17.1672 11.9367L17.1674 11.9514L17.1675 11.9576L17.1675 11.9605L17.1675 11.9619C17.1675 11.9625 17.1675 11.9632 16.0008 11.9632H17.1675C17.1675 12.6075 16.6451 13.1299 16.0008 13.1299C15.3642 13.1299 14.8467 12.62 14.8344 11.9864C14.8343 11.9855 14.8342 11.9843 14.8341 11.983C14.8331 11.9705 14.8303 11.9439 14.8235 11.9082C14.809 11.8321 14.7819 11.7442 14.7379 11.6672C14.698 11.5974 14.6469 11.5399 14.5691 11.4945C14.4917 11.4494 14.3255 11.3799 14 11.3799C13.5793 11.3799 13.3971 11.5126 13.3182 11.5945C13.2212 11.6954 13.1713 11.8348 13.1713 11.9632V11.9632C13.1713 12.1525 13.2162 12.4066 13.3258 12.5762C13.3709 12.646 13.4242 12.698 13.4988 12.7378C13.5747 12.7782 13.7244 12.8334 14 12.8334C15.2022 12.8334 16.0954 13.2982 16.6258 14.0897C17.0991 14.7959 17.1675 15.5965 17.1675 16.0832C17.1675 16.7102 16.9552 17.4432 16.414 18.0318C15.8489 18.6465 15.0207 18.9998 14 18.9998C12.5783 18.9998 11.6951 18.3332 11.2406 17.536C11.0351 17.1756 10.9375 16.8262 10.8897 16.5744C10.8653 16.4462 10.8525 16.3363 10.8458 16.2531C10.8424 16.2113 10.8404 16.1756 10.8393 16.1471C10.8388 16.1329 10.8385 16.1203 10.8383 16.1097L10.8381 16.095L10.838 16.0887L10.838 16.0859L10.838 16.0845C10.838 16.0838 10.838 16.0832 12.0047 16.0832H10.838C10.838 15.4388 11.3603 14.9165 12.0047 14.9165C12.6413 14.9165 13.1588 15.4264 13.1711 16.0601C13.1712 16.0611 13.1713 16.0623 13.1714 16.0637C13.1724 16.0762 13.1752 16.103 13.182 16.1388C13.1965 16.2151 13.2237 16.3033 13.2676 16.3804C13.3075 16.4504 13.3584 16.5076 13.4353 16.5526C13.5117 16.5973 13.6764 16.6665 14 16.6665C14.4589 16.6665 14.6311 16.5235 14.6965 16.4525C14.7858 16.3553 14.8341 16.2133 14.8341 16.0832C14.8341 15.7633 14.7771 15.5224 14.6875 15.3887C14.6535 15.3379 14.6109 15.2957 14.537 15.2595C14.4571 15.2203 14.2958 15.1667 14 15.1667C12.7446 15.1667 11.8696 14.6215 11.3664 13.843C10.9158 13.1462 10.838 12.3819 10.838 11.9632M11.6367 9.9768C11.086 10.5492 10.838 11.2848 10.838 11.9632L11.6367 9.9768Z" fill="#49D600"/>
<path fill-rule="evenodd" clip-rule="evenodd" d="M14 7.716C14.6443 7.716 15.1667 8.23833 15.1667 8.88266L15.1667 10.2132C15.1667 10.8576 14.6444 11.3799 14 11.3799C13.3557 11.3799 12.8333 10.8576 12.8333 10.2132L12.8333 8.88268C12.8333 8.23835 13.3557 7.71601 14 7.716Z" fill="#49D600"/>
<path fill-rule="evenodd" clip-rule="evenodd" d="M14 16.6665C14.6443 16.6665 15.1667 17.1889 15.1667 17.8332V19.171C15.1667 19.8153 14.6443 20.3376 14 20.3376C13.3557 20.3376 12.8333 19.8153 12.8333 19.171V17.8332C12.8333 17.1889 13.3557 16.6665 14 16.6665Z" fill="#49D600"/>
<ellipse cx="20.9985" cy="13.9985" rx="1.16516" ry="1.16516" fill="#49D600"/>
<ellipse cx="6.9985" cy="13.9985" rx="1.16516" ry="1.16516" fill="#49D600"/>
<path fill-rule="evenodd" clip-rule="evenodd" d="M17.5 21C17.5 20.3557 18.0223 19.8333 18.6667 19.8333L24.5 19.8333C25.1443 19.8333 25.6667 20.3557 25.6667 21C25.6667 21.6443 25.1443 22.1667 24.5 22.1667L18.6667 22.1667C18.0223 22.1667 17.5 21.6443 17.5 21Z" fill="#49D600"/>
<path fill-rule="evenodd" clip-rule="evenodd" d="M26.0084 21.825C25.5528 22.2806 24.8141 22.2806 24.3585 21.825L21.3417 18.8082C20.8861 18.3526 20.8861 17.6139 21.3417 17.1583C21.7973 16.7027 22.536 16.7027 22.9916 17.1583L26.0084 20.175C26.464 20.6307 26.464 21.3693 26.0084 21.825Z" fill="#49D600"/>
<path fill-rule="evenodd" clip-rule="evenodd" d="M26.0177 20.2208C26.4733 20.6764 26.4733 21.4151 26.0177 21.8707L23.0009 24.8875C22.5453 25.3431 21.8066 25.3431 21.351 24.8875C20.8954 24.4318 20.8954 23.6932 21.351 23.2375L24.3677 20.2208C24.8234 19.7652 25.5621 19.7652 26.0177 20.2208Z" fill="#49D600"/>
</svg>
