<svg width="28" height="28" viewBox="0 0 28 28" fill="none" xmlns="http://www.w3.org/2000/svg">
<path d="M15.2483 14H9.41501C9.1056 14 8.80885 14.1229 8.59006 14.3417C8.37126 14.5605 8.24835 14.8573 8.24835 15.1667C8.24835 15.4761 8.37126 15.7728 8.59006 15.9916C8.80885 16.2104 9.1056 16.3333 9.41501 16.3333H15.2483C15.5578 16.3333 15.8545 16.2104 16.0733 15.9916C16.2921 15.7728 16.415 15.4761 16.415 15.1667C16.415 14.8573 16.2921 14.5605 16.0733 14.3417C15.8545 14.1229 15.5578 14 15.2483 14ZM16.415 23.3333H7.08168C6.77226 23.3333 6.47552 23.2104 6.25672 22.9916C6.03793 22.7728 5.91501 22.4761 5.91501 22.1667V5.83334C5.91501 5.52392 6.03793 5.22717 6.25672 5.00838C6.47552 4.78959 6.77226 4.66667 7.08168 4.66667H12.915V8.16667C12.915 9.09493 13.2838 9.98517 13.9401 10.6415C14.5965 11.2979 15.4868 11.6667 16.415 11.6667H19.915V12.8333C19.915 13.1428 20.0379 13.4395 20.2567 13.6583C20.4755 13.8771 20.7723 14 21.0817 14C21.3911 14 21.6878 13.8771 21.9066 13.6583C22.1254 13.4395 22.2483 13.1428 22.2483 12.8333V10.5C22.2534 10.4769 22.2534 10.4531 22.2483 10.43C22.2384 10.3213 22.2109 10.2149 22.1667 10.115V10.01C22.1106 9.89005 22.0358 9.77978 21.945 9.68334L14.945 2.68334C14.846 2.59031 14.7315 2.5153 14.6067 2.46167C14.6067 2.46167 14.5483 2.46167 14.5133 2.46167C14.3984 2.39514 14.2716 2.35156 14.14 2.33334H7.14001C6.21176 2.33334 5.32152 2.70208 4.66514 3.35846C4.00876 4.01484 3.64001 4.90508 3.64001 5.83334V22.1667C3.64001 23.0949 4.00876 23.9852 4.66514 24.6415C5.32152 25.2979 6.21176 25.6667 7.14001 25.6667H16.4733C16.7828 25.6667 17.0795 25.5438 17.2983 25.325C17.5171 25.1062 17.64 24.8094 17.64 24.5C17.64 24.1906 17.5171 23.8938 17.2983 23.675C17.0795 23.4563 16.7828 23.3333 16.4733 23.3333H16.415ZM15.2483 6.31167L18.2583 9.33334H16.415C16.1056 9.33334 15.8088 9.21042 15.5901 8.99163C15.3713 8.77283 15.2483 8.47609 15.2483 8.16667V6.31167ZM15.2483 18.6667H9.41501C9.1056 18.6667 8.80885 18.7896 8.59006 19.0084C8.37126 19.2272 8.24835 19.5239 8.24835 19.8333C8.24835 20.1428 8.37126 20.4395 8.59006 20.6583C8.80885 20.8771 9.1056 21 9.41501 21H15.2483C15.5578 21 15.8545 20.8771 16.0733 20.6583C16.2921 20.4395 16.415 20.1428 16.415 19.8333C16.415 19.5239 16.2921 19.2272 16.0733 19.0084C15.8545 18.7896 15.5578 18.6667 15.2483 18.6667ZM9.41501 11.6667H10.5817C10.8911 11.6667 11.1878 11.5438 11.4066 11.325C11.6254 11.1062 11.7483 10.8094 11.7483 10.5C11.7483 10.1906 11.6254 9.89384 11.4066 9.67505C11.1878 9.45625 10.8911 9.33334 10.5817 9.33334H9.41501C9.1056 9.33334 8.80885 9.45625 8.59006 9.67505C8.37126 9.89384 8.24835 10.1906 8.24835 10.5C8.24835 10.8094 8.37126 11.1062 8.59006 11.325C8.80885 11.5438 9.1056 11.6667 9.41501 11.6667Z" fill="#5DDF2A"/>
<path d="M21.5717 23.5317C21.6328 23.5747 21.6912 23.6215 21.7467 23.6717C21.8531 23.7847 21.9399 23.9149 22.0033 24.0567C22.0763 24.2343 22.1043 24.4273 22.0848 24.6183C22.0654 24.8094 21.999 24.9927 21.8917 25.152C21.7843 25.3113 21.6393 25.4416 21.4695 25.5314C21.2997 25.6212 21.1104 25.6676 20.9183 25.6667C20.6123 25.6654 20.319 25.5439 20.1017 25.3283C19.9923 25.2199 19.9055 25.0908 19.8463 24.9487C19.7871 24.8065 19.7566 24.654 19.7566 24.5C19.7566 24.346 19.7871 24.1935 19.8463 24.0513C19.9055 23.9092 19.9923 23.7801 20.1017 23.6717C20.2375 23.5372 20.4043 23.4381 20.5874 23.3832C20.7704 23.3282 20.9642 23.3191 21.1517 23.3567C21.3011 23.389 21.4434 23.4483 21.5717 23.5317Z" fill="#5DDF2A"/>
<path d="M19.1671 15.635C19.6995 15.3278 20.3036 15.1663 20.9183 15.1667C21.8466 15.1667 22.7368 15.5354 23.3932 16.1918C24.0496 16.8482 24.4183 17.7384 24.4183 18.6667C24.4183 19.5949 24.0496 20.4852 23.3932 21.1415C22.7368 21.7979 21.8466 22.1667 20.9183 22.1667C20.6089 22.1667 20.3122 22.0437 20.0934 21.825C19.8746 21.6062 19.7517 21.3094 19.7517 21C19.7517 20.6906 19.8746 20.3938 20.0934 20.175C20.3122 19.9562 20.6089 19.8333 20.9183 19.8333C21.1234 19.8346 21.3252 19.7817 21.5033 19.6801C21.6815 19.5785 21.8297 19.4317 21.9331 19.2546C22.0364 19.0774 22.0912 18.8762 22.092 18.6711C22.0928 18.466 22.0395 18.2643 21.9375 18.0864C21.8355 17.9085 21.6883 17.7606 21.511 17.6576C21.3336 17.5547 21.1322 17.5003 20.9271 17.5C20.722 17.4997 20.5205 17.5535 20.3428 17.6559C20.1651 17.7583 20.0175 17.9057 19.915 18.0833C19.8384 18.2166 19.7363 18.3335 19.6145 18.4274C19.4927 18.5212 19.3536 18.5901 19.2052 18.6302C19.0568 18.6703 18.9019 18.6807 18.7495 18.661C18.597 18.6412 18.45 18.5916 18.3167 18.515C18.1834 18.4384 18.0665 18.3363 17.9726 18.2145C17.8788 18.0927 17.8099 17.9537 17.7698 17.8052C17.7297 17.6568 17.7193 17.502 17.739 17.3495C17.7588 17.197 17.8084 17.05 17.885 16.9167C18.1924 16.3843 18.6346 15.9422 19.1671 15.635Z" fill="#5DDF2A"/>
</svg>
