<svg width="28" height="28" viewBox="0 0 28 28" fill="none" xmlns="http://www.w3.org/2000/svg">
<path d="M10.5 11.6667H11.6667C11.9761 11.6667 12.2728 11.5438 12.4916 11.325C12.7104 11.1062 12.8333 10.8094 12.8333 10.5C12.8333 10.1906 12.7104 9.89385 12.4916 9.67505C12.2728 9.45626 11.9761 9.33334 11.6667 9.33334H10.5C10.1906 9.33334 9.89384 9.45626 9.67505 9.67505C9.45625 9.89385 9.33334 10.1906 9.33334 10.5C9.33334 10.8094 9.45625 11.1062 9.67505 11.325C9.89384 11.5438 10.1906 11.6667 10.5 11.6667ZM10.5 14C10.1906 14 9.89384 14.1229 9.67505 14.3417C9.45625 14.5605 9.33334 14.8573 9.33334 15.1667C9.33334 15.4761 9.45625 15.7728 9.67505 15.9916C9.89384 16.2104 10.1906 16.3333 10.5 16.3333H17.5C17.8094 16.3333 18.1062 16.2104 18.325 15.9916C18.5438 15.7728 18.6667 15.4761 18.6667 15.1667C18.6667 14.8573 18.5438 14.5605 18.325 14.3417C18.1062 14.1229 17.8094 14 17.5 14H10.5ZM23.3333 10.43C23.3212 10.3228 23.2977 10.2172 23.2633 10.115V10.01C23.2072 9.89005 23.1324 9.77979 23.0417 9.68334L16.0417 2.68334C15.9452 2.5926 15.835 2.51777 15.715 2.46168C15.6802 2.45673 15.6448 2.45673 15.61 2.46168C15.4915 2.39371 15.3606 2.35008 15.225 2.33334H8.16667C7.23841 2.33334 6.34818 2.70209 5.6918 3.35847C5.03542 4.01485 4.66667 4.90509 4.66667 5.83334V22.1667C4.66667 23.0949 5.03542 23.9852 5.6918 24.6416C6.34818 25.2979 7.23841 25.6667 8.16667 25.6667H19.8333C20.7616 25.6667 21.6518 25.2979 22.3082 24.6416C22.9646 23.9852 23.3333 23.0949 23.3333 22.1667V10.5C23.3333 10.5 23.3333 10.5 23.3333 10.43ZM16.3333 6.31168L19.355 9.33334H17.5C17.1906 9.33334 16.8938 9.21043 16.675 8.99163C16.4563 8.77284 16.3333 8.4761 16.3333 8.16668V6.31168ZM21 22.1667C21 22.4761 20.8771 22.7728 20.6583 22.9916C20.4395 23.2104 20.1428 23.3333 19.8333 23.3333H8.16667C7.85725 23.3333 7.56051 23.2104 7.34171 22.9916C7.12292 22.7728 7 22.4761 7 22.1667V5.83334C7 5.52392 7.12292 5.22718 7.34171 5.00839C7.56051 4.78959 7.85725 4.66668 8.16667 4.66668H14V8.16668C14 9.09493 14.3688 9.98517 15.0251 10.6416C15.6815 11.2979 16.5717 11.6667 17.5 11.6667H21V22.1667ZM17.5 18.6667H10.5C10.1906 18.6667 9.89384 18.7896 9.67505 19.0084C9.45625 19.2272 9.33334 19.5239 9.33334 19.8333C9.33334 20.1428 9.45625 20.4395 9.67505 20.6583C9.89384 20.8771 10.1906 21 10.5 21H17.5C17.8094 21 18.1062 20.8771 18.325 20.6583C18.5438 20.4395 18.6667 20.1428 18.6667 19.8333C18.6667 19.5239 18.5438 19.2272 18.325 19.0084C18.1062 18.7896 17.8094 18.6667 17.5 18.6667Z" fill="#49D600"/>
</svg>
