<svg width="28" height="28" viewBox="0 0 28 28" fill="none" xmlns="http://www.w3.org/2000/svg">
<path d="M19.8334 10.5V8.16666C19.8334 6.61957 19.2188 5.13583 18.1248 4.04187C17.0308 2.94791 15.5471 2.33333 14 2.33333C12.4529 2.33333 10.9692 2.94791 9.87523 4.04187C8.78127 5.13583 8.16669 6.61957 8.16669 8.16666V10.5C7.23843 10.5 6.34819 10.8687 5.69181 11.5251C5.03544 12.1815 4.66669 13.0717 4.66669 14V22.1667C4.66669 23.0949 5.03544 23.9852 5.69181 24.6415C6.34819 25.2979 7.23843 25.6667 8.16669 25.6667H19.8334C20.7616 25.6667 21.6518 25.2979 22.3082 24.6415C22.9646 23.9852 23.3334 23.0949 23.3334 22.1667V14C23.3334 13.0717 22.9646 12.1815 22.3082 11.5251C21.6518 10.8687 20.7616 10.5 19.8334 10.5ZM10.5 8.16666C10.5 7.2384 10.8688 6.34817 11.5251 5.69179C12.1815 5.03541 13.0718 4.66666 14 4.66666C14.9283 4.66666 15.8185 5.03541 16.4749 5.69179C17.1313 6.34817 17.5 7.2384 17.5 8.16666V10.5H10.5V8.16666ZM21 22.1667C21 22.4761 20.8771 22.7728 20.6583 22.9916C20.4395 23.2104 20.1428 23.3333 19.8334 23.3333H8.16669C7.85727 23.3333 7.56052 23.2104 7.34173 22.9916C7.12294 22.7728 7.00002 22.4761 7.00002 22.1667V14C7.00002 13.6906 7.12294 13.3938 7.34173 13.175C7.56052 12.9562 7.85727 12.8333 8.16669 12.8333H19.8334C20.1428 12.8333 20.4395 12.9562 20.6583 13.175C20.8771 13.3938 21 13.6906 21 14V22.1667Z" fill="#5DDF2A"/>
<path d="M13.003 15.4668C13.2969 15.2673 13.6448 15.1625 14 15.1666C14.3552 15.1625 14.7032 15.2673 14.997 15.4668C15.2909 15.6664 15.5165 15.9512 15.6436 16.2829C15.7707 16.6146 15.7931 16.9773 15.7078 17.3221C15.6226 17.667 15.4337 17.9774 15.1667 18.2116V19.8333C15.1667 20.1427 15.0438 20.4395 14.825 20.6583C14.6062 20.8771 14.3094 21 14 21C13.6906 21 13.3939 20.8771 13.1751 20.6583C12.9563 20.4395 12.8334 20.1427 12.8334 19.8333V18.2116C12.5663 17.9774 12.3775 17.667 12.2922 17.3221C12.2069 16.9773 12.2293 16.6146 12.3564 16.2829C12.4835 15.9512 12.7092 15.6664 13.003 15.4668Z" fill="#5DDF2A"/>
</svg>
