<svg width="28" height="28" viewBox="0 0 28 28" fill="none" xmlns="http://www.w3.org/2000/svg">
<path d="M14 15.1667C13.6448 15.1625 13.2969 15.2673 13.003 15.4669C12.7092 15.6664 12.4835 15.9512 12.3564 16.2829C12.2293 16.6146 12.2069 16.9773 12.2922 17.3222C12.3775 17.667 12.5663 17.9774 12.8334 18.2117V19.8333C12.8334 20.1428 12.9563 20.4395 13.1751 20.6583C13.3939 20.8771 13.6906 21 14 21C14.3094 21 14.6062 20.8771 14.825 20.6583C15.0438 20.4395 15.1667 20.1428 15.1667 19.8333V18.2117C15.4337 17.9774 15.6226 17.667 15.7078 17.3222C15.7931 16.9773 15.7707 16.6146 15.6436 16.2829C15.5165 15.9512 15.2909 15.6664 14.997 15.4669C14.7032 15.2673 14.3552 15.1625 14 15.1667ZM19.8334 10.5H10.5V8.16667C10.4983 7.47388 10.7023 6.79618 11.086 6.21939C11.4697 5.64259 12.016 5.19265 12.6556 4.92655C13.2953 4.66045 13.9995 4.59016 14.6791 4.72459C15.3587 4.85901 15.9832 5.1921 16.4734 5.68166C16.912 6.12974 17.2257 6.68479 17.3834 7.29167C17.4217 7.44028 17.4889 7.57989 17.5811 7.70253C17.6734 7.82518 17.7889 7.92845 17.921 8.00645C18.0532 8.08445 18.1995 8.13565 18.3514 8.15714C18.5034 8.17862 18.6581 8.16997 18.8067 8.13167C18.9553 8.09336 19.0949 8.02616 19.2176 7.93391C19.3402 7.84165 19.4435 7.72614 19.5215 7.59397C19.5995 7.4618 19.6507 7.31556 19.6722 7.1636C19.6936 7.01165 19.685 6.85694 19.6467 6.70833C19.3809 5.69893 18.8537 4.77742 18.1184 4.03666C17.3019 3.22276 16.2626 2.66902 15.1316 2.44538C14.0007 2.22174 12.8288 2.33822 11.7641 2.78011C10.6993 3.22201 9.78929 3.9695 9.14903 4.9282C8.50877 5.8869 8.16693 7.01382 8.16669 8.16667V10.5C7.23843 10.5 6.34819 10.8687 5.69181 11.5251C5.03544 12.1815 4.66669 13.0717 4.66669 14V22.1667C4.66669 23.0949 5.03544 23.9852 5.69181 24.6415C6.34819 25.2979 7.23843 25.6667 8.16669 25.6667H19.8334C20.7616 25.6667 21.6518 25.2979 22.3082 24.6415C22.9646 23.9852 23.3334 23.0949 23.3334 22.1667V14C23.3334 13.0717 22.9646 12.1815 22.3082 11.5251C21.6518 10.8687 20.7616 10.5 19.8334 10.5ZM21 22.1667C21 22.4761 20.8771 22.7728 20.6583 22.9916C20.4395 23.2104 20.1428 23.3333 19.8334 23.3333H8.16669C7.85727 23.3333 7.56052 23.2104 7.34173 22.9916C7.12294 22.7728 7.00002 22.4761 7.00002 22.1667V14C7.00002 13.6906 7.12294 13.3938 7.34173 13.175C7.56052 12.9562 7.85727 12.8333 8.16669 12.8333H19.8334C20.1428 12.8333 20.4395 12.9562 20.6583 13.175C20.8771 13.3938 21 13.6906 21 14V22.1667Z" fill="#5DDF2A"/>
</svg>
