<svg width="28" height="28" viewBox="0 0 28 28" fill="none" xmlns="http://www.w3.org/2000/svg">
<path fill-rule="evenodd" clip-rule="evenodd" d="M21.264 9.17436C19.6094 9.17436 18.4262 10.2191 18.2335 11.0729C18.0408 11.9266 18.7525 12.9714 20.407 12.9714C22.9131 12.9714 24.9641 14.6474 24.4002 17.1459C23.8363 19.6445 21.0287 21.3205 18.5227 21.3205C16.0167 21.3205 13.9656 19.6445 14.5295 17.1459C14.6714 16.5174 15.3087 16.0079 15.9531 16.0079C16.5974 16.0079 17.0047 16.5174 16.8629 17.1459C16.6702 17.9997 17.3818 19.0444 19.0364 19.0444C20.691 19.0444 21.8742 17.9997 22.0669 17.1459C22.2596 16.2922 21.5479 15.2474 19.8934 15.2474C17.3873 15.2474 15.3363 13.5714 15.9002 11.0729C16.4641 8.57427 19.2717 6.89828 21.7777 6.89828C24.2837 6.89828 26.3348 8.57427 25.7709 11.0729C25.629 11.7014 24.9917 12.2109 24.3474 12.2109C23.703 12.2109 23.2957 11.7014 23.4375 11.0729C23.6302 10.2191 22.9186 9.17436 21.264 9.17436Z" fill="#5DDF2A"/>
<path fill-rule="evenodd" clip-rule="evenodd" d="M22.3738 4.25779C23.0181 4.25779 23.4254 4.76731 23.2836 5.39583L22.6876 8.0363C22.5458 8.66483 21.9085 9.17435 21.2641 9.17435C20.6198 9.17435 20.2125 8.66483 20.3543 8.0363L20.9502 5.39583C21.0921 4.76731 21.7294 4.25779 22.3738 4.25779Z" fill="#5DDF2A"/>
<path fill-rule="evenodd" clip-rule="evenodd" d="M19.0365 19.0444C19.6808 19.0444 20.0882 19.5539 19.9463 20.1824L19.3504 22.8229C19.2085 23.4514 18.5712 23.9609 17.9269 23.9609C17.2825 23.9609 16.8752 23.4514 17.0171 22.8229L17.613 20.1824C17.7548 19.5539 18.3922 19.0444 19.0365 19.0444Z" fill="#5DDF2A"/>
<path fill-rule="evenodd" clip-rule="evenodd" d="M8.04985 9.33333C8.04985 8.689 8.57219 8.16667 9.21652 8.16667L14.1023 8.16667C14.7466 8.16667 15.2689 8.689 15.2689 9.33333C15.2689 9.97766 14.7466 10.5 14.1023 10.5L9.21652 10.5C8.57219 10.5 8.04985 9.97766 8.04985 9.33333Z" fill="#5DDF2A"/>
<path fill-rule="evenodd" clip-rule="evenodd" d="M5.16226 14C5.16226 13.3557 5.6846 12.8333 6.32893 12.8333L12.6585 12.8333C13.3028 12.8333 13.8252 13.3557 13.8252 14C13.8252 14.6443 13.3028 15.1667 12.6585 15.1667L6.32893 15.1667C5.6846 15.1667 5.16226 14.6443 5.16226 14Z" fill="#5DDF2A"/>
<path fill-rule="evenodd" clip-rule="evenodd" d="M2.27464 18.6667C2.27464 18.0223 2.79698 17.5 3.44131 17.5L11.2147 17.5C11.859 17.5 12.3813 18.0223 12.3813 18.6667C12.3813 19.311 11.859 19.8333 11.2147 19.8333L3.44131 19.8333C2.79698 19.8333 2.27464 19.311 2.27464 18.6667Z" fill="#5DDF2A"/>
</svg>
