<svg width="28" height="28" viewBox="0 0 28 28" fill="none" xmlns="http://www.w3.org/2000/svg">
<path d="M23.2283 18.095H17.9433C17.6339 18.095 17.3372 18.2179 17.1184 18.4367C16.8996 18.6555 16.7767 18.9523 16.7767 19.2617C16.7767 19.5711 16.8996 19.8678 17.1184 20.0866C17.3372 20.3054 17.6339 20.4283 17.9433 20.4283H20.7433C19.4564 21.7732 17.7968 22.7025 15.9777 23.097C14.1586 23.4914 12.2631 23.3329 10.5347 22.6418C8.8064 21.9507 7.32418 20.7586 6.27852 19.2187C5.23286 17.6788 4.67153 15.8614 4.66666 14C4.66666 13.6906 4.54375 13.3938 4.32495 13.175C4.10616 12.9563 3.80941 12.8333 3.49999 12.8333C3.19058 12.8333 2.89383 12.9563 2.67504 13.175C2.45624 13.3938 2.33333 13.6906 2.33333 14C2.3395 16.2783 3.01259 18.5049 4.26953 20.405C5.52648 22.3052 7.31227 23.7958 9.40653 24.6928C11.5008 25.5898 13.8118 25.854 16.0545 25.4528C18.2972 25.0515 20.3733 24.0025 22.0267 22.435V24.5C22.0267 24.8094 22.1496 25.1062 22.3684 25.325C22.5872 25.5438 22.8839 25.6667 23.1933 25.6667C23.5027 25.6667 23.7995 25.5438 24.0183 25.325C24.2371 25.1062 24.36 24.8094 24.36 24.5V19.25C24.3571 18.9486 24.2377 18.66 24.0267 18.4446C23.8158 18.2293 23.5296 18.104 23.2283 18.095ZM14 2.33334C11.0091 2.34187 8.13573 3.49874 5.97333 5.565V3.5C5.97333 3.19058 5.85041 2.89384 5.63162 2.67504C5.41283 2.45625 5.11608 2.33334 4.80666 2.33334C4.49724 2.33334 4.2005 2.45625 3.9817 2.67504C3.76291 2.89384 3.63999 3.19058 3.63999 3.5V8.75C3.63999 9.05942 3.76291 9.35617 3.9817 9.57496C4.2005 9.79375 4.49724 9.91667 4.80666 9.91667H10.0567C10.3661 9.91667 10.6628 9.79375 10.8816 9.57496C11.1004 9.35617 11.2233 9.05942 11.2233 8.75C11.2233 8.44058 11.1004 8.14384 10.8816 7.92505C10.6628 7.70625 10.3661 7.58334 10.0567 7.58334H7.25666C8.54287 6.23919 10.2014 5.31009 12.0195 4.9153C13.8375 4.5205 15.732 4.67804 17.4599 5.36768C19.1877 6.05731 20.6701 7.24758 21.7166 8.78571C22.7631 10.3238 23.3261 12.1396 23.3333 14C23.3333 14.3094 23.4562 14.6062 23.675 14.825C23.8938 15.0438 24.1906 15.1667 24.5 15.1667C24.8094 15.1667 25.1062 15.0438 25.325 14.825C25.5437 14.6062 25.6667 14.3094 25.6667 14C25.6667 12.4679 25.3649 10.9508 24.7786 9.53536C24.1923 8.1199 23.3329 6.83377 22.2496 5.75042C21.1662 4.66707 19.8801 3.80771 18.4646 3.22141C17.0492 2.6351 15.5321 2.33334 14 2.33334Z" fill="#49D600"/>
<path fill-rule="evenodd" clip-rule="evenodd" d="M11.6367 9.9768C12.2057 9.38544 13.0211 9.04654 14 9.04654C15.4229 9.04654 16.3077 9.71167 16.7636 10.5092C16.9697 10.8697 17.0676 11.2193 17.1156 11.4714C17.1401 11.5997 17.1529 11.7098 17.1597 11.7931C17.1631 11.8349 17.1651 11.8706 17.1662 11.8991C17.1667 11.9134 17.167 11.926 17.1672 11.9367L17.1674 11.9514L17.1675 11.9576L17.1675 11.9605L17.1675 11.9619C17.1675 11.9625 17.1675 11.9632 16.0008 11.9632H17.1675C17.1675 12.6075 16.6452 13.1299 16.0008 13.1299C15.3642 13.1299 14.8467 12.62 14.8344 11.9864C14.8343 11.9855 14.8342 11.9843 14.8341 11.983C14.8331 11.9705 14.8303 11.9439 14.8235 11.9082C14.809 11.8321 14.7819 11.7442 14.7379 11.6672C14.698 11.5974 14.6469 11.5399 14.5691 11.4945C14.4917 11.4494 14.3255 11.3799 14 11.3799C13.5793 11.3799 13.3971 11.5126 13.3182 11.5945C13.2212 11.6954 13.1714 11.8348 13.1714 11.9632V11.9632C13.1714 12.1525 13.2162 12.4066 13.3258 12.5762C13.371 12.646 13.4242 12.698 13.4988 12.7378C13.5747 12.7782 13.7245 12.8334 14 12.8334C15.2022 12.8334 16.0954 13.2982 16.6258 14.0897C17.0991 14.7959 17.1675 15.5965 17.1675 16.0832C17.1675 16.7102 16.9552 17.4432 16.4141 18.0318C15.8489 18.6465 15.0207 18.9998 14 18.9998C12.5783 18.9998 11.6951 18.3332 11.2406 17.536C11.0351 17.1756 10.9376 16.8262 10.8897 16.5744C10.8653 16.4462 10.8525 16.3363 10.8458 16.2531C10.8424 16.2113 10.8404 16.1756 10.8394 16.1471C10.8388 16.1329 10.8385 16.1203 10.8383 16.1097L10.8381 16.095L10.838 16.0887L10.838 16.0859L10.838 16.0845C10.838 16.0838 10.838 16.0832 12.0047 16.0832H10.838C10.838 15.4388 11.3604 14.9165 12.0047 14.9165C12.6413 14.9165 13.1589 15.4264 13.1711 16.0601C13.1712 16.0611 13.1713 16.0623 13.1714 16.0637C13.1724 16.0762 13.1752 16.103 13.182 16.1388C13.1965 16.2151 13.2237 16.3033 13.2676 16.3804C13.3075 16.4504 13.3584 16.5076 13.4353 16.5526C13.5117 16.5973 13.6764 16.6665 14 16.6665C14.4589 16.6665 14.6311 16.5235 14.6965 16.4525C14.7858 16.3553 14.8342 16.2133 14.8342 16.0832C14.8342 15.7633 14.7771 15.5224 14.6875 15.3887C14.6535 15.3379 14.6109 15.2957 14.537 15.2595C14.4571 15.2203 14.2958 15.1667 14 15.1667C12.7446 15.1667 11.8697 14.6215 11.3664 13.843C10.9158 13.1462 10.838 12.3819 10.838 11.9632M11.6367 9.9768C11.086 10.5492 10.838 11.2848 10.838 11.9632L11.6367 9.9768Z" fill="#49D600"/>
<path fill-rule="evenodd" clip-rule="evenodd" d="M14 7.716C14.6443 7.716 15.1667 8.23833 15.1667 8.88266L15.1667 10.2132C15.1667 10.8576 14.6444 11.3799 14 11.3799C13.3557 11.3799 12.8334 10.8576 12.8334 10.2132L12.8334 8.88268C12.8333 8.23835 13.3557 7.71601 14 7.716Z" fill="#49D600"/>
<path fill-rule="evenodd" clip-rule="evenodd" d="M14 16.6665C14.6443 16.6665 15.1667 17.1889 15.1667 17.8332V19.171C15.1667 19.8153 14.6443 20.3376 14 20.3376C13.3557 20.3376 12.8333 19.8153 12.8333 19.171V17.8332C12.8333 17.1889 13.3557 16.6665 14 16.6665Z" fill="#49D600"/>
</svg>
