<svg width="28" height="28" viewBox="0 0 28 28" fill="none" xmlns="http://www.w3.org/2000/svg">
<path fill-rule="evenodd" clip-rule="evenodd" d="M8.16669 9.33335C8.81102 9.33335 9.33335 8.81102 9.33335 8.16669C9.33335 7.52235 8.81102 7.00002 8.16669 7.00002C7.52235 7.00002 7.00002 7.52235 7.00002 8.16669C7.00002 8.81102 7.52235 9.33335 8.16669 9.33335ZM8.16669 11.6667C10.0997 11.6667 11.6667 10.0997 11.6667 8.16669C11.6667 6.23369 10.0997 4.66669 8.16669 4.66669C6.23369 4.66669 4.66669 6.23369 4.66669 8.16669C4.66669 10.0997 6.23369 11.6667 8.16669 11.6667Z" fill="#49D600"/>
<path fill-rule="evenodd" clip-rule="evenodd" d="M8.16669 21C8.81102 21 9.33335 20.4777 9.33335 19.8333C9.33335 19.189 8.81102 18.6667 8.16669 18.6667C7.52235 18.6667 7.00002 19.189 7.00002 19.8333C7.00002 20.4777 7.52235 21 8.16669 21ZM8.16669 23.3333C10.0997 23.3333 11.6667 21.7663 11.6667 19.8333C11.6667 17.9003 10.0997 16.3333 8.16669 16.3333C6.23369 16.3333 4.66669 17.9003 4.66669 19.8333C4.66669 21.7663 6.23369 23.3333 8.16669 23.3333Z" fill="#49D600"/>
<path fill-rule="evenodd" clip-rule="evenodd" d="M19.8334 21C20.4777 21 21 20.4777 21 19.8333C21 19.189 20.4777 18.6667 19.8334 18.6667C19.189 18.6667 18.6667 19.189 18.6667 19.8333C18.6667 20.4777 19.189 21 19.8334 21ZM19.8334 23.3333C21.7664 23.3333 23.3334 21.7663 23.3334 19.8333C23.3334 17.9003 21.7664 16.3333 19.8334 16.3333C17.9004 16.3333 16.3334 17.9003 16.3334 19.8333C16.3334 21.7663 17.9004 23.3333 19.8334 23.3333Z" fill="#49D600"/>
<path fill-rule="evenodd" clip-rule="evenodd" d="M23.5183 4.95533C24.0032 5.37963 24.0523 6.11669 23.628 6.60159L19.5447 11.2683C19.3321 11.5113 19.0282 11.6553 18.7055 11.666C18.3828 11.6768 18.0701 11.5533 17.8417 11.325L15.5084 8.99163C15.0528 8.53602 15.0528 7.79733 15.5084 7.34171C15.964 6.8861 16.7027 6.8861 17.1583 7.34171L18.6099 8.79326L21.872 5.06508C22.2963 4.58017 23.0334 4.53104 23.5183 4.95533Z" fill="#49D600"/>
</svg>
