<svg width="28" height="28" viewBox="0 0 28 28" fill="none" xmlns="http://www.w3.org/2000/svg">
<path fill-rule="evenodd" clip-rule="evenodd" d="M19.572 7.7473C18.5426 5.78606 16.6904 4.85769 13.9005 4.85769C10.6236 4.85769 8.67515 6.18088 7.86821 9.02032C10.2649 9.95914 11.7543 9.87278 14.292 8.31573L14.649 8.09666L15.0635 8.15707C17.2675 8.47826 18.4087 8.32234 19.572 7.7473ZM20.312 9.95528C20.3475 10.1374 20.3793 10.3246 20.4073 10.5169V18.0174L17.1464 21.172C16.992 21.1364 16.8311 21.1176 16.6658 21.1176C15.4903 21.1176 14.5374 22.0705 14.5374 23.246C14.5374 24.4215 15.4903 25.3744 16.6658 25.3744C17.8413 25.3744 18.7943 24.4215 18.7943 23.246C18.7943 23.1052 18.7806 22.9676 18.7545 22.8344L22.3678 19.3388C22.5761 19.1373 22.7005 18.8656 22.718 18.578C24.2243 17.9482 25.5926 16.1705 25.5926 13.9706C25.5926 11.6875 24.1904 10.119 22.6047 9.63386C21.7371 4.99137 18.7439 2.5448 13.9005 2.5448C9.11163 2.5448 6.17836 4.99802 5.3622 9.6345C3.77734 10.1204 2.37646 11.6885 2.37646 13.9706C2.37646 16.2864 3.89266 18.1342 5.48992 18.6679C6.34833 21.6335 9.23634 24.4024 12.7154 24.4024C13.3541 24.4024 13.8719 23.8847 13.8719 23.246C13.8719 22.6073 13.3541 22.0896 12.7154 22.0896C9.92723 22.0896 7.54278 19.2362 7.54278 16.9064V11.3655C10.2102 12.3022 12.2875 12.1672 15.1425 10.502C17.419 10.79 18.9012 10.5907 20.312 9.95528ZM5.22989 15.6729V12.392C4.91273 12.7625 4.68935 13.2958 4.68935 13.9706C4.68935 14.6424 4.92044 15.2315 5.22989 15.6729ZM23.2797 13.9706C23.2797 14.656 23.0391 15.2554 22.7202 15.6996V12.3702C23.0474 12.7415 23.2797 13.2824 23.2797 13.9706ZM10.8633 18.4688C12.5889 20.1561 15.3047 20.1561 17.0766 18.4785C17.4275 18.1463 17.4426 17.5925 17.1104 17.2416C16.7782 16.8906 16.2243 16.8755 15.8734 17.2078C14.7799 18.2431 13.1356 18.2431 12.0868 17.2175C11.7413 16.8797 11.1873 16.8859 10.8495 17.2314C10.5116 17.5769 10.5178 18.1309 10.8633 18.4688ZM11.8114 12.5904H10.7571C10.0541 12.5904 9.70265 12.8848 9.70265 13.4736C9.70265 14.0624 10.0541 14.3568 10.7571 14.3568H11.8114C12.5144 14.3568 12.8658 14.0624 12.8658 13.4736C12.8658 12.8848 12.5144 12.5904 11.8114 12.5904ZM16.1386 12.5904H17.193C17.896 12.5904 18.2474 12.8848 18.2474 13.4736C18.2474 14.0624 17.896 14.3568 17.193 14.3568H16.1386C15.4357 14.3568 15.0842 14.0624 15.0842 13.4736C15.0842 12.8848 15.4357 12.5904 16.1386 12.5904Z" fill="#49D600"/>
</svg>
