<svg width="28" height="28" viewBox="0 0 28 28" fill="none" xmlns="http://www.w3.org/2000/svg">
<path d="M18.3283 14.8283C19.4721 13.9284 20.307 12.6944 20.7168 11.2979C21.1266 9.90146 21.0909 8.41198 20.6147 7.03671C20.1386 5.66145 19.2456 4.46879 18.0601 3.62466C16.8745 2.78054 15.4554 2.32692 14 2.32692C12.5446 2.32692 11.1255 2.78054 9.93991 3.62466C8.75437 4.46879 7.8614 5.66145 7.38524 7.03671C6.90909 8.41198 6.87343 9.90146 7.28322 11.2979C7.69301 12.6944 8.52787 13.9284 9.67166 14.8283C7.71175 15.6135 6.00166 16.9159 4.7237 18.5966C3.44574 20.2772 2.64782 22.2732 2.415 24.3717C2.39814 24.5249 2.41163 24.6799 2.45469 24.8279C2.49775 24.9759 2.56954 25.114 2.66596 25.2342C2.86068 25.4771 3.14391 25.6326 3.45333 25.6667C3.76275 25.7007 4.07302 25.6104 4.31588 25.4157C4.55874 25.221 4.71429 24.9378 4.74833 24.6283C5.00451 22.3477 6.09196 20.2414 7.80292 18.7119C9.51387 17.1824 11.7284 16.3369 14.0233 16.3369C16.3183 16.3369 18.5328 17.1824 20.2437 18.7119C21.9547 20.2414 23.0421 22.3477 23.2983 24.6283C23.3301 24.915 23.4668 25.1798 23.6823 25.3715C23.8977 25.5633 24.1766 25.6684 24.465 25.6667H24.5933C24.8992 25.6315 25.1787 25.4768 25.371 25.2365C25.5633 24.9961 25.6528 24.6894 25.62 24.3833C25.3861 22.2789 24.5839 20.2778 23.2993 18.5946C22.0148 16.9113 20.2964 15.6094 18.3283 14.8283ZM14 14C13.077 14 12.1748 13.7263 11.4073 13.2135C10.6399 12.7007 10.0418 11.9719 9.68856 11.1192C9.33535 10.2665 9.24293 9.32816 9.423 8.42291C9.60306 7.51767 10.0475 6.68615 10.7002 6.0335C11.3528 5.38086 12.1843 4.9364 13.0896 4.75634C13.9948 4.57627 14.9331 4.66869 15.7859 5.0219C16.6386 5.3751 17.3674 5.97324 17.8802 6.74067C18.393 7.5081 18.6667 8.41035 18.6667 9.33333C18.6667 10.571 18.175 11.758 17.2998 12.6332C16.4247 13.5083 15.2377 14 14 14Z" fill="#5DDF2A"/>
</svg>
