<svg width="55" height="50" viewBox="0 0 55 50" fill="none" xmlns="http://www.w3.org/2000/svg">
<path fill-rule="evenodd" clip-rule="evenodd" d="M13.085 26.4126H20.6029C27.3812 26.4126 31.705 30.8618 31.705 37.806C31.705 45.4987 26.9138 49.2412 19.2785 49.2412H13.085V26.4126ZM20.1367 31.6485C19.8642 31.6485 19.5135 31.6899 19.046 31.6899V43.9984C22.8637 43.9984 25.8243 42.3764 25.8243 37.6777C25.8243 33.6443 23.409 31.6485 20.1367 31.6485Z" fill="#333333"/>
<path fill-rule="evenodd" clip-rule="evenodd" d="M54.9995 33.0589V27.0294C53.4805 26.3641 52.1167 25.9897 50.2082 25.9897C43.9364 25.9897 38.9111 31.0628 38.9111 37.7576C38.9111 44.4523 43.8585 49.3591 50.0912 49.3591C52.3116 49.3591 53.8309 48.8601 54.9995 47.9036V41.8741C53.2465 43.0386 52.0388 43.5376 50.4028 43.5376C47.2475 43.5376 44.7934 41.0842 44.7934 37.4667C44.7934 33.9319 47.2863 31.354 50.4028 31.354C52.1167 31.354 53.3635 31.9778 54.9995 33.0589Z" fill="#333333"/>
<path fill-rule="evenodd" clip-rule="evenodd" d="M0 21.8356V22.9166H4.16834V21.8356C2.96067 21.7938 2.76606 21.6275 2.76606 20.7545V15.3071L5.259 22.9166H6.31086L8.99872 15.3071V20.6296C8.99872 21.7524 8.99872 21.7524 7.51853 21.8356V22.9166H12.3489V21.8356C10.9463 21.8356 10.9075 21.6692 10.9075 20.8791V15.5566C10.9075 14.6832 11.0242 14.3923 12.3489 14.3923V13.2695H8.21967L6.11595 19.3822L4.16834 13.2695H0V14.3923C1.16886 14.3923 1.36348 14.3923 1.36348 15.4734V20.5882C1.36348 21.5861 1.36348 21.8356 0 21.8356Z" fill="#333333"/>
<path fill-rule="evenodd" clip-rule="evenodd" d="M20.2129 21.8353V22.9164H24.0696V21.8353C23.1345 21.7936 23.1345 21.669 23.1345 20.2967V19.1325C23.1345 18.0097 23.6019 17.0949 24.5758 17.0949C25.3552 17.0949 25.5886 17.6356 25.5886 18.384V20.8374C25.5886 21.669 25.5498 21.8353 24.6149 21.8353V22.9164H28.0818V21.8353C27.2637 21.8353 27.1858 21.7521 27.1858 20.9206V19.2156C27.1858 18.0514 27.6923 17.0535 28.7051 17.0535C29.4841 17.0535 29.6399 17.5521 29.6399 18.5504V21.0451C29.6399 21.7521 29.6399 21.8353 28.7051 21.8353V22.9164H32.5227V21.8353C31.3541 21.8353 31.2762 21.8767 31.2762 21.17V18.384C31.2762 16.8037 30.9255 15.889 29.4062 15.889C28.5102 15.889 27.926 16.2633 27.1858 17.0949C26.7963 16.3465 26.2509 15.8475 25.3161 15.8475C24.3421 15.8475 23.6798 16.3879 23.1345 17.1781V16.0553H20.2129V17.0535C21.3815 17.0535 21.4985 17.0949 21.4985 18.0928V20.3799C21.4985 21.8353 21.4985 21.8353 20.2129 21.8353Z" fill="#333333"/>
<path fill-rule="evenodd" clip-rule="evenodd" d="M0.1875 26.4126V49.2412H6.06945L6.10855 40.5089H11.8347V35.2281H6.14735L6.10855 31.6934H12.2633V26.4126H0.1875Z" fill="#333333"/>
<path fill-rule="evenodd" clip-rule="evenodd" d="M32.9883 13.2728H35.7152V16.8073C36.4555 16.142 36.9229 15.8925 37.6629 15.8925C39.2212 15.8925 40.2731 17.3894 40.2731 19.4683C40.2731 21.714 39.2212 23.1694 37.4291 23.1694C36.5722 23.1694 36.0269 22.8782 35.4424 22.2129L34.8971 23.0031H34.0792V15.5181C34.0792 14.3953 34.0013 14.2707 32.9883 14.2707V13.2728ZM38.4436 19.4648C38.4436 17.8847 37.8983 17.0946 37.1192 17.0946C36.1065 17.0946 35.6778 17.9679 35.6778 19.5897C35.6778 21.0034 36.1844 21.9599 37.0801 21.9599C37.8204 21.9599 38.4436 21.2114 38.4436 19.4648Z" fill="#333333"/>
<path fill-rule="evenodd" clip-rule="evenodd" d="M48.5703 21.8355V22.9166H52.7775V21.8355C51.6086 21.8355 51.4919 21.8769 51.4919 20.879V19.3822C51.4919 18.0099 51.9205 16.7625 53.0891 16.7625C53.167 16.7625 53.2449 16.7625 53.4786 16.8456C53.0891 17.0537 52.8163 17.3446 52.8163 17.8021C52.8163 18.3425 53.2061 18.7169 53.7123 18.7169C54.3355 18.7169 54.7642 18.2179 54.7642 17.4692C54.7642 16.5544 54.1406 15.8892 53.284 15.8892C52.5828 15.8892 52.0763 16.2635 51.4531 17.012V16.0555H48.5703V17.0537C49.5831 17.0537 49.8559 17.0537 49.8559 17.9685V20.7959C49.8559 21.7524 49.8559 21.8355 48.5703 21.8355Z" fill="#333333"/>
<path fill-rule="evenodd" clip-rule="evenodd" d="M43.2723 19.6767C43.2723 21.0072 43.8567 21.922 44.9086 21.922C45.8434 21.922 46.2717 21.3399 46.4278 20.4251H47.5964C47.4015 22.1714 46.3108 23.1279 44.7528 23.1279C42.8827 23.1279 41.4805 21.922 41.4805 19.5935C41.4805 17.4725 42.7269 15.8925 44.5969 15.8925C46.4278 15.8925 47.5964 17.3896 47.5964 19.6767H43.2723ZM44.5965 16.9679C43.8175 16.9679 43.35 17.55 43.35 18.5896H45.8042C45.8042 17.5086 45.4146 16.9679 44.5965 16.9679Z" fill="#333333"/>
<path fill-rule="evenodd" clip-rule="evenodd" d="M14.9151 19.6767C14.9151 21.0072 15.5384 21.922 16.5902 21.922C17.5251 21.922 17.9534 21.3399 18.1092 20.4251H19.239C19.0444 22.1714 17.9925 23.1279 16.4344 23.1279C14.5644 23.1279 13.123 21.922 13.123 19.5935C13.123 17.4725 14.4086 15.8925 16.2786 15.8925C18.1092 15.8925 19.239 17.3896 19.239 19.6767H14.9151ZM16.2784 16.9679C15.4994 16.9679 15.032 17.55 15.032 18.5896H17.4473C17.4473 17.4668 17.0578 16.9679 16.2784 16.9679Z" fill="#333333"/>
<path fill-rule="evenodd" clip-rule="evenodd" d="M32.3281 49.2412H38.2104V26.4126H32.3281V49.2412Z" fill="#333333"/>
</svg>
