<svg width="39" height="37" viewBox="0 0 39 37" fill="none" xmlns="http://www.w3.org/2000/svg">
<path d="M22.874 15.6447L22.6762 18.1843H20.1102V26.6909H16.733V18.1843H15.0235V15.6447H16.733V13.7403V13.1904C16.733 13.1904 16.6121 10.3791 20.1102 10.2272C21.8105 10.1538 23.2265 10.5236 23.2265 10.5236L22.8671 13.0203C22.8671 13.0203 20.1107 12.196 20.1107 13.8026V15.6442L22.874 15.6447Z" fill="#07ac2d"/>
<path d="M19.1245 36.9075C8.57981 36.9075 0 28.6288 0 18.4533C0 8.2778 8.57981 0 19.1245 0C29.6702 0 38.25 8.2778 38.25 18.4533C38.25 28.6288 29.6702 36.9075 19.1245 36.9075ZM19.1245 2.53516C10.0279 2.53516 2.62737 9.67591 2.62737 18.4533C2.62737 27.2307 10.0279 34.3719 19.1245 34.3719C28.2221 34.3719 35.6222 27.2307 35.6222 18.4533C35.6222 9.67591 28.2221 2.53516 19.1245 2.53516Z" fill="#07ac2d"/>
</svg>
