<svg width="97" height="28" viewBox="0 0 97 28" fill="none" xmlns="http://www.w3.org/2000/svg">
<g clip-path="url(#clip0)">
<path d="M95.6119 0.769604C95.8081 0.769604 96.0043 0.82242 96.1854 0.920507C96.3664 1.01859 96.5249 1.16195 96.623 1.35058C96.7286 1.53921 96.7814 1.73538 96.7814 1.9391C96.7814 2.15036 96.7286 2.33899 96.623 2.52762C96.5249 2.71625 96.374 2.86715 96.1854 2.96524C95.9967 3.07087 95.8081 3.11614 95.6044 3.11614C95.4007 3.11614 95.2045 3.07087 95.0083 2.96524C94.8197 2.85961 94.6839 2.71625 94.5782 2.52762C94.4802 2.33899 94.4198 2.15036 94.4198 1.9391C94.4198 1.74293 94.4726 1.54675 94.5782 1.35058C94.6839 1.16195 94.8272 1.01859 95.0159 0.920507C95.2271 0.82242 95.4158 0.769604 95.6119 0.769604ZM95.6119 0.965777C95.4384 0.965777 95.2875 1.01105 95.1215 1.10159C94.963 1.18459 94.8348 1.30531 94.7518 1.45621C94.6688 1.60711 94.6235 1.78065 94.6235 1.94665C94.6235 2.12018 94.6688 2.28618 94.7518 2.43708C94.8348 2.59553 94.963 2.71625 95.1215 2.79925C95.2799 2.88224 95.4384 2.92751 95.6119 2.92751C95.7855 2.92751 95.9364 2.88224 96.1024 2.79925C96.2533 2.7087 96.374 2.59553 96.4645 2.43708C96.5475 2.28618 96.5928 2.11264 96.5928 1.94665C96.5928 1.7882 96.5475 1.61466 96.4645 1.45621C96.374 1.30531 96.2457 1.18459 96.0948 1.10159C95.9364 1.0035 95.7855 0.965777 95.6119 0.965777ZM95.0989 2.59553V1.33549H95.5289C95.6798 1.33549 95.793 1.35058 95.8534 1.37321C95.9213 1.38831 95.9741 1.43358 96.0118 1.49394C96.0495 1.54675 96.0722 1.60711 96.0722 1.68257C96.0722 1.77311 96.0345 1.8561 95.9741 1.92401C95.9137 1.99946 95.8232 2.02964 95.71 2.03719C95.7553 2.05982 95.793 2.08246 95.8156 2.10509C95.8685 2.15791 95.9364 2.24091 96.0043 2.35408L96.1552 2.60307H95.9137L95.8006 2.4069C95.71 2.24845 95.6346 2.15036 95.5893 2.11264C95.5516 2.08246 95.4988 2.06737 95.4233 2.06737H95.3101V2.60307L95.0989 2.59553ZM95.3026 1.87874H95.544C95.6647 1.87874 95.7402 1.86365 95.793 1.82592C95.8383 1.79574 95.8534 1.74293 95.8534 1.68257C95.8534 1.64484 95.8458 1.61466 95.8232 1.59202C95.8081 1.56184 95.7779 1.53166 95.7327 1.52412C95.6949 1.50903 95.627 1.49394 95.5289 1.49394H95.295V1.87874H95.3026Z" fill="black"/>
<path d="M29.358 13.3398H29.1619C29.1619 13.3398 28.3847 14.5018 26.6418 14.5018C23.9255 14.5018 22.3788 12.3665 22.3788 9.4616C22.3788 6.55673 23.9331 4.42145 26.6418 4.42145C28.3847 4.42145 29.1619 5.5834 29.1619 5.5834H29.358L29.5542 4.80625L29.7504 4.61008H31.1085L31.3047 4.80625V13.1436C31.3047 17.0218 29.1694 18.38 26.8455 18.38C24.5216 18.38 23.1635 17.218 22.9673 15.6637L23.1635 15.4675H24.7178L24.8989 15.6637C25.2837 16.4409 25.8646 16.6295 26.838 16.6295C28.5809 16.637 29.358 15.4675 29.358 13.3398ZM26.838 6.16438C25.2837 6.16438 24.3179 7.32633 24.3179 9.4616C24.3179 11.5969 25.2837 12.7588 26.838 12.7588C28.3923 12.7588 29.358 11.793 29.358 9.4616C29.358 7.1377 28.3847 6.16438 26.838 6.16438Z" fill="black"/>
<path d="M38.5254 6.36055H37.5596C36.0053 6.36055 35.0395 6.94152 35.0395 9.26543V14.1094L34.8434 14.3056H33.2891L33.0929 14.1094V4.80625L33.2891 4.61008H34.6472L34.8434 4.80625L35.0395 5.5834H35.2357C35.8167 5.00242 36.3977 4.61762 37.7558 4.61762H38.5329L38.7291 4.8138V6.17192L38.5254 6.36055Z" fill="black"/>
<path d="M39.0083 9.4616C39.0083 6.74535 40.3664 4.42145 43.4675 4.42145C46.5685 4.42145 47.9267 6.74535 47.9267 9.4616V10.0426L47.7305 10.2388H41.3322L41.136 10.4349C41.136 10.8197 41.3322 12.7588 43.6561 12.7588C44.4333 12.7588 45.2104 12.5627 45.5952 11.5969L45.7914 11.4007H47.3457L47.5418 11.5969C47.3457 13.1512 45.9876 14.5018 43.6636 14.5018C40.5626 14.5018 39.0083 12.3665 39.0083 9.4616ZM45.7914 8.48828C45.7914 7.9073 45.5952 6.16438 43.4675 6.16438C41.3322 6.16438 41.1436 7.9073 41.1436 8.48828L41.3397 8.68445H45.6027L45.7914 8.48828Z" fill="black"/>
<path d="M48.9 9.4616C48.9 6.74535 50.2582 4.42145 53.3592 4.42145C56.4603 4.42145 57.8184 6.74535 57.8184 9.4616V10.0426L57.6222 10.2388H51.2239L51.0278 10.4349C51.0278 10.8197 51.2239 12.7588 53.5478 12.7588C54.325 12.7588 55.1021 12.5627 55.4869 11.5969L55.6831 11.4007H57.2374L57.4336 11.5969C57.2374 13.1512 55.8793 14.5018 53.5554 14.5018C50.4468 14.5018 48.9 12.3665 48.9 9.4616ZM55.6831 8.48828C55.6831 7.9073 55.4869 6.16438 53.3592 6.16438C51.2315 6.16438 51.0353 7.9073 51.0353 8.48828L51.2315 8.68445H55.4945L55.6831 8.48828Z" fill="black"/>
<path d="M67.5063 14.3056H65.952L65.7558 14.1094V8.48828C65.7558 7.5225 65.5596 6.16438 63.8167 6.16438C62.0738 6.16438 61.2966 7.13016 61.2966 9.4616V14.117L61.1004 14.3131H59.5461L59.35 14.117V4.80625L59.5461 4.61008H60.9043L61.1004 4.80625L61.2966 5.5834H61.4928C61.4928 5.5834 62.2699 4.42145 64.0129 4.42145C66.7291 4.42145 67.6949 6.16438 67.6949 8.49583V14.117L67.5063 14.3056Z" fill="black"/>
<path d="M77.7828 14.3056H76.4247L76.2285 14.1094L76.0324 13.3323H75.8362C75.8362 13.3323 75.059 14.4942 73.3161 14.4942C70.5999 14.4942 69.0531 12.3589 69.0531 9.45406C69.0531 6.54918 70.6074 4.41391 73.3161 4.41391C75.059 4.41391 75.8362 5.57586 75.8362 5.57586H76.0324V0.928054L76.2285 0.73188H77.7828L77.979 0.928054V14.1094L77.7828 14.3056ZM73.5123 6.16438C71.958 6.16438 70.9922 7.32633 70.9922 9.4616C70.9922 11.5969 71.958 12.7588 73.5123 12.7588C75.0666 12.7588 76.0324 11.793 76.0324 9.4616C76.0324 7.1377 75.0666 6.16438 73.5123 6.16438Z" fill="black"/>
<path d="M84.1811 4.42145C87.086 4.42145 88.8365 6.36055 88.8365 9.4616C88.8365 12.5627 87.0935 14.5018 84.1811 14.5018C81.2762 14.5018 79.5258 12.5627 79.5258 9.4616C79.5258 6.36055 81.2687 4.42145 84.1811 4.42145ZM84.1811 12.7588C85.924 12.7588 86.8974 11.5969 86.8974 9.4616C86.8974 7.32633 85.9316 6.16438 84.1811 6.16438C82.4382 6.16438 81.4649 7.32633 81.4649 9.4616C81.4649 11.5893 82.4306 12.7588 84.1811 12.7588Z" fill="black"/>
<path d="M95.612 14.3056H94.0577C92.6995 14.3056 91.3414 13.5284 91.3414 11.7855V6.54918L91.1452 6.35301H89.7871L89.5909 6.15683V4.79871L89.7871 4.60254H91.1452L91.3414 4.40636V2.67853L91.5376 2.48235H93.0919L93.2881 2.67853V4.42145L93.4842 4.61763H95.6195L95.8157 4.8138V6.17193L95.6195 6.3681H93.4842L93.2881 6.56427V11.8006C93.2881 12.3816 93.6729 12.5777 94.0652 12.5777H95.6195L95.8157 12.7739V14.132L95.612 14.3056Z" fill="black"/>
<path d="M73.0218 23.8351C73.0218 26.2344 71.8975 28 69.6566 28C68.2155 28 67.4157 27.3587 67.0913 26.7173H66.9328L66.7744 27.6756L66.6159 27.834H66.1331L65.9746 27.6756V16.7879L66.1331 16.6295H66.7744L66.9328 16.7879V20.9528H67.0913C67.4082 20.3115 68.2155 19.6702 69.6566 19.6702C71.8975 19.6777 73.0218 21.4357 73.0218 23.8351ZM66.9328 23.8351C66.9328 26.076 67.8911 27.2002 69.4982 27.2002C71.0978 27.2002 72.0635 26.076 72.0635 23.8351C72.0635 21.5942 71.1053 20.47 69.4982 20.47C67.8911 20.4775 66.9328 21.5942 66.9328 23.8351Z" fill="#808184"/>
<path d="M80.0615 27.8415H79.5786L79.4201 27.6831L79.2617 26.8833H79.1032C78.7863 27.3662 78.145 28.0075 76.5379 28.0075C74.7799 28.0075 73.8141 27.0493 73.8141 25.6082C73.8141 23.8502 75.0968 23.0428 77.1792 23.0428C78.1374 23.0428 79.1032 23.2013 79.1032 23.2013L79.2617 23.0428V22.5599C79.2617 21.1188 78.7788 20.4775 77.1792 20.4775C75.5796 20.4775 75.0968 21.2773 75.0968 22.0771L74.9383 22.2355H74.297L74.1385 22.0771C74.1385 20.7944 75.0968 19.6777 77.1792 19.6777C79.5786 19.6777 80.2199 20.8019 80.2199 22.5599V27.6831L80.0615 27.8415ZM79.2617 24.1595L79.1032 24.0011C79.1032 24.0011 78.3034 23.8426 77.3452 23.8426C75.4212 23.8426 74.7799 24.484 74.7799 25.6006C74.7799 26.5589 75.2628 27.2002 76.7039 27.2002C78.4619 27.2002 79.2692 25.9175 79.2692 24.8009V24.1595H79.2617Z" fill="#808184"/>
<path d="M88.2329 27.8415H87.5915L87.4331 27.6831V22.8768C87.4331 21.2773 86.6333 20.4775 85.3506 20.4775C83.5926 20.4775 82.7853 21.6017 82.7853 23.3597V27.6831L82.6268 27.8415H81.9855L81.827 27.6831V19.9946L81.9855 19.8362H82.4684L82.6268 19.9946L82.7853 20.9528H82.9437C83.4266 20.1531 84.3848 19.6702 85.5091 19.6702C87.2671 19.6702 88.3913 20.7944 88.3913 22.8693V27.6756L88.2329 27.8415Z" fill="#808184"/>
<path d="M95.9137 27.8415H95.5968L95.2799 27.6831L92.3976 24.0011H92.2392L91.115 25.1253L90.9565 25.4422V27.6831L90.7981 27.8415H90.1567L89.9983 27.6831V16.7879L90.1567 16.6295H90.7981L90.9565 16.7879V23.8351H91.115L94.9554 19.9946L95.2723 19.8362H95.5892L95.7477 19.9946V20.4775L93.0239 23.2013V23.3597L96.0646 27.2002V27.6831L95.9137 27.8415Z" fill="#808184"/>
<path d="M9.49178 18.9836C14.7339 18.9836 18.9836 14.7339 18.9836 9.49178C18.9836 4.24962 14.7339 0 9.49178 0C4.24962 0 0 4.24962 0 9.49178C0 14.7339 4.24962 18.9836 9.49178 18.9836Z" fill="url(#paint0_radial)"/>
</g>
<defs>
<radialGradient id="paint0_radial" cx="0" cy="0" r="1" gradientUnits="userSpaceOnUse" gradientTransform="translate(11.7377 6.74595) scale(12.5087)">
<stop stop-color="#8CFF40"/>
<stop offset="0.1742" stop-color="#8CFF40"/>
<stop offset="0.2498" stop-color="#85FB3F"/>
<stop offset="0.3578" stop-color="#72F03A"/>
<stop offset="0.4853" stop-color="#54DE34"/>
<stop offset="0.6264" stop-color="#29C52A"/>
<stop offset="0.744" stop-color="#00AD21"/>
<stop offset="0.8471" stop-color="#02AE20"/>
<stop offset="0.898" stop-color="#0AB31C"/>
<stop offset="0.9375" stop-color="#17BC15"/>
<stop offset="0.9708" stop-color="#2AC80C"/>
<stop offset="1" stop-color="#41D700"/>
</radialGradient>
<clipPath id="clip0">
<rect width="96.789" height="28" fill="white"/>
</clipPath>
</defs>
</svg>
