<svg width="246" height="36" viewBox="0 0 246 36" fill="none" xmlns="http://www.w3.org/2000/svg">
<g clip-path="url(#clip0)">
<path d="M181.342 1.46939C181.725 1.46939 182.076 1.56522 182.428 1.75688C182.779 1.94854 183.067 2.23602 183.258 2.5874C183.45 2.93877 183.546 3.32209 183.546 3.70541C183.546 4.12067 183.45 4.47205 183.258 4.82342C183.067 5.1748 182.779 5.46229 182.428 5.65395C182.076 5.84561 181.693 5.94144 181.342 5.94144C180.958 5.94144 180.575 5.84561 180.224 5.65395C179.872 5.46229 179.617 5.1748 179.393 4.82342C179.201 4.47205 179.106 4.12067 179.106 3.70541C179.106 3.32209 179.201 2.97072 179.393 2.5874C179.585 2.23602 179.872 1.94854 180.224 1.75688C180.607 1.56522 180.99 1.46939 181.342 1.46939ZM181.342 1.82076C181.022 1.82076 180.735 1.91659 180.415 2.07631C180.128 2.23602 179.872 2.45963 179.713 2.74712C179.553 3.0346 179.457 3.35404 179.457 3.67347C179.457 3.9929 179.553 4.31233 179.713 4.59982C179.872 4.88731 180.128 5.11091 180.415 5.30257C180.703 5.46229 181.022 5.55812 181.342 5.55812C181.661 5.55812 181.949 5.46229 182.268 5.30257C182.555 5.14286 182.779 4.91925 182.939 4.59982C183.098 4.31233 183.194 3.9929 183.194 3.67347C183.194 3.35404 183.098 3.0346 182.939 2.74712C182.747 2.45963 182.524 2.23602 182.236 2.07631C181.949 1.91659 181.693 1.82076 181.342 1.82076ZM180.383 4.91925V2.52351H181.214C181.501 2.52351 181.725 2.55546 181.821 2.5874C181.949 2.61934 182.044 2.71517 182.108 2.811C182.172 2.90683 182.236 3.0346 182.236 3.16238C182.236 3.35404 182.172 3.48181 182.044 3.60958C181.949 3.73736 181.757 3.80124 181.533 3.83318C181.629 3.86513 181.693 3.92901 181.725 3.96096C181.821 4.05679 181.949 4.2165 182.076 4.44011L182.364 4.91925H181.917L181.693 4.53594C181.533 4.24845 181.374 4.05679 181.278 3.9929C181.214 3.92901 181.118 3.89707 180.958 3.89707H180.735V4.91925H180.383ZM180.767 3.57764H181.214C181.437 3.57764 181.597 3.5457 181.693 3.48181C181.789 3.41792 181.821 3.32209 181.821 3.22626C181.821 3.16238 181.821 3.09849 181.757 3.0346C181.725 2.97072 181.661 2.90683 181.597 2.90683C181.533 2.87489 181.405 2.84294 181.214 2.84294H180.767V3.57764Z" fill="black"/>
<path d="M55.677 25.299H55.2937C55.2937 25.299 53.8243 27.5031 50.5022 27.5031C45.3594 27.5031 42.4206 23.4463 42.4206 17.9521C42.4206 12.4259 45.3594 8.40107 50.5022 8.40107C53.8243 8.40107 55.2937 10.6051 55.2937 10.6051H55.677L56.0603 9.13576L56.4437 8.75244H59.0311L59.4144 9.13576V24.9157C59.4144 32.2626 55.3576 34.85 50.9494 34.85C46.5413 34.85 43.9539 32.646 43.6025 29.7072L43.9858 29.3239H46.9246L47.3079 29.7072C48.0426 31.1766 49.1606 31.5599 50.9814 31.5599C54.2076 31.5599 55.677 29.3558 55.677 25.299ZM50.8855 11.6912C47.9468 11.6912 46.0941 13.8953 46.0941 17.9521C46.0941 22.0089 47.9468 24.213 50.8855 24.213C53.8243 24.213 55.677 22.3603 55.677 17.9521C55.677 13.5439 53.8563 11.6912 50.8855 11.6912Z" fill="black"/>
<path d="M73.0861 12.0745H71.2334C68.2946 12.0745 66.4419 13.1925 66.4419 17.6007V26.8004L66.0586 27.1837H63.1198L62.7365 26.8004V9.10382L63.1198 8.7205H65.7072L66.0905 9.10382L66.4738 10.5732H66.8572C67.9752 9.45519 69.0612 8.7205 71.6486 8.7205H73.118L73.5013 9.10382V11.6912L73.0861 12.0745Z" fill="black"/>
<path d="M73.9805 17.9521C73.9805 12.8092 76.5679 8.40107 82.4454 8.40107C88.323 8.40107 90.9104 12.8092 90.9104 17.9521V19.0701L90.5271 19.4534H78.3886L78.0053 19.8367C78.0053 20.5714 78.3886 24.2449 82.7968 24.2449C84.2662 24.2449 85.7356 23.8616 86.4703 22.0408L86.8536 21.6575H89.7924L90.1757 22.0408C89.7924 24.9796 87.2369 27.567 82.8287 27.567C76.9192 27.5031 73.9805 23.4463 73.9805 17.9521ZM86.8536 16.0994C86.8536 14.9814 86.4703 11.6912 82.4454 11.6912C78.3886 11.6912 78.0373 15.0133 78.0373 16.0994L78.4206 16.4827H86.5022L86.8536 16.0994Z" fill="black"/>
<path d="M92.7311 17.9521C92.7311 12.8092 95.3185 8.40107 101.196 8.40107C107.074 8.40107 109.661 12.8092 109.661 17.9521V19.0701L109.278 19.4534H97.1393L96.756 19.8367C96.756 20.5714 97.1393 24.2449 101.547 24.2449C103.017 24.2449 104.486 23.8616 105.221 22.0408L105.604 21.6575H108.543L108.926 22.0408C108.543 24.9796 105.988 27.567 101.579 27.567C95.6699 27.5031 92.7311 23.4463 92.7311 17.9521ZM105.604 16.0994C105.604 14.9814 105.221 11.6912 101.196 11.6912C97.1712 11.6912 96.7879 15.0133 96.7879 16.0994L97.1713 16.4827H105.253L105.604 16.0994Z" fill="black"/>
<path d="M128.028 27.1517H125.09L124.706 26.7684V16.0994C124.706 14.2467 124.323 11.6912 121.033 11.6912C117.711 11.6912 116.241 13.5439 116.241 17.9521V26.7684L115.858 27.1517H112.919L112.536 26.7684V9.10382L112.919 8.7205H115.507L115.89 9.10382L116.273 10.5732H116.657C116.657 10.5732 118.126 8.36912 121.448 8.36912C126.591 8.36912 128.444 11.6912 128.444 16.0994V26.7684L128.028 27.1517Z" fill="black"/>
<path d="M147.514 27.1517H144.926L144.543 26.7684L144.16 25.299H143.776C143.776 25.299 142.307 27.5031 138.985 27.5031C133.842 27.5031 130.903 23.4463 130.903 17.9521C130.903 12.4259 133.842 8.40106 138.985 8.40106C142.307 8.40106 143.776 10.6051 143.776 10.6051H144.16V1.75688L144.543 1.37356H147.482L147.865 1.75688V26.7684L147.514 27.1517ZM139.432 11.6912C136.493 11.6912 134.641 13.8953 134.641 17.9521C134.641 22.0089 136.493 24.213 139.432 24.213C142.371 24.213 144.224 22.3602 144.224 17.9521C144.224 13.5439 142.371 11.6912 139.432 11.6912Z" fill="black"/>
<path d="M159.652 8.36912C165.178 8.36912 168.469 12.0426 168.469 17.9201C168.469 23.7977 165.146 27.4712 159.652 27.4712C154.126 27.4712 150.836 23.7977 150.836 17.9201C150.836 12.0426 154.158 8.36912 159.652 8.36912ZM159.652 24.181C162.974 24.181 164.795 21.9769 164.795 17.9201C164.795 13.8634 162.942 11.6593 159.652 11.6593C156.33 11.6593 154.509 13.8634 154.509 17.9201C154.509 21.9769 156.362 24.181 159.652 24.181Z" fill="black"/>
<path d="M181.342 27.1517H178.403C175.815 27.1517 173.26 25.6823 173.26 22.3602V12.4259L172.877 12.0426H170.289L169.906 11.6593V9.07187L170.289 8.68855H172.877L173.26 8.30524V5.07897L173.643 4.69565H176.582L176.965 5.07897V8.40106L177.349 8.78438H181.406L181.789 9.1677V11.7551L181.406 12.1384H177.349L176.965 12.5217V22.3602C176.965 23.4783 177.7 23.8296 178.435 23.8296H181.374L181.757 24.213V26.8004L181.342 27.1517Z" fill="black"/>
<path d="M201.53 19.4215C201.53 23.9894 199.39 27.3114 195.141 27.3114C192.394 27.3114 190.893 26.0976 190.286 24.8838H189.966L189.647 26.7045L189.327 27.024H188.465L188.146 26.7045V6.06921L188.465 5.74978H189.679L189.998 6.06921V13.9592H190.318C190.925 12.7453 192.458 11.5315 195.173 11.5315C199.39 11.5315 201.53 14.8855 201.53 19.4215ZM189.966 19.4215C189.966 23.6699 191.787 25.8101 194.822 25.8101C197.856 25.8101 199.677 23.6699 199.677 19.4215C199.677 15.173 197.856 13.0328 194.822 13.0328C191.787 13.0328 189.966 15.173 189.966 19.4215Z" fill="#A6A8AB"/>
<path d="M214.882 27.024H213.956L213.636 26.7045L213.317 25.1713H212.997C212.39 26.0976 211.177 27.3114 208.142 27.3114C204.788 27.3114 202.967 25.4907 202.967 22.7436C202.967 19.3895 205.395 17.8882 209.356 17.8882C211.177 17.8882 212.997 18.2076 212.997 18.2076L213.317 17.8882V16.9618C213.317 14.2147 212.39 13.0009 209.356 13.0009C206.321 13.0009 205.395 14.5342 205.395 16.0355L205.075 16.3549H203.862L203.542 16.0355C203.542 13.6078 205.363 11.4676 209.324 11.4676C213.892 11.4676 215.106 13.6078 215.106 16.9299V26.6406L214.882 27.024ZM213.349 20.0284L213.029 19.709C213.029 19.709 211.496 19.3895 209.675 19.3895C206.034 19.3895 204.82 20.6034 204.82 22.7436C204.82 24.5643 205.746 25.7782 208.461 25.7782C211.815 25.7782 213.317 23.3505 213.317 21.2103V20.0284H213.349Z" fill="#A6A8AB"/>
<path d="M230.374 27.024H229.161L228.841 26.7045V17.6007C228.841 14.5661 227.308 13.0328 224.88 13.0328C221.526 13.0328 220.025 15.173 220.025 18.4951V26.7045L219.705 27.024H218.492L218.172 26.7045V12.1384L218.492 11.819H219.418L219.737 12.1384L220.057 13.9592H220.376C221.303 12.4259 223.123 11.5315 225.232 11.5315C228.586 11.5315 230.694 13.6717 230.694 17.6007V26.7045L230.374 27.024Z" fill="#A6A8AB"/>
<path d="M244.941 27.024H244.334L243.727 26.7045L238.264 19.709H237.945L235.805 21.8492L235.485 22.4561V26.7045L235.166 27.024H233.952L233.633 26.7045V6.06921L233.952 5.74978H235.166L235.485 6.06921V19.4215H235.805L243.12 12.1384L243.727 11.819H244.334L244.653 12.1384V13.0648L239.478 18.2076V18.5271L245.26 25.8101V26.7365L244.941 27.024Z" fill="#A6A8AB"/>
<path d="M18.016 36.0319C27.9659 36.0319 36.0319 27.9659 36.0319 18.016C36.0319 8.06603 27.9659 0 18.016 0C8.06603 0 0 8.06603 0 18.016C0 27.9659 8.06603 36.0319 18.016 36.0319Z" fill="url(#paint0_radial)"/>
</g>
<defs>
<radialGradient id="paint0_radial" cx="0" cy="0" r="1" gradientUnits="userSpaceOnUse" gradientTransform="translate(22.2631 12.7951) scale(23.7254)">
<stop stop-color="#91FF50"/>
<stop offset="0.1742" stop-color="#91FF50"/>
<stop offset="0.2506" stop-color="#8AFB4E"/>
<stop offset="0.3596" stop-color="#77F04A"/>
<stop offset="0.4882" stop-color="#59DD42"/>
<stop offset="0.6307" stop-color="#2EC437"/>
<stop offset="0.744" stop-color="#07AC2D"/>
<stop offset="0.8466" stop-color="#09AD2B"/>
<stop offset="0.8973" stop-color="#11B226"/>
<stop offset="0.9367" stop-color="#1EBB1D"/>
<stop offset="0.9699" stop-color="#31C611"/>
<stop offset="0.9994" stop-color="#48D600"/>
<stop offset="1" stop-color="#49D600"/>
</radialGradient>
<clipPath id="clip0">
<rect width="245.26" height="36" fill="white"/>
</clipPath>
</defs>
</svg>
