<svg width="39" height="37" viewBox="0 0 39 37" fill="none" xmlns="http://www.w3.org/2000/svg">
<rect width="39" height="37" fill="#E5E5E5"/>
<g clip-path="url(#clip0)">
<rect width="1440" height="3393" transform="translate(-728 -514)" fill="white"/>
<path d="M19.1245 36.9075C8.57981 36.9075 0 28.6288 0 18.4533C0 8.2778 8.57981 0 19.1245 0C29.6702 0 38.25 8.2778 38.25 18.4533C38.25 28.6288 29.6702 36.9075 19.1245 36.9075ZM19.1245 2.53516C10.0279 2.53516 2.62737 9.67591 2.62737 18.4533C2.62737 27.2307 10.0279 34.3719 19.1245 34.3719C28.2221 34.3719 35.6222 27.2307 35.6222 18.4533C35.6222 9.67591 28.2221 2.53516 19.1245 2.53516Z" fill="#07ac2d"/>
<path d="M26.9375 9.75H12.0625C11.3625 9.75 10.8375 10.275 10.8375 10.975V25.9375C10.8375 26.6375 11.45 27.1625 12.15 27.1625H26.9375C27.6375 27.1625 28.25 26.6375 28.25 25.9375V10.975C28.1625 10.275 27.6375 9.75 26.9375 9.75ZM16.0875 24.3625H13.4625V16.4875H16.0875V24.3625ZM14.775 15.4375C13.9875 15.4375 13.375 14.825 13.375 14.0375C13.375 13.25 13.9875 12.6375 14.775 12.6375C15.5625 12.55 16.175 13.075 16.2625 13.8625C16.35 14.65 15.825 15.35 15.0375 15.4375C14.95 15.4375 14.8625 15.4375 14.775 15.4375ZM25.5375 24.3625H22.9125V20.1625C22.9125 19.1125 22.5625 18.4125 21.6 18.4125C20.9875 18.4125 20.4625 18.7625 20.2875 19.375C20.2 19.55 20.2 19.8125 20.2 19.9875V24.3625H17.575C17.575 24.3625 17.575 17.1875 17.575 16.4875H20.2V17.625C20.725 16.75 21.6 16.3125 22.5625 16.3125C24.3125 16.3125 25.5375 17.45 25.5375 19.9V24.3625Z" fill="#07ac2d"/>
</g>
<defs>
<clipPath id="clip0">
<rect width="1440" height="3393" fill="white" transform="translate(-728 -514)"/>
</clipPath>
</defs>
</svg>
