<svg width="39" height="37" viewBox="0 0 39 37" fill="none" xmlns="http://www.w3.org/2000/svg">
<path d="M27.1596 12.5451C26.5145 12.913 25.8017 13.1807 25.0422 13.3261C24.4338 12.7014 23.5662 12.3101 22.6099 12.3101C20.7686 12.3101 19.2766 13.7497 19.2766 15.5264C19.2766 15.7777 19.3049 16.0242 19.3626 16.2579C16.5924 16.1249 14.1363 14.8448 12.4914 12.8985C12.2038 13.3738 12.0404 13.9268 12.0404 14.5161C12.0404 15.6306 12.6287 16.6162 13.5237 17.1931C12.9766 17.1767 12.4639 17.0314 12.0139 16.7902C12.0129 16.8034 12.0129 16.8176 12.0129 16.8322C12.0129 18.3893 13.1616 19.6907 14.6879 19.9853C14.4073 20.0595 14.1134 20.0997 13.8089 20.0997C13.5947 20.0997 13.3859 20.0785 13.1831 20.0414C13.607 21.3189 14.8367 22.2488 16.2958 22.2749C15.1558 23.1376 13.7187 23.6518 12.1558 23.6518C11.8866 23.6518 11.622 23.6372 11.361 23.6063C12.8365 24.5185 14.589 25.0516 16.4716 25.0516C22.6035 25.0516 25.956 20.1496 25.956 15.8996C25.956 15.7605 25.9523 15.6214 25.9464 15.4831C26.5974 15.0303 27.1623 14.4635 27.6087 13.8186C27.0113 14.0739 26.3685 14.2462 25.6941 14.324C26.3822 13.9268 26.9105 13.2947 27.1596 12.5451Z" fill="#07ac2d"/>
<path d="M19.125 0C8.57936 0 0 8.2778 0 18.4533C0 28.6288 8.57936 36.9075 19.125 36.9075C29.6706 36.9075 38.25 28.6288 38.25 18.4533C38.25 8.2778 29.6706 0 19.125 0ZM19.125 34.3719C10.0283 34.3719 2.62737 27.2307 2.62737 18.4533C2.62737 9.67591 10.0283 2.53516 19.125 2.53516C28.2217 2.53516 35.6226 9.67591 35.6226 18.4533C35.6226 27.2307 28.2217 34.3719 19.125 34.3719Z" fill="#07ac2d"/>
</svg>
