<svg width="32" height="32" viewBox="0 0 32 32" fill="none" xmlns="http://www.w3.org/2000/svg">
<path d="M25.3334 3.99998H24.0001V2.66665C24.0001 2.31302 23.8596 1.97389 23.6096 1.72384C23.3595 1.47379 23.0204 1.33331 22.6667 1.33331C22.3131 1.33331 21.974 1.47379 21.7239 1.72384C21.4739 1.97389 21.3334 2.31302 21.3334 2.66665V3.99998H10.6667V2.66665C10.6667 2.31302 10.5263 1.97389 10.2762 1.72384C10.0262 1.47379 9.68704 1.33331 9.33342 1.33331C8.97979 1.33331 8.64065 1.47379 8.39061 1.72384C8.14056 1.97389 8.00008 2.31302 8.00008 2.66665V3.99998H6.66675C5.60588 3.99998 4.58847 4.42141 3.83832 5.17155C3.08818 5.9217 2.66675 6.93911 2.66675 7.99998V26.6666C2.66675 27.7275 3.08818 28.7449 3.83832 29.4951C4.58847 30.2452 5.60588 30.6666 6.66675 30.6666H25.3334C26.3943 30.6666 27.4117 30.2452 28.1618 29.4951C28.912 28.7449 29.3334 27.7275 29.3334 26.6666V7.99998C29.3334 6.93911 28.912 5.9217 28.1618 5.17155C27.4117 4.42141 26.3943 3.99998 25.3334 3.99998ZM26.6667 26.6666C26.6667 27.0203 26.5263 27.3594 26.2762 27.6095C26.0262 27.8595 25.687 28 25.3334 28H6.66675C6.31313 28 5.97399 27.8595 5.72394 27.6095C5.47389 27.3594 5.33341 27.0203 5.33341 26.6666V14.6666H26.6667V26.6666ZM26.6667 12H5.33341V7.99998C5.33341 7.64636 5.47389 7.30722 5.72394 7.05717C5.97399 6.80712 6.31313 6.66665 6.66675 6.66665H8.00008V7.99998C8.00008 8.3536 8.14056 8.69274 8.39061 8.94279C8.64065 9.19284 8.97979 9.33331 9.33342 9.33331C9.68704 9.33331 10.0262 9.19284 10.2762 8.94279C10.5263 8.69274 10.6667 8.3536 10.6667 7.99998V6.66665H21.3334V7.99998C21.3334 8.3536 21.4739 8.69274 21.7239 8.94279C21.974 9.19284 22.3131 9.33331 22.6667 9.33331C23.0204 9.33331 23.3595 9.19284 23.6096 8.94279C23.8596 8.69274 24.0001 8.3536 24.0001 7.99998V6.66665H25.3334C25.687 6.66665 26.0262 6.80712 26.2762 7.05717C26.5263 7.30722 26.6667 7.64636 26.6667 7.99998V12Z" fill="#77F04A"/>
<ellipse cx="9.33333" cy="18.6666" rx="1.33333" ry="1.33333" fill="#77F04A"/>
<ellipse cx="9.33333" cy="24" rx="1.33333" ry="1.33333" fill="#77F04A"/>
<ellipse cx="16.0001" cy="18.6666" rx="1.33333" ry="1.33333" fill="#77F04A"/>
<ellipse cx="16.0001" cy="24" rx="1.33333" ry="1.33333" fill="#77F04A"/>
<circle cx="22.6666" cy="18.6666" r="1.33333" fill="#77F04A"/>
<ellipse cx="22.6666" cy="24" rx="1.33333" ry="1.33333" fill="#77F04A"/>
</svg>
