<svg width="32" height="32" viewBox="0 0 32 32" fill="none" xmlns="http://www.w3.org/2000/svg">
<path d="M26.1733 4.86669C26.0184 4.74139 25.8373 4.65239 25.6435 4.60624C25.4497 4.56009 25.248 4.55797 25.0533 4.60002C23.6285 4.89862 22.1577 4.90242 20.7314 4.6112C19.3052 4.31999 17.9536 3.73991 16.7599 2.90669C16.5367 2.75185 16.2716 2.66888 15.9999 2.66888C15.7283 2.66888 15.4631 2.75185 15.2399 2.90669C14.0463 3.73991 12.6947 4.31999 11.2684 4.6112C9.84214 4.90242 8.37134 4.89862 6.94659 4.60002C6.75184 4.55797 6.55015 4.56009 6.35633 4.60624C6.16251 4.65239 5.98149 4.74139 5.82659 4.86669C5.6719 4.99218 5.54729 5.15074 5.46192 5.33071C5.37654 5.51068 5.33258 5.7075 5.33326 5.90669V15.84C5.33207 17.7517 5.78762 19.636 6.66197 21.336C7.53632 23.036 8.80417 24.5025 10.3599 25.6134L15.2266 29.08C15.4524 29.2408 15.7227 29.3272 15.9999 29.3272C16.2771 29.3272 16.5474 29.2408 16.7733 29.08L21.6399 25.6134C23.1957 24.5025 24.4635 23.036 25.3379 21.336C26.2122 19.636 26.6678 17.7517 26.6666 15.84V5.90669C26.6673 5.7075 26.6233 5.51068 26.5379 5.33071C26.4526 5.15074 26.328 4.99218 26.1733 4.86669ZM23.9999 15.84C24.0009 17.3264 23.647 18.7915 22.9675 20.1134C22.2879 21.4353 21.3025 22.5758 20.0933 23.44L15.9999 26.36L11.9066 23.44C10.6973 22.5758 9.71191 21.4353 9.03239 20.1134C8.35288 18.7915 7.9989 17.3264 7.99993 15.84V7.44002C10.7952 7.67927 13.5946 7.03072 15.9999 5.58669C18.4052 7.03072 21.2047 7.67927 23.9999 7.44002V15.84ZM18.0533 12.7867L14.4666 16.3867L13.2799 15.1867C13.0289 14.9356 12.6883 14.7946 12.3333 14.7946C11.9782 14.7946 11.6377 14.9356 11.3866 15.1867C11.1355 15.4378 10.9945 15.7783 10.9945 16.1334C10.9945 16.4884 11.1355 16.829 11.3866 17.08L13.5199 19.2134C13.6439 19.3383 13.7913 19.4375 13.9538 19.5052C14.1163 19.5729 14.2906 19.6078 14.4666 19.6078C14.6426 19.6078 14.8169 19.5729 14.9794 19.5052C15.1418 19.4375 15.2893 19.3383 15.4133 19.2134L19.9999 14.6667C20.251 14.4156 20.392 14.0751 20.392 13.72C20.392 13.365 20.251 13.0244 19.9999 12.7734C19.7489 12.5223 19.4083 12.3812 19.0533 12.3812C18.6982 12.3812 18.3577 12.5223 18.1066 12.7734L18.0533 12.7867Z" fill="#77F04A"/>
</svg>
