<svg width="190" height="44" viewBox="0 0 190 44" fill="none" xmlns="http://www.w3.org/2000/svg">
<path d="M100.023 23.659C105.672 18.2569 105.672 9.45358 100.023 4.05154C94.3745 -1.35051 85.1367 -1.35051 79.4213 4.05154C78.4908 4.98522 78.2915 6.38575 79.0225 7.51952C79.1554 7.71959 79.2883 7.91967 79.4213 8.11974C80.4181 9.65366 82.6113 9.85373 83.9405 8.65328C87.2634 5.51876 92.6465 5.51876 95.7036 8.92005C98.4285 11.9212 98.2955 16.3895 95.3049 19.2573L76.2977 37.3975C76.0319 37.6643 75.766 37.8643 75.5002 38.1311C74.1046 39.465 75.1014 41.7992 77.0952 41.7992H101.286C102.615 41.7992 103.679 40.7988 103.679 39.5316V37.7977C103.679 36.5305 102.615 35.5301 101.286 35.5301H87.7286C87.7286 35.5301 87.6621 35.5301 87.7286 35.4634L100.023 23.659Z" fill="#020D77"/>
<path d="M42.005 20.9246V40.9322C42.005 42.5995 40.6759 44 38.9479 44C37.2865 44 35.8908 42.6662 35.8908 40.9322V34.9299C35.4256 35.4635 35.1598 35.7969 35.1598 35.7969C34.761 36.1304 34.4288 36.5305 34.03 36.864C30.4412 39.9318 25.7891 41.7325 20.7383 41.7325C9.17443 41.7325 -0.196253 32.1955 0.00312364 20.5912C0.2025 9.65368 8.97505 0.650266 19.8743 0.183422C25.6562 -0.0833452 30.9064 2.11749 34.8275 5.71885C35.7579 6.58585 35.9573 7.98638 35.2927 9.05345C35.1598 9.25352 35.0269 9.52029 34.894 9.72037C34.03 11.321 31.9033 11.5877 30.6406 10.3206C28.0487 7.85299 24.5929 6.31908 20.7383 6.31908C12.4309 6.31908 5.71858 13.4551 6.3167 21.925C6.84837 28.9276 12.4309 34.5965 19.4091 35.2634C25.922 35.8636 31.7039 32.0622 34.03 26.46C34.3623 25.6597 34.6281 24.7927 34.8275 23.9257V23.8591H22.5991C20.9376 23.8591 19.542 22.5252 19.542 20.7912C19.542 19.1239 20.8712 17.7234 22.5991 17.7234H38.9479C39.0809 17.7234 39.2138 17.7234 39.2802 17.7234C39.4132 17.7234 39.4796 17.7234 39.5461 17.7901C41.0082 18.2569 42.005 19.4574 42.005 20.9246Z" fill="#020D77"/>
<path d="M58.3537 0.183472C48.6508 0.183472 40.4763 6.91936 38.2832 15.9895H38.9478C41.5397 15.9895 43.6664 18.0569 43.8657 20.5912C43.8657 20.7246 43.8657 20.7913 43.8657 20.9247C43.8657 21.1914 43.8657 21.5249 43.8657 21.7917V35.797C47.5874 39.465 52.7047 41.7325 58.2873 41.7325C69.7182 41.7325 78.956 32.3957 78.956 20.9914C79.0224 9.52034 69.7182 0.183472 58.3537 0.183472Z" fill="#020D77"/>
<path d="M58.3542 35.4634C66.3557 35.4634 72.8422 28.9542 72.8422 20.9246C72.8422 12.895 66.3557 6.38574 58.3542 6.38574C50.3527 6.38574 43.8662 12.895 43.8662 20.9246C43.8662 28.9542 50.3527 35.4634 58.3542 35.4634Z" fill="#1791F5"/>
<path d="M58.3537 12.0546C53.4358 12.0546 49.4482 16.0561 49.4482 20.9913C49.4482 25.9265 53.4358 29.928 58.3537 29.928C63.2717 29.928 67.2592 25.9265 67.2592 20.9913C67.2592 16.0561 63.2717 12.0546 58.3537 12.0546Z" fill="#8DC9F8"/>
<path d="M58.3538 16.9231C56.1607 16.9231 54.2998 18.7238 54.2998 20.9913C54.2998 23.2588 56.0942 25.0595 58.3538 25.0595C60.6134 25.0595 62.4078 23.2588 62.4078 20.9913C62.4078 18.7238 60.5469 16.9231 58.3538 16.9231Z" fill="white"/>
<path d="M124.015 30.7283C126.474 29.7279 126.74 27.5271 126.74 26.5934C126.74 23.1921 124.281 21.058 120.359 21.058H113.514C112.384 21.058 111.587 21.7916 111.587 22.8587V39.9318C111.587 40.9989 112.384 41.7325 113.514 41.7325H121.091C125.145 41.7325 128.002 39.1982 128.002 35.5968C127.936 33.7295 126.607 31.3952 124.015 30.7283ZM124.081 35.6635C124.081 37.1307 122.951 38.7313 120.825 38.7313H115.242V32.3956H120.758C122.818 32.3956 124.081 34.0629 124.081 35.6635ZM115.242 29.4612V24.1258H119.961C121.822 24.1258 122.885 25.0595 122.885 26.6601C122.885 28.0606 122.021 29.4612 120.16 29.4612H115.242Z" fill="#1791F5"/>
<path d="M140.829 22.5252C140.364 21.4581 139.5 20.9246 138.37 20.9246H138.171C136.975 20.9246 136.177 21.4581 135.712 22.5252L128.534 39.665C128.335 40.0651 128.402 40.5987 128.601 40.9988C128.8 41.399 129.133 41.7324 129.531 41.7991C129.731 41.8658 129.997 41.9325 130.196 41.9325C130.993 41.9325 131.724 41.5324 131.99 40.8654L133.785 36.6639H142.823L144.551 40.8654C144.883 41.7324 146.013 42.1326 147.01 41.8658C147.409 41.7324 147.741 41.4657 147.94 41.0655C148.14 40.6654 148.14 40.1318 148.007 39.7317L140.829 22.5252ZM141.494 33.6627H134.981L138.237 25.3929L141.494 33.6627Z" fill="#1791F5"/>
<path d="M164.887 20.9246C163.956 20.9246 163.092 21.7249 163.092 22.5919V35.3968L154.12 21.7916C153.655 21.1247 153.19 20.8579 152.326 20.8579H151.861C150.864 20.8579 150.066 21.5915 150.066 22.4585V40.1986C150.066 41.1323 150.864 41.8659 151.861 41.8659C152.924 41.8659 153.788 41.1323 153.788 40.1986V27.2603L162.893 40.9989C163.358 41.6658 163.823 41.9326 164.621 41.9326H165.086C166.017 41.9326 166.814 41.1989 166.814 40.332V22.5919C166.814 21.6582 165.95 20.9246 164.887 20.9246Z" fill="#1791F5"/>
<path d="M185.223 39.1982L177.248 31.3285L184.027 23.3255C184.293 22.992 184.426 22.5919 184.359 22.125C184.293 21.7249 184.027 21.3914 183.695 21.1246C182.897 20.6578 181.767 20.7912 181.302 21.4581L174.789 29.2611V22.5919C174.789 21.6582 173.925 20.9246 172.862 20.9246C171.931 20.9246 171.067 21.7249 171.067 22.5919V40.1985C171.067 41.1322 171.865 41.8658 172.862 41.8658C173.925 41.8658 174.789 41.1322 174.789 40.1985V33.596L182.565 41.399C182.964 41.7992 183.429 41.9325 183.96 41.9325C184.359 41.9325 184.758 41.7991 185.024 41.5991C185.422 41.3323 185.622 40.9322 185.688 40.4653C185.688 39.9985 185.489 39.5316 185.223 39.1982Z" fill="#1791F5"/>
<path d="M186.354 20.2577H185.756V19.9242H187.284V20.2577H186.686V21.9916H186.354V20.2577ZM187.617 19.9909H187.949L188.614 21.258L189.278 19.9909H189.61V22.0583H189.278V20.6578L188.68 21.6582H188.481L187.883 20.6578V22.0583H187.55V19.9909H187.617Z" fill="#1791F5"/>
</svg>
